Ubuntu-CondensedRegular.ufo
<glyph name="exclam" format="2">
  <advance width="253.648"/>
  <unicode hex="0021"/>
  <outline>
    <contour>
      <point x="108" y="196" type="curve"/>
      <point x="148" y="196" type="line"/>
      <point x="160" y="294"/>
      <point x="165" y="405"/>
      <point x="165" y="502" type="curve" smooth="yes"/>
      <point x="165" y="693" type="line"/>
      <point x="91" y="693" type="line"/>
      <point x="91" y="502" type="line" smooth="yes"/>
      <point x="91" y="405"/>
      <point x="97" y="294"/>
    </contour>
    <contour>
      <point x="127" y="-8" type="curve" smooth="yes"/>
      <point x="155" y="-8"/>
      <point x="176" y="16"/>
      <point x="176" y="42" type="curve" smooth="yes"/>
      <point x="176" y="70"/>
      <point x="155" y="92"/>
      <point x="127" y="92" type="curve" smooth="yes"/>
      <point x="98" y="92"/>
      <point x="79" y="70"/>
      <point x="79" y="42" type="curve" smooth="yes"/>
      <point x="79" y="16"/>
      <point x="98" y="-8"/>
    </contour>
  </outline>
</glyph>
<glyph name="numbersign" format="2">
  <advance width="559.902"/>
  <unicode hex="0023"/>
  <outline>
    <contour>
      <point x="104" y="0" type="line"/>
      <point x="162" y="0" type="line"/>
      <point x="189" y="188" type="line"/>
      <point x="328" y="188" type="line"/>
      <point x="302" y="0" type="line"/>
      <point x="360" y="0" type="line"/>
      <point x="386" y="188" type="line"/>
      <point x="515" y="188" type="line"/>
      <point x="515" y="240" type="line"/>
      <point x="393" y="240" type="line"/>
      <point x="423" y="452" type="line"/>
      <point x="515" y="452" type="line"/>
      <point x="515" y="506" type="line"/>
      <point x="430" y="506" type="line"/>
      <point x="456" y="693" type="line"/>
      <point x="397" y="693" type="line"/>
      <point x="371" y="506" type="line"/>
      <point x="233" y="506" type="line"/>
      <point x="259" y="693" type="line"/>
      <point x="200" y="693" type="line"/>
      <point x="174" y="506" type="line"/>
      <point x="46" y="506" type="line"/>
      <point x="46" y="452" type="line"/>
      <point x="166" y="452" type="line"/>
      <point x="138" y="240" type="line"/>
      <point x="46" y="240" type="line"/>
      <point x="46" y="188" type="line"/>
      <point x="130" y="188" type="line"/>
    </contour>
    <contour>
      <point x="196" y="240" type="line"/>
      <point x="225" y="452" type="line"/>
      <point x="363" y="452" type="line"/>
      <point x="335" y="240" type="line"/>
    </contour>
  </outline>
</glyph>
<glyph name="dollar" format="2">
  <advance width="419.824"/>
  <unicode hex="0024"/>
  <outline>
    <contour>
      <point x="175" y="-109" type="line"/>
      <point x="240" y="-109" type="line"/>
      <point x="240" y="26" type="line"/>
      <point x="316" y="47"/>
      <point x="361" y="111"/>
      <point x="361" y="196" type="curve" smooth="yes"/>
      <point x="361" y="285"/>
      <point x="310" y="329"/>
      <point x="243" y="373" type="curve" smooth="yes"/>
      <point x="180" y="416"/>
      <point x="138" y="445"/>
      <point x="138" y="506" type="curve" smooth="yes"/>
      <point x="138" y="570"/>
      <point x="178" y="603"/>
      <point x="238" y="603" type="curve" smooth="yes"/>
      <point x="269" y="603"/>
      <point x="302" y="595"/>
      <point x="332" y="579" type="curve"/>
      <point x="349" y="636" type="line"/>
      <point x="320" y="652"/>
      <point x="283" y="661"/>
      <point x="246" y="663" type="curve" smooth="yes"/>
      <point x="246" y="776" type="line"/>
      <point x="182" y="776" type="line"/>
      <point x="182" y="656" type="line"/>
      <point x="110" y="638"/>
      <point x="67" y="580"/>
      <point x="67" y="501" type="curve" smooth="yes"/>
      <point x="67" y="417"/>
      <point x="118" y="375"/>
      <point x="182" y="332" type="curve" smooth="yes"/>
      <point x="244" y="290"/>
      <point x="289" y="257"/>
      <point x="289" y="187" type="curve" smooth="yes"/>
      <point x="289" y="120"/>
      <point x="249" y="80"/>
      <point x="178" y="80" type="curve" smooth="yes"/>
      <point x="140" y="80"/>
      <point x="103" y="93"/>
      <point x="72" y="113" type="curve"/>
      <point x="53" y="51" type="line"/>
      <point x="86" y="32"/>
      <point x="130" y="21"/>
      <point x="175" y="18" type="curve"/>
    </contour>
  </outline>
</glyph>
<glyph name="ampersand" format="2">
  <advance width="504.384"/>
  <unicode hex="0026"/>
  <outline>
    <contour>
      <point x="224" y="-10" type="curve" smooth="yes"/>
      <point x="283" y="-10"/>
      <point x="341" y="24"/>
      <point x="384" y="83" type="curve"/>
      <point x="404" y="55"/>
      <point x="420" y="29"/>
      <point x="434" y="0" type="curve"/>
      <point x="502" y="0" type="line"/>
      <point x="478" y="48"/>
      <point x="452" y="93"/>
      <point x="422" y="135" type="curve"/>
      <point x="453" y="196"/>
      <point x="471" y="270"/>
      <point x="476" y="351" type="curve"/>
      <point x="417" y="358" type="line"/>
      <point x="413" y="294"/>
      <point x="401" y="237"/>
      <point x="381" y="189" type="curve"/>
      <point x="247" y="368" type="line"/>
      <point x="319" y="420"/>
      <point x="367" y="481"/>
      <point x="367" y="561" type="curve" smooth="yes"/>
      <point x="367" y="645"/>
      <point x="326" y="706"/>
      <point x="236" y="706" type="curve" smooth="yes"/>
      <point x="151" y="706"/>
      <point x="98" y="645"/>
      <point x="98" y="549" type="curve" smooth="yes"/>
      <point x="98" y="485"/>
      <point x="126" y="434"/>
      <point x="165" y="379" type="curve"/>
      <point x="87" y="321"/>
      <point x="47" y="263"/>
      <point x="47" y="170" type="curve" smooth="yes"/>
      <point x="47" y="77"/>
      <point x="107" y="-10"/>
    </contour>
    <contour>
      <point x="227" y="49" type="curve" smooth="yes"/>
      <point x="157" y="49"/>
      <point x="113" y="102"/>
      <point x="113" y="177" type="curve" smooth="yes"/>
      <point x="113" y="245"/>
      <point x="141" y="293"/>
      <point x="197" y="336" type="curve"/>
      <point x="351" y="129" type="line"/>
      <point x="318" y="79"/>
      <point x="275" y="49"/>
    </contour>
    <contour>
      <point x="215" y="410" type="curve"/>
      <point x="182" y="458"/>
      <point x="159" y="503"/>
      <point x="159" y="550" type="curve" smooth="yes"/>
      <point x="159" y="615"/>
      <point x="184" y="651"/>
      <point x="234" y="651" type="curve" smooth="yes"/>
      <point x="277" y="651"/>
      <point x="306" y="620"/>
      <point x="306" y="560" type="curve" smooth="yes"/>
      <point x="306" y="498"/>
      <point x="270" y="452"/>
    </contour>
  </outline>
</glyph>
<glyph name="quotesingle" format="2">
  <advance width="187.156"/>
  <unicode hex="0027"/>
  <outline>
    <contour>
      <point x="73" y="510" type="curve"/>
      <point x="113" y="510" type="line"/>
      <point x="121" y="575"/>
      <point x="127" y="641"/>
      <point x="127" y="702" type="curve" smooth="yes"/>
      <point x="127" y="760" type="line"/>
      <point x="59" y="760" type="line"/>
      <point x="59" y="702" type="line" smooth="yes"/>
      <point x="59" y="642"/>
      <point x="65" y="575"/>
    </contour>
  </outline>
</glyph>
<glyph name="parenleft" format="2">
  <advance width="259.84"/>
  <unicode hex="0028"/>
  <outline>
    <contour>
      <point x="203" y="-187" type="curve"/>
      <point x="256" y="-157" type="line"/>
      <point x="175" y="-8"/>
      <point x="137" y="136"/>
      <point x="137" y="299" type="curve" smooth="yes"/>
      <point x="137" y="462"/>
      <point x="175" y="606"/>
      <point x="256" y="755" type="curve"/>
      <point x="203" y="785" type="line"/>
      <point x="112" y="631"/>
      <point x="67" y="470"/>
      <point x="67" y="299" type="curve" smooth="yes"/>
      <point x="67" y="128"/>
      <point x="112" y="-33"/>
    </contour>
  </outline>
</glyph>
<glyph name="parenright" format="2">
  <advance width="259.84"/>
  <unicode hex="0029"/>
  <outline>
    <contour>
      <point x="57" y="-187" type="line"/>
      <point x="148" y="-33"/>
      <point x="193" y="128"/>
      <point x="193" y="299" type="curve" smooth="yes"/>
      <point x="193" y="470"/>
      <point x="148" y="631"/>
      <point x="57" y="785" type="curve"/>
      <point x="4" y="755" type="line"/>
      <point x="85" y="606"/>
      <point x="123" y="462"/>
      <point x="123" y="299" type="curve" smooth="yes"/>
      <point x="123" y="136"/>
      <point x="85" y="-8"/>
      <point x="4" y="-157" type="curve"/>
    </contour>
  </outline>
</glyph>
<glyph name="plus" format="2">
  <advance width="427.798"/>
  <unicode hex="002B"/>
  <outline>
    <contour>
      <point x="183" y="120" type="line"/>
      <point x="245" y="120" type="line"/>
      <point x="245" y="271" type="line"/>
      <point x="384" y="271" type="line"/>
      <point x="384" y="329" type="line"/>
      <point x="245" y="329" type="line"/>
      <point x="245" y="480" type="line"/>
      <point x="183" y="480" type="line"/>
      <point x="183" y="329" type="line"/>
      <point x="44" y="329" type="line"/>
      <point x="44" y="271" type="line"/>
      <point x="183" y="271" type="line"/>
    </contour>
  </outline>
</glyph>
<glyph name="comma" format="2">
  <advance width="211.472"/>
  <unicode hex="002C"/>
  <outline>
    <contour>
      <point x="91" y="-138" type="line"/>
      <point x="124" y="-80"/>
      <point x="147" y="-15"/>
      <point x="147" y="55" type="curve" smooth="yes"/>
      <point x="147" y="68"/>
      <point x="147" y="81"/>
      <point x="145" y="97" type="curve"/>
      <point x="73" y="97" type="line"/>
      <point x="74" y="83"/>
      <point x="75" y="60"/>
      <point x="75" y="48" type="curve" smooth="yes"/>
      <point x="75" y="-10"/>
      <point x="65" y="-68"/>
      <point x="41" y="-125" type="curve"/>
    </contour>
  </outline>
</glyph>
<glyph name="hyphen" format="2">
  <advance width="239.332"/>
  <unicode hex="002D"/>
  <outline>
    <contour>
      <point x="29" y="257" type="line"/>
      <point x="211" y="257" type="line"/>
      <point x="211" y="320" type="line"/>
      <point x="29" y="320" type="line"/>
    </contour>
  </outline>
</glyph>
<glyph name="period" format="2">
  <advance width="211.472"/>
  <unicode hex="002E"/>
  <outline>
    <contour>
      <point x="106" y="-8" type="curve" smooth="yes"/>
      <point x="135" y="-8"/>
      <point x="156" y="15"/>
      <point x="156" y="42" type="curve" smooth="yes"/>
      <point x="156" y="70"/>
      <point x="135" y="92"/>
      <point x="106" y="92" type="curve" smooth="yes"/>
      <point x="75" y="92"/>
      <point x="55" y="70"/>
      <point x="55" y="42" type="curve" smooth="yes"/>
      <point x="55" y="15"/>
      <point x="75" y="-8"/>
    </contour>
  </outline>
</glyph>
<glyph name="slash" format="2">
  <advance width="261.322"/>
  <unicode hex="002F"/>
  <outline>
    <contour>
      <point x="-23" y="-185" type="line"/>
      <point x="42" y="-185" type="line"/>
      <point x="284" y="783" type="line"/>
      <point x="219" y="783" type="line"/>
    </contour>
  </outline>
</glyph>
<glyph name="zero" format="2">
  <advance width="427.798"/>
  <unicode hex="0030"/>
  <outline>
    <contour>
      <point x="213" y="-11" type="curve" smooth="yes"/>
      <point x="328" y="-11"/>
      <point x="378" y="99"/>
      <point x="378" y="348" type="curve" smooth="yes"/>
      <point x="378" y="597"/>
      <point x="328" y="707"/>
      <point x="213" y="707" type="curve" smooth="yes"/>
      <point x="98.997" y="707"/>
      <point x="49" y="598"/>
      <point x="49" y="348" type="curve" smooth="yes"/>
      <point x="49" y="98"/>
      <point x="99" y="-11"/>
    </contour>
    <contour>
      <point x="213" y="50" type="curve" smooth="yes"/>
      <point x="149" y="50"/>
      <point x="122" y="132"/>
      <point x="122" y="348" type="curve" smooth="yes"/>
      <point x="122" y="563"/>
      <point x="149" y="646"/>
      <point x="213" y="646" type="curve" smooth="yes"/>
      <point x="279" y="646"/>
      <point x="306" y="563"/>
      <point x="306" y="348" type="curve" smooth="yes"/>
      <point x="306" y="132"/>
      <point x="279" y="50"/>
    </contour>
  </outline>
</glyph>
<glyph name="one" format="2">
  <advance width="427.798"/>
  <unicode hex="0031"/>
  <outline>
    <contour>
      <point x="202" y="0" type="line"/>
      <point x="271" y="0" type="line"/>
      <point x="271" y="693" type="line"/>
      <point x="219" y="693" type="line"/>
      <point x="192" y="644"/>
      <point x="138" y="590"/>
      <point x="79" y="552" type="curve"/>
      <point x="108" y="502" type="line"/>
      <point x="146" y="527"/>
      <point x="174" y="549"/>
      <point x="202" y="581" type="curve"/>
    </contour>
  </outline>
</glyph>
<glyph name="two" format="2">
  <advance width="427.798"/>
  <unicode hex="0032"/>
  <outline>
    <contour>
      <point x="65" y="0" type="curve"/>
      <point x="373" y="0" type="line"/>
      <point x="373" y="62" type="line"/>
      <point x="141" y="62" type="line"/>
      <point x="147" y="168"/>
      <point x="191" y="236"/>
      <point x="248" y="314" type="curve" smooth="yes"/>
      <point x="304" y="391"/>
      <point x="351" y="456"/>
      <point x="351" y="546" type="curve" smooth="yes"/>
      <point x="351" y="647"/>
      <point x="294" y="707"/>
      <point x="200" y="707" type="curve" smooth="yes"/>
      <point x="140" y="707"/>
      <point x="87" y="688"/>
      <point x="49" y="650" type="curve"/>
      <point x="81" y="602" type="line"/>
      <point x="112" y="630"/>
      <point x="147" y="646"/>
      <point x="189" y="646" type="curve" smooth="yes"/>
      <point x="246" y="646"/>
      <point x="279" y="609"/>
      <point x="279" y="539" type="curve" smooth="yes"/>
      <point x="279" y="461"/>
      <point x="234" y="404"/>
      <point x="179" y="330" type="curve" smooth="yes"/>
      <point x="121" y="251"/>
      <point x="65" y="159"/>
      <point x="65" y="19" type="curve" smooth="yes"/>
      <point x="65" y="13"/>
      <point x="65" y="6"/>
    </contour>
  </outline>
</glyph>
<glyph name="three" format="2">
  <advance width="427.798"/>
  <unicode hex="0033"/>
  <outline>
    <contour>
      <point x="179" y="-15" type="curve" smooth="yes"/>
      <point x="288" y="-15"/>
      <point x="366" y="58"/>
      <point x="366" y="185" type="curve" smooth="yes"/>
      <point x="366" y="283"/>
      <point x="326" y="342"/>
      <point x="248" y="371" type="curve"/>
      <point x="315" y="398"/>
      <point x="348" y="463"/>
      <point x="348" y="543" type="curve"/>
      <point x="348" y="644"/>
      <point x="289" y="706"/>
      <point x="189" y="706" type="curve" smooth="yes"/>
      <point x="138" y="706"/>
      <point x="86" y="690"/>
      <point x="52" y="662" type="curve"/>
      <point x="78" y="612" type="line"/>
      <point x="105" y="633"/>
      <point x="142" y="646"/>
      <point x="175" y="646" type="curve" smooth="yes"/>
      <point x="242" y="646"/>
      <point x="276" y="602"/>
      <point x="276" y="534" type="curve"/>
      <point x="276" y="466"/>
      <point x="247" y="399"/>
      <point x="158" y="399" type="curve" smooth="yes"/>
      <point x="125" y="399" type="line"/>
      <point x="125" y="337" type="line"/>
      <point x="156" y="337" type="line" smooth="yes"/>
      <point x="246" y="337"/>
      <point x="294" y="286"/>
      <point x="294" y="186" type="curve" smooth="yes"/>
      <point x="294" y="84"/>
      <point x="239" y="47"/>
      <point x="173" y="47" type="curve" smooth="yes"/>
      <point x="133" y="47"/>
      <point x="96" y="57"/>
      <point x="60" y="77" type="curve"/>
      <point x="41" y="19" type="line"/>
      <point x="80" y="-3"/>
      <point x="128" y="-15"/>
    </contour>
  </outline>
</glyph>
<glyph name="four" format="2">
  <advance width="427.798"/>
  <unicode hex="0034"/>
  <outline>
    <contour>
      <point x="262" y="0" type="line"/>
      <point x="329" y="0" type="line"/>
      <point x="329" y="169" type="line"/>
      <point x="399" y="169" type="line"/>
      <point x="399" y="226" type="line"/>
      <point x="329" y="226" type="line"/>
      <point x="329" y="693" type="line"/>
      <point x="257" y="693" type="line"/>
      <point x="184" y="574"/>
      <point x="95" y="394"/>
      <point x="43" y="219" type="curve"/>
      <point x="43" y="169" type="line"/>
      <point x="262" y="169" type="line"/>
    </contour>
    <contour>
      <point x="104" y="226" type="line"/>
      <point x="142" y="352"/>
      <point x="198" y="484"/>
      <point x="262" y="599" type="curve"/>
      <point x="262" y="226" type="line"/>
    </contour>
  </outline>
</glyph>
<glyph name="five" format="2">
  <advance width="427.798"/>
  <unicode hex="0035"/>
  <outline>
    <contour>
      <point x="176" y="-15" type="curve" smooth="yes"/>
      <point x="290" y="-15"/>
      <point x="365" y="74"/>
      <point x="365" y="204" type="curve" smooth="yes"/>
      <point x="365" y="320"/>
      <point x="303" y="392"/>
      <point x="162" y="416" type="curve"/>
      <point x="168" y="484"/>
      <point x="172" y="544"/>
      <point x="174" y="632" type="curve"/>
      <point x="348" y="632" type="line"/>
      <point x="348" y="693" type="line"/>
      <point x="113" y="693" type="line"/>
      <point x="114" y="605"/>
      <point x="105" y="471"/>
      <point x="94" y="363" type="curve"/>
      <point x="233" y="356"/>
      <point x="292" y="300"/>
      <point x="292" y="203" type="curve" smooth="yes"/>
      <point x="292" y="104"/>
      <point x="245" y="47"/>
      <point x="170" y="47" type="curve" smooth="yes"/>
      <point x="138" y="47"/>
      <point x="100" y="56"/>
      <point x="70" y="71" type="curve"/>
      <point x="51" y="13" type="line"/>
      <point x="90" y="-6"/>
      <point x="130" y="-15"/>
    </contour>
  </outline>
</glyph>
<glyph name="six" format="2">
  <advance width="427.798"/>
  <unicode hex="0036"/>
  <outline>
    <contour>
      <point x="225" y="-11" type="curve" smooth="yes"/>
      <point x="324" y="-11"/>
      <point x="380" y="76"/>
      <point x="380" y="217" type="curve" smooth="yes"/>
      <point x="380" y="345"/>
      <point x="328" y="424"/>
      <point x="232" y="424" type="curve" smooth="yes"/>
      <point x="197" y="424"/>
      <point x="166" y="415"/>
      <point x="140" y="401" type="curve"/>
      <point x="167" y="576"/>
      <point x="242" y="635"/>
      <point x="347" y="642" type="curve"/>
      <point x="341" y="699" type="line"/>
      <point x="141" y="690"/>
      <point x="62" y="506"/>
      <point x="62" y="291" type="curve" smooth="yes"/>
      <point x="62" y="73"/>
      <point x="114" y="-11"/>
    </contour>
    <contour>
      <point x="224" y="50" type="curve" smooth="yes"/>
      <point x="148" y="50"/>
      <point x="132" y="146"/>
      <point x="132" y="282" type="curve" smooth="yes"/>
      <point x="132" y="295"/>
      <point x="133" y="318"/>
      <point x="136" y="342" type="curve"/>
      <point x="161" y="359"/>
      <point x="190" y="367"/>
      <point x="216" y="367" type="curve" smooth="yes"/>
      <point x="282" y="367"/>
      <point x="310" y="314"/>
      <point x="310" y="213" type="curve" smooth="yes"/>
      <point x="310" y="110"/>
      <point x="284" y="50"/>
    </contour>
  </outline>
</glyph>
<glyph name="seven" format="2">
  <advance width="427.798"/>
  <unicode hex="0037"/>
  <outline>
    <contour>
      <point x="119" y="0" type="curve"/>
      <point x="191" y="0" type="line"/>
      <point x="203" y="205"/>
      <point x="276" y="478"/>
      <point x="370" y="645" type="curve"/>
      <point x="370" y="693" type="line"/>
      <point x="49" y="693" type="line"/>
      <point x="49" y="631" type="line"/>
      <point x="293" y="631" type="line"/>
      <point x="206" y="463"/>
      <point x="127" y="182"/>
    </contour>
  </outline>
</glyph>
<glyph name="nine" format="2">
  <advance width="427.798"/>
  <unicode hex="0039"/>
  <outline>
    <contour>
      <point x="82" y="-2" type="line"/>
      <point x="289" y="7"/>
      <point x="365" y="184"/>
      <point x="365" y="405" type="curve" smooth="yes"/>
      <point x="365" y="623"/>
      <point x="311" y="706"/>
      <point x="201" y="706" type="curve" smooth="yes"/>
      <point x="103" y="706"/>
      <point x="47" y="618"/>
      <point x="47" y="478" type="curve" smooth="yes"/>
      <point x="47" y="349"/>
      <point x="100" y="270"/>
      <point x="196" y="270" type="curve" smooth="yes"/>
      <point x="230" y="270"/>
      <point x="260" y="278"/>
      <point x="288" y="293" type="curve"/>
      <point x="265" y="123"/>
      <point x="188" y="62"/>
      <point x="75" y="55" type="curve"/>
    </contour>
    <contour>
      <point x="213" y="327" type="curve" smooth="yes"/>
      <point x="146" y="327"/>
      <point x="117" y="381"/>
      <point x="117" y="482" type="curve" smooth="yes"/>
      <point x="117" y="585"/>
      <point x="143" y="646"/>
      <point x="203" y="646" type="curve" smooth="yes"/>
      <point x="277" y="646"/>
      <point x="294" y="549"/>
      <point x="294" y="413" type="curve" smooth="yes"/>
      <point x="294" y="400"/>
      <point x="294" y="376"/>
      <point x="292" y="351" type="curve"/>
      <point x="267" y="335"/>
      <point x="238" y="327"/>
    </contour>
  </outline>
</glyph>
<glyph name="less" format="2">
  <advance width="427.798"/>
  <unicode hex="003C"/>
  <outline>
    <contour>
      <point x="349" y="85" type="line"/>
      <point x="380" y="137" type="line"/>
      <point x="120" y="294" type="line"/>
      <point x="380" y="449" type="line"/>
      <point x="349" y="503" type="line"/>
      <point x="48" y="318" type="line"/>
      <point x="48" y="269" type="line"/>
    </contour>
  </outline>
</glyph>
<glyph name="equal" format="2">
  <advance width="427.798"/>
  <unicode hex="003D"/>
  <outline>
    <contour>
      <point x="44" y="367" type="line"/>
      <point x="384" y="367" type="line"/>
      <point x="384" y="426" type="line"/>
      <point x="44" y="426" type="line"/>
    </contour>
    <contour>
      <point x="44" y="172" type="line"/>
      <point x="384" y="172" type="line"/>
      <point x="384" y="231" type="line"/>
      <point x="44" y="231" type="line"/>
    </contour>
  </outline>
</glyph>
<glyph name="greater" format="2">
  <advance width="427.798"/>
  <unicode hex="003E"/>
  <outline>
    <contour>
      <point x="79" y="85" type="line"/>
      <point x="381" y="269" type="line"/>
      <point x="381" y="318" type="line"/>
      <point x="79" y="503" type="line"/>
      <point x="49" y="449" type="line"/>
      <point x="308" y="294" type="line"/>
      <point x="49" y="137" type="line"/>
    </contour>
  </outline>
</glyph>
<glyph name="at" format="2">
  <advance width="821.332"/>
  <unicode hex="0040"/>
  <outline>
    <contour>
      <point x="410" y="-152" type="curve" smooth="yes"/>
      <point x="466" y="-152"/>
      <point x="520" y="-145"/>
      <point x="552" y="-131" type="curve"/>
      <point x="543" y="-80" type="line"/>
      <point x="509" y="-91"/>
      <point x="459" y="-99"/>
      <point x="411" y="-99" type="curve" smooth="yes"/>
      <point x="212" y="-99"/>
      <point x="126" y="54"/>
      <point x="126" y="277" type="curve" smooth="yes"/>
      <point x="126" y="504"/>
      <point x="240" y="653"/>
      <point x="416" y="653" type="curve" smooth="yes"/>
      <point x="626" y="653"/>
      <point x="696" y="512"/>
      <point x="696" y="322" type="curve" smooth="yes"/>
      <point x="696" y="138"/>
      <point x="660" y="106"/>
      <point x="615" y="106" type="curve" smooth="yes"/>
      <point x="571" y="106"/>
      <point x="551" y="134"/>
      <point x="551" y="193" type="curve" smooth="yes"/>
      <point x="551" y="482" type="line"/>
      <point x="523" y="495"/>
      <point x="484" y="505"/>
      <point x="438" y="505" type="curve" smooth="yes"/>
      <point x="333" y="505"/>
      <point x="257" y="426"/>
      <point x="257" y="278" type="curve" smooth="yes"/>
      <point x="257" y="147"/>
      <point x="299" y="53"/>
      <point x="411" y="53" type="curve" smooth="yes"/>
      <point x="450" y="53"/>
      <point x="483" y="67"/>
      <point x="510" y="95" type="curve"/>
      <point x="533" y="64"/>
      <point x="568" y="53"/>
      <point x="611" y="53" type="curve" smooth="yes"/>
      <point x="706" y="53"/>
      <point x="755" y="128"/>
      <point x="755" y="321" type="curve" smooth="yes"/>
      <point x="755" y="549"/>
      <point x="657" y="707"/>
      <point x="416" y="707" type="curve" smooth="yes"/>
      <point x="213" y="707"/>
      <point x="66" y="544"/>
      <point x="66" y="277" type="curve" smooth="yes"/>
      <point x="66" y="8"/>
      <point x="183" y="-152"/>
    </contour>
    <contour>
      <point x="419" y="109" type="curve" smooth="yes"/>
      <point x="339" y="109"/>
      <point x="324" y="189"/>
      <point x="324" y="278" type="curve" smooth="yes"/>
      <point x="324" y="393"/>
      <point x="365" y="449"/>
      <point x="433" y="449" type="curve" smooth="yes"/>
      <point x="452" y="449"/>
      <point x="470" y="447"/>
      <point x="486" y="441" type="curve"/>
      <point x="486" y="199" type="line" smooth="yes"/>
      <point x="486" y="177"/>
      <point x="487" y="157"/>
      <point x="491" y="140" type="curve"/>
      <point x="475" y="121"/>
      <point x="444" y="109"/>
    </contour>
  </outline>
</glyph>
<glyph name="A" format="2">
  <advance width="480.788"/>
  <unicode hex="0041"/>
  <anchor x="240" y="0" name="bottom"/>
  <anchor x="441" y="10" name="ogonek"/>
  <anchor x="240" y="693" name="top"/>
  <outline>
    <contour>
      <point x="21" y="0" type="curve"/>
      <point x="93" y="0" type="line"/>
      <point x="101" y="57"/>
      <point x="112" y="118"/>
      <point x="125" y="181" type="curve"/>
      <point x="353" y="181" type="line"/>
      <point x="367" y="118"/>
      <point x="377" y="56"/>
      <point x="386" y="0" type="curve"/>
      <point x="460" y="0" type="line"/>
      <point x="424" y="216"/>
      <point x="360" y="445"/>
      <point x="278" y="693" type="curve"/>
      <point x="201" y="693" type="line"/>
      <point x="120" y="445"/>
      <point x="56" y="216"/>
    </contour>
    <contour>
      <point x="138" y="242" type="line"/>
      <point x="164" y="364"/>
      <point x="199" y="493"/>
      <point x="239" y="618" type="curve"/>
      <point x="280" y="491"/>
      <point x="314" y="363"/>
      <point x="341" y="242" type="curve"/>
    </contour>
  </outline>
</glyph>
<glyph name="C" format="2">
  <advance width="463.534"/>
  <unicode hex="0043"/>
  <anchor x="252" y="0" name="bottom"/>
  <anchor x="288" y="673" name="top"/>
  <outline>
    <contour>
      <point x="305" y="-10" type="curve" smooth="yes"/>
      <point x="358" y="-10"/>
      <point x="407" y="1"/>
      <point x="444" y="24" type="curve"/>
      <point x="425" y="82" type="line"/>
      <point x="388" y="63"/>
      <point x="353" y="52"/>
      <point x="313" y="52" type="curve" smooth="yes"/>
      <point x="192" y="52"/>
      <point x="133" y="151"/>
      <point x="133" y="343" type="curve" smooth="yes"/>
      <point x="133" y="547"/>
      <point x="185" y="641"/>
      <point x="301" y="641" type="curve" smooth="yes"/>
      <point x="344" y="641"/>
      <point x="385" y="629"/>
      <point x="415" y="612" type="curve"/>
      <point x="435" y="672" type="line"/>
      <point x="398" y="692"/>
      <point x="351" y="703"/>
      <point x="301" y="703" type="curve" smooth="yes"/>
      <point x="140" y="703"/>
      <point x="58" y="579"/>
      <point x="58" y="343" type="curve" smooth="yes"/>
      <point x="58" y="116"/>
      <point x="147" y="-10"/>
    </contour>
  </outline>
</glyph>
<glyph name="D" format="2">
  <advance width="567.192"/>
  <unicode hex="0044"/>
  <anchor x="284" y="0" name="bottom"/>
  <anchor x="284" y="347" name="center"/>
  <anchor x="284" y="693" name="top"/>
  <outline>
    <contour>
      <point x="237" y="-6" type="curve" smooth="yes"/>
      <point x="415" y="-6"/>
      <point x="510" y="115"/>
      <point x="510" y="347" type="curve" smooth="yes"/>
      <point x="510" y="581"/>
      <point x="419" y="699"/>
      <point x="237" y="699" type="curve" smooth="yes"/>
      <point x="185" y="699"/>
      <point x="135" y="694"/>
      <point x="84" y="684" type="curve"/>
      <point x="84" y="7" type="line"/>
      <point x="137" y="-3"/>
      <point x="186" y="-6"/>
    </contour>
    <contour>
      <point x="238" y="57" type="curve" smooth="yes"/>
      <point x="206" y="57"/>
      <point x="181" y="58"/>
      <point x="156" y="63" type="curve"/>
      <point x="156" y="630" type="line"/>
      <point x="182" y="634"/>
      <point x="208" y="636"/>
      <point x="238" y="636" type="curve" smooth="yes"/>
      <point x="373" y="636"/>
      <point x="434" y="547"/>
      <point x="434" y="347" type="curve" smooth="yes"/>
      <point x="434" y="148"/>
      <point x="372" y="57"/>
    </contour>
  </outline>
</glyph>
<glyph name="E" format="2">
  <advance width="445.814"/>
  <unicode hex="0045"/>
  <anchor x="223" y="0" name="bottom"/>
  <anchor x="385" y="10" name="ogonek"/>
  <anchor x="235" y="673" name="top"/>
  <anchor x="18" y="693" name="topleft"/>
  <outline>
    <contour>
      <point x="84" y="0" type="line"/>
      <point x="397" y="0" type="line"/>
      <point x="397" y="61" type="line"/>
      <point x="156" y="61" type="line"/>
      <point x="156" y="333" type="line"/>
      <point x="360" y="333" type="line"/>
      <point x="360" y="394" type="line"/>
      <point x="156" y="394" type="line"/>
      <point x="156" y="632" type="line"/>
      <point x="383" y="632" type="line"/>
      <point x="383" y="693" type="line"/>
      <point x="84" y="693" type="line"/>
    </contour>
  </outline>
</glyph>
<glyph name="F" format="2">
  <advance width="411.13"/>
  <unicode hex="0046"/>
  <anchor x="209" y="0" name="bottom"/>
  <anchor x="209" y="693" name="top"/>
  <outline>
    <contour>
      <point x="84" y="0" type="line"/>
      <point x="156" y="0" type="line"/>
      <point x="156" y="330" type="line"/>
      <point x="355" y="330" type="line"/>
      <point x="355" y="390" type="line"/>
      <point x="156" y="390" type="line"/>
      <point x="156" y="632" type="line"/>
      <point x="377" y="632" type="line"/>
      <point x="377" y="693" type="line"/>
      <point x="84" y="693" type="line"/>
    </contour>
  </outline>
</glyph>
<glyph name="G" format="2">
  <advance width="521.332"/>
  <unicode hex="0047"/>
  <anchor x="297" y="0" name="bottom"/>
  <anchor x="290" y="673" name="top"/>
  <outline>
    <contour>
      <point x="310" y="-10" type="curve" smooth="yes"/>
      <point x="371" y="-10"/>
      <point x="424" y="6"/>
      <point x="447" y="21" type="curve"/>
      <point x="447" y="336" type="line"/>
      <point x="375" y="336" type="line"/>
      <point x="375" y="67" type="line"/>
      <point x="358" y="60"/>
      <point x="332" y="52"/>
      <point x="311" y="52" type="curve" smooth="yes"/>
      <point x="189" y="52"/>
      <point x="133" y="151"/>
      <point x="133" y="347" type="curve" smooth="yes"/>
      <point x="133" y="547"/>
      <point x="188" y="641"/>
      <point x="303" y="641" type="curve" smooth="yes"/>
      <point x="353" y="641"/>
      <point x="390" y="628"/>
      <point x="421" y="611" type="curve"/>
      <point x="443" y="671" type="line"/>
      <point x="409" y="690"/>
      <point x="358" y="703"/>
      <point x="303" y="703" type="curve" smooth="yes"/>
      <point x="144" y="703"/>
      <point x="58" y="579"/>
      <point x="58" y="347" type="curve" smooth="yes"/>
      <point x="58" y="116"/>
      <point x="142" y="-10"/>
    </contour>
  </outline>
</glyph>
<glyph name="H" format="2">
  <advance width="565"/>
  <unicode hex="0048"/>
  <anchor x="283" y="0" name="bottom"/>
  <anchor x="283" y="347" name="center"/>
  <anchor x="283" y="673" name="top"/>
  <anchor x="17" y="693" name="topleft"/>
  <outline>
    <contour>
      <point x="84" y="0" type="line"/>
      <point x="156" y="0" type="line"/>
      <point x="156" y="330" type="line"/>
      <point x="409" y="330" type="line"/>
      <point x="409" y="0" type="line"/>
      <point x="481" y="0" type="line"/>
      <point x="481" y="693" type="line"/>
      <point x="409" y="693" type="line"/>
      <point x="409" y="393" type="line"/>
      <point x="156" y="393" type="line"/>
      <point x="156" y="693" type="line"/>
      <point x="84" y="693" type="line"/>
    </contour>
  </outline>
</glyph>
<glyph name="I" format="2">
  <advance width="240.41"/>
  <unicode hex="0049"/>
  <anchor x="121" y="0" name="bottom"/>
  <anchor x="218" y="10" name="ogonek"/>
  <anchor x="121" y="673" name="top"/>
  <anchor x="16" y="693" name="topleft"/>
  <outline>
    <contour>
      <point x="84" y="0" type="line"/>
      <point x="156" y="0" type="line"/>
      <point x="156" y="693" type="line"/>
      <point x="84" y="693" type="line"/>
    </contour>
  </outline>
</glyph>
<glyph name="J" format="2">
  <advance width="376.586"/>
  <unicode hex="004A"/>
  <anchor x="189" y="0" name="bottom"/>
  <anchor x="262" y="673" name="top"/>
  <outline>
    <contour>
      <point x="130" y="-10" type="curve" smooth="yes"/>
      <point x="229" y="-10"/>
      <point x="298" y="37"/>
      <point x="298" y="185" type="curve" smooth="yes"/>
      <point x="298" y="693" type="line"/>
      <point x="226" y="693" type="line"/>
      <point x="226" y="186" type="line" smooth="yes"/>
      <point x="226" y="92"/>
      <point x="191" y="54"/>
      <point x="128" y="54" type="curve" smooth="yes"/>
      <point x="92" y="54"/>
      <point x="57" y="63"/>
      <point x="27" y="81" type="curve"/>
      <point x="6" y="23" type="line"/>
      <point x="40" y="1"/>
      <point x="86" y="-10"/>
    </contour>
  </outline>
</glyph>
<glyph name="K" format="2">
  <advance width="485.638"/>
  <unicode hex="004B"/>
  <anchor x="251" y="0" name="bottom"/>
  <anchor x="251" y="693" name="top"/>
  <outline>
    <contour>
      <point x="84" y="0" type="line"/>
      <point x="156" y="0" type="line"/>
      <point x="156" y="329" type="line"/>
      <point x="250" y="249"/>
      <point x="335" y="121"/>
      <point x="390" y="0" type="curve"/>
      <point x="469" y="0" type="line"/>
      <point x="413" y="128"/>
      <point x="316" y="269"/>
      <point x="222" y="360" type="curve"/>
      <point x="301" y="462"/>
      <point x="375" y="572"/>
      <point x="447" y="693" type="curve"/>
      <point x="373" y="693" type="line"/>
      <point x="312" y="591"/>
      <point x="238" y="480"/>
      <point x="156" y="378" type="curve"/>
      <point x="156" y="693" type="line"/>
      <point x="84" y="693" type="line"/>
    </contour>
  </outline>
</glyph>
<glyph name="L" format="2">
  <advance width="409.814"/>
  <unicode hex="004C"/>
  <anchor x="206" y="0" name="bottom"/>
  <anchor x="206" y="347" name="center"/>
  <anchor x="206" y="693" name="top"/>
  <anchor x="388" y="693" name="topright"/>
  <outline>
    <contour>
      <point x="84" y="0" type="line"/>
      <point x="379" y="0" type="line"/>
      <point x="379" y="62" type="line"/>
      <point x="156" y="62" type="line"/>
      <point x="156" y="693" type="line"/>
      <point x="84" y="693" type="line"/>
    </contour>
  </outline>
</glyph>
<glyph name="N" format="2">
  <advance width="576.876"/>
  <unicode hex="004E"/>
  <anchor x="293" y="0" name="bottom"/>
  <anchor x="288" y="673" name="top"/>
  <outline>
    <contour>
      <point x="84" y="0" type="line"/>
      <point x="153" y="0" type="line"/>
      <point x="153" y="565" type="line"/>
      <point x="251" y="394"/>
      <point x="352" y="189"/>
      <point x="430" y="0" type="curve"/>
      <point x="493" y="0" type="line"/>
      <point x="493" y="693" type="line"/>
      <point x="424" y="693" type="line"/>
      <point x="424" y="159" type="line"/>
      <point x="347" y="337"/>
      <point x="244" y="535"/>
      <point x="150" y="693" type="curve"/>
      <point x="84" y="693" type="line"/>
    </contour>
  </outline>
</glyph>
<glyph name="P" format="2">
  <advance width="474.7"/>
  <unicode hex="0050"/>
  <anchor x="238" y="0" name="bottom"/>
  <anchor x="238" y="693" name="top"/>
  <outline>
    <contour>
      <point x="84" y="0" type="line"/>
      <point x="156" y="0" type="line"/>
      <point x="156" y="265" type="line"/>
      <point x="209" y="265" type="line" smooth="yes"/>
      <point x="353" y="265"/>
      <point x="438" y="346"/>
      <point x="438" y="481" type="curve" smooth="yes"/>
      <point x="438" y="621"/>
      <point x="356" y="700"/>
      <point x="211" y="700" type="curve" smooth="yes"/>
      <point x="170" y="700"/>
      <point x="128" y="696"/>
      <point x="84" y="687" type="curve"/>
    </contour>
    <contour>
      <point x="156" y="327" type="line"/>
      <point x="156" y="631" type="line"/>
      <point x="172" y="635"/>
      <point x="194" y="637"/>
      <point x="210" y="637" type="curve" smooth="yes"/>
      <point x="312" y="637"/>
      <point x="363" y="585"/>
      <point x="363" y="481" type="curve" smooth="yes"/>
      <point x="363" y="377"/>
      <point x="313" y="327"/>
      <point x="210" y="327" type="curve" smooth="yes"/>
    </contour>
  </outline>
</glyph>
<glyph name="R" format="2">
  <advance width="499.7"/>
  <unicode hex="0052"/>
  <anchor x="249" y="0" name="bottom"/>
  <anchor x="238" y="673" name="top"/>
  <outline>
    <contour>
      <point x="84" y="0" type="line"/>
      <point x="156" y="0" type="line"/>
      <point x="156" y="274" type="line"/>
      <point x="210" y="274" type="line" smooth="yes"/>
      <point x="227" y="274"/>
      <point x="247" y="275"/>
      <point x="262" y="278" type="curve"/>
      <point x="313" y="195"/>
      <point x="358" y="98"/>
      <point x="395" y="0" type="curve"/>
      <point x="471" y="0" type="line"/>
      <point x="423" y="120"/>
      <point x="377" y="216"/>
      <point x="328" y="298" type="curve"/>
      <point x="396" y="331"/>
      <point x="434" y="397"/>
      <point x="434" y="485" type="curve" smooth="yes"/>
      <point x="434" y="624"/>
      <point x="355" y="700"/>
      <point x="214" y="700" type="curve" smooth="yes"/>
      <point x="167" y="700"/>
      <point x="124" y="694"/>
      <point x="84" y="686" type="curve"/>
    </contour>
    <contour>
      <point x="156" y="335" type="line"/>
      <point x="156" y="632" type="line"/>
      <point x="173" y="635"/>
      <point x="196" y="637"/>
      <point x="215" y="637" type="curve" smooth="yes"/>
      <point x="311" y="637"/>
      <point x="360" y="587"/>
      <point x="360" y="485" type="curve" smooth="yes"/>
      <point x="360" y="387"/>
      <point x="310" y="335"/>
      <point x="212" y="335" type="curve" smooth="yes"/>
    </contour>
  </outline>
</glyph>
<glyph name="S" format="2">
  <advance width="390.244"/>
  <unicode hex="0053"/>
  <anchor x="184" y="0" name="bottom"/>
  <anchor x="210" y="673" name="top"/>
  <outline>
    <contour>
      <point x="164" y="-11" type="curve" smooth="yes"/>
      <point x="285" y="-11"/>
      <point x="357" y="70"/>
      <point x="357" y="186" type="curve" smooth="yes"/>
      <point x="357" y="281"/>
      <point x="301" y="335"/>
      <point x="227" y="385" type="curve" smooth="yes"/>
      <point x="157" y="432"/>
      <point x="113" y="463"/>
      <point x="113" y="532" type="curve" smooth="yes"/>
      <point x="113" y="604"/>
      <point x="158" y="642"/>
      <point x="226" y="642" type="curve" smooth="yes"/>
      <point x="260" y="642"/>
      <point x="296" y="633"/>
      <point x="328" y="615" type="curve"/>
      <point x="349" y="675" type="line"/>
      <point x="313" y="693"/>
      <point x="268" y="704"/>
      <point x="223" y="704" type="curve" smooth="yes"/>
      <point x="109" y="704"/>
      <point x="39" y="630"/>
      <point x="39" y="525" type="curve" smooth="yes"/>
      <point x="39" y="432"/>
      <point x="96" y="384"/>
      <point x="167" y="337" type="curve" smooth="yes"/>
      <point x="235" y="292"/>
      <point x="284" y="254"/>
      <point x="284" y="174" type="curve" smooth="yes"/>
      <point x="284" y="97"/>
      <point x="239" y="51"/>
      <point x="162" y="51" type="curve" smooth="yes"/>
      <point x="120" y="51"/>
      <point x="77" y="65"/>
      <point x="43" y="87" type="curve"/>
      <point x="22" y="25" type="line"/>
      <point x="62" y="2"/>
      <point x="115" y="-11"/>
    </contour>
  </outline>
</glyph>
<glyph name="T" format="2">
  <advance width="421.472"/>
  <unicode hex="0054"/>
  <anchor x="198" y="0" name="bottom"/>
  <anchor x="211" y="347" name="center"/>
  <anchor x="211" y="673" name="top"/>
  <outline>
    <contour>
      <point x="174" y="0" type="line"/>
      <point x="246" y="0" type="line"/>
      <point x="246" y="631" type="line"/>
      <point x="403" y="631" type="line"/>
      <point x="403" y="693" type="line"/>
      <point x="19" y="693" type="line"/>
      <point x="19" y="631" type="line"/>
      <point x="174" y="631" type="line"/>
    </contour>
  </outline>
</glyph>
<glyph name="U" format="2">
  <advance width="537.218"/>
  <unicode hex="0055"/>
  <anchor x="269" y="0" name="bottom"/>
  <anchor x="485" y="10" name="ogonek"/>
  <anchor x="269" y="673" name="top"/>
  <anchor x="519" y="693" name="topright"/>
  <outline>
    <contour>
      <point x="269" y="-10" type="curve"/>
      <point x="398" y="-10"/>
      <point x="460" y="63"/>
      <point x="460" y="211" type="curve" smooth="yes"/>
      <point x="460" y="693" type="line"/>
      <point x="388" y="693" type="line"/>
      <point x="388" y="214" type="line" smooth="yes"/>
      <point x="388" y="104"/>
      <point x="351" y="54"/>
      <point x="269" y="54" type="curve"/>
      <point x="187" y="54"/>
      <point x="149" y="104"/>
      <point x="149" y="214" type="curve" smooth="yes"/>
      <point x="149" y="693" type="line"/>
      <point x="77" y="693" type="line"/>
      <point x="77" y="211" type="line" smooth="yes"/>
      <point x="77" y="63"/>
      <point x="140" y="-10"/>
    </contour>
  </outline>
</glyph>
<glyph name="X" format="2">
  <advance width="436.84"/>
  <unicode hex="0058"/>
  <anchor x="220" y="0" name="bottom"/>
  <anchor x="220" y="693" name="top"/>
  <outline>
    <contour>
      <point x="16" y="0" type="curve"/>
      <point x="89" y="0" type="line"/>
      <point x="122" y="98"/>
      <point x="161" y="188"/>
      <point x="218" y="305" type="curve"/>
      <point x="272" y="197"/>
      <point x="307" y="114"/>
      <point x="347" y="0" type="curve"/>
      <point x="421" y="0" type="line"/>
      <point x="379" y="119"/>
      <point x="337" y="217"/>
      <point x="264" y="365" type="curve"/>
      <point x="413" y="693" type="line"/>
      <point x="339" y="693" type="line"/>
      <point x="220" y="416" type="line"/>
      <point x="102" y="693" type="line"/>
      <point x="25" y="693" type="line"/>
      <point x="175" y="362" type="line"/>
      <point x="96" y="202"/>
      <point x="55" y="106"/>
    </contour>
  </outline>
</glyph>
<glyph name="Y" format="2">
  <advance width="429.778"/>
  <unicode hex="0059"/>
  <anchor x="215" y="0" name="bottom"/>
  <anchor x="215" y="673" name="top"/>
  <anchor x="18" y="693" name="topleft"/>
  <outline>
    <contour>
      <point x="179" y="0" type="line"/>
      <point x="251" y="0" type="line"/>
      <point x="251" y="270" type="line"/>
      <point x="312" y="393"/>
      <point x="377" y="553"/>
      <point x="424" y="693" type="curve"/>
      <point x="350" y="693" type="line"/>
      <point x="316" y="584"/>
      <point x="273" y="463"/>
      <point x="215" y="338" type="curve"/>
      <point x="158" y="463"/>
      <point x="115" y="584"/>
      <point x="81" y="693" type="curve"/>
      <point x="5" y="693" type="line"/>
      <point x="53" y="552"/>
      <point x="117" y="392"/>
      <point x="179" y="268" type="curve"/>
    </contour>
  </outline>
</glyph>
<glyph name="Z" format="2">
  <advance width="419.902"/>
  <unicode hex="005A"/>
  <anchor x="210" y="0" name="bottom"/>
  <anchor x="210" y="347" name="center"/>
  <anchor x="215" y="673" name="top"/>
  <outline>
    <contour>
      <point x="36" y="0" type="line"/>
      <point x="385" y="0" type="line"/>
      <point x="385" y="62" type="line"/>
      <point x="115" y="62" type="line"/>
      <point x="187" y="259"/>
      <point x="278" y="450"/>
      <point x="378" y="631" type="curve"/>
      <point x="378" y="693" type="line"/>
      <point x="49" y="693" type="line"/>
      <point x="49" y="631" type="line"/>
      <point x="302" y="631" type="line"/>
      <point x="198" y="438"/>
      <point x="110" y="244"/>
      <point x="36" y="49" type="curve"/>
    </contour>
  </outline>
</glyph>
<glyph name="bracketleft" format="2">
  <advance width="259.752"/>
  <unicode hex="005B"/>
  <outline>
    <contour>
      <point x="88" y="-185" type="line"/>
      <point x="255" y="-185" type="line"/>
      <point x="255" y="-131" type="line"/>
      <point x="153" y="-131" type="line"/>
      <point x="153" y="728" type="line"/>
      <point x="255" y="728" type="line"/>
      <point x="255" y="783" type="line"/>
      <point x="88" y="783" type="line"/>
    </contour>
  </outline>
</glyph>
<glyph name="backslash" format="2">
  <advance width="257.638"/>
  <unicode hex="005C"/>
  <outline>
    <contour>
      <point x="220" y="-185" type="line"/>
      <point x="284" y="-185" type="line"/>
      <point x="42" y="783" type="line"/>
      <point x="-22" y="783" type="line"/>
    </contour>
  </outline>
</glyph>
<glyph name="bracketright" format="2">
  <advance width="257.98"/>
  <unicode hex="005D"/>
  <outline>
    <contour>
      <point x="3" y="-185" type="line"/>
      <point x="170" y="-185" type="line"/>
      <point x="170" y="783" type="line"/>
      <point x="3" y="783" type="line"/>
      <point x="3" y="728" type="line"/>
      <point x="105" y="728" type="line"/>
      <point x="105" y="-131" type="line"/>
      <point x="3" y="-131" type="line"/>
    </contour>
  </outline>
</glyph>
<glyph name="asciicircum" format="2">
  <advance width="427.798"/>
  <unicode hex="005E"/>
  <outline>
    <contour>
      <point x="105" y="318" type="line"/>
      <point x="214" y="602" type="line"/>
      <point x="324" y="318" type="line"/>
      <point x="384" y="338" type="line"/>
      <point x="245" y="687" type="line"/>
      <point x="184" y="687" type="line"/>
      <point x="44" y="338" type="line"/>
    </contour>
  </outline>
</glyph>
<glyph name="underscore" format="2">
  <advance width="331.902"/>
  <unicode hex="005F"/>
  <outline>
    <contour>
      <point x="-3" y="-183" type="line"/>
      <point x="335" y="-183" type="line"/>
      <point x="335" y="-125" type="line"/>
      <point x="-3" y="-125" type="line"/>
    </contour>
  </outline>
</glyph>
<glyph name="grave" format="2">
  <advance width="297.124"/>
  <unicode hex="0060"/>
  <outline>
    <contour>
      <point x="191" y="590" type="line"/>
      <point x="227" y="621" type="line"/>
      <point x="104" y="778" type="line"/>
      <point x="55" y="735" type="line"/>
    </contour>
  </outline>
</glyph>
<glyph name="a" format="2">
  <advance width="423.648"/>
  <unicode hex="0061"/>
  <anchor x="208" y="0" name="bottom"/>
  <anchor x="382" y="10" name="ogonek"/>
  <anchor x="208" y="521" name="top"/>
  <outline>
    <contour>
      <point x="208" y="-7" type="curve" smooth="yes"/>
      <point x="250" y="-7"/>
      <point x="302" y="0"/>
      <point x="351" y="14" type="curve"/>
      <point x="351" y="367" type="line" smooth="yes"/>
      <point x="351" y="482"/>
      <point x="288" y="535"/>
      <point x="193" y="535" type="curve" smooth="yes"/>
      <point x="156" y="535"/>
      <point x="116" y="528"/>
      <point x="81" y="515" type="curve"/>
      <point x="92" y="458" type="line"/>
      <point x="123" y="469"/>
      <point x="155" y="474"/>
      <point x="184" y="474" type="curve" smooth="yes"/>
      <point x="247" y="474"/>
      <point x="283" y="442"/>
      <point x="283" y="364" type="curve" smooth="yes"/>
      <point x="283" y="301" type="line"/>
      <point x="256" y="307"/>
      <point x="229" y="311"/>
      <point x="203" y="311" type="curve" smooth="yes"/>
      <point x="102" y="311"/>
      <point x="42" y="254"/>
      <point x="42" y="153" type="curve" smooth="yes"/>
      <point x="42" y="51"/>
      <point x="102" y="-7"/>
    </contour>
    <contour>
      <point x="213" y="48" type="curve" smooth="yes"/>
      <point x="146" y="48"/>
      <point x="110" y="86"/>
      <point x="110" y="155" type="curve" smooth="yes"/>
      <point x="110" y="224"/>
      <point x="145" y="259"/>
      <point x="213" y="259" type="curve" smooth="yes"/>
      <point x="236" y="259"/>
      <point x="260" y="254"/>
      <point x="283" y="248" type="curve"/>
      <point x="283" y="57" type="line"/>
      <point x="260" y="51"/>
      <point x="235" y="48"/>
    </contour>
  </outline>
</glyph>
<glyph name="b" format="2">
  <advance width="456.244"/>
  <unicode hex="0062"/>
  <anchor x="225" y="0" name="bottom"/>
  <anchor x="225" y="259" name="center"/>
  <anchor x="225" y="521" name="top"/>
  <outline>
    <contour>
      <point x="213" y="-10" type="curve" smooth="yes"/>
      <point x="351" y="-10"/>
      <point x="406" y="95"/>
      <point x="406" y="262" type="curve" smooth="yes"/>
      <point x="406" y="455"/>
      <point x="334" y="533"/>
      <point x="230" y="533" type="curve" smooth="yes"/>
      <point x="196" y="533"/>
      <point x="166" y="523"/>
      <point x="147" y="511" type="curve"/>
      <point x="147" y="776" type="line"/>
      <point x="78" y="763" type="line"/>
      <point x="78" y="15" type="line"/>
      <point x="122" y="-1"/>
      <point x="163" y="-10"/>
    </contour>
    <contour>
      <point x="212" y="50" type="curve" smooth="yes"/>
      <point x="186" y="50"/>
      <point x="163" y="56"/>
      <point x="147" y="63" type="curve"/>
      <point x="147" y="451" type="line"/>
      <point x="163" y="464"/>
      <point x="191" y="473"/>
      <point x="221" y="473" type="curve" smooth="yes"/>
      <point x="273" y="473"/>
      <point x="334" y="442"/>
      <point x="334" y="262" type="curve" smooth="yes"/>
      <point x="334" y="98"/>
      <point x="289" y="50"/>
    </contour>
  </outline>
</glyph>
<glyph name="c" format="2">
  <advance width="352.876"/>
  <unicode hex="0063"/>
  <anchor x="176" y="0" name="bottom"/>
  <anchor x="176" y="521" name="top"/>
  <outline>
    <contour>
      <point x="234" y="-10" type="curve" smooth="yes"/>
      <point x="272" y="-10"/>
      <point x="305" y="-4"/>
      <point x="333" y="11" type="curve"/>
      <point x="322" y="67" type="line"/>
      <point x="298" y="55"/>
      <point x="274" y="51"/>
      <point x="248" y="51" type="curve" smooth="yes"/>
      <point x="171" y="51"/>
      <point x="122" y="120"/>
      <point x="122" y="260" type="curve" smooth="yes"/>
      <point x="122" y="407"/>
      <point x="164" y="473"/>
      <point x="242" y="473" type="curve" smooth="yes"/>
      <point x="269" y="473"/>
      <point x="295" y="467"/>
      <point x="316" y="457" type="curve"/>
      <point x="329" y="515" type="line"/>
      <point x="302" y="528"/>
      <point x="270" y="535"/>
      <point x="234" y="535" type="curve" smooth="yes"/>
      <point x="117" y="535"/>
      <point x="50" y="436"/>
      <point x="50" y="260" type="curve" smooth="yes"/>
      <point x="50" y="88"/>
      <point x="116" y="-10"/>
    </contour>
  </outline>
</glyph>
<glyph name="e" format="2">
  <advance width="429"/>
  <unicode hex="0065"/>
  <anchor x="217" y="0" name="bottom"/>
  <anchor x="387" y="10" name="ogonek"/>
  <anchor x="223" y="522" name="top"/>
  <outline>
    <contour>
      <point x="246" y="-11" type="curve" smooth="yes"/>
      <point x="287" y="-11"/>
      <point x="324" y="-3"/>
      <point x="362" y="15" type="curve"/>
      <point x="352" y="69" type="line"/>
      <point x="325" y="57"/>
      <point x="290" y="50"/>
      <point x="257" y="50" type="curve" smooth="yes"/>
      <point x="165" y="50"/>
      <point x="121" y="122"/>
      <point x="121" y="242" type="curve"/>
      <point x="379" y="242" type="line"/>
      <point x="380" y="260"/>
      <point x="381" y="278"/>
      <point x="381" y="292" type="curve" smooth="yes"/>
      <point x="381" y="449"/>
      <point x="321" y="535"/>
      <point x="223" y="535" type="curve" smooth="yes"/>
      <point x="115" y="535"/>
      <point x="50" y="435"/>
      <point x="50" y="260" type="curve" smooth="yes"/>
      <point x="50" y="88"/>
      <point x="122" y="-11"/>
    </contour>
    <contour>
      <point x="121" y="294" type="line"/>
      <point x="121" y="408"/>
      <point x="157" y="477"/>
      <point x="221" y="477" type="curve" smooth="yes"/>
      <point x="282" y="477"/>
      <point x="315" y="419"/>
      <point x="313" y="294" type="curve"/>
    </contour>
  </outline>
</glyph>
<glyph name="f" format="2">
  <advance width="289.27"/>
  <unicode hex="0066"/>
  <anchor x="146" y="0" name="bottom"/>
  <anchor x="146" y="776" name="top"/>
  <outline>
    <contour>
      <point x="78" y="0" type="line"/>
      <point x="147" y="0" type="line"/>
      <point x="147" y="463" type="line"/>
      <point x="284" y="463" type="line"/>
      <point x="284" y="522" type="line"/>
      <point x="147" y="522" type="line"/>
      <point x="147" y="602" type="line" smooth="yes"/>
      <point x="147" y="681"/>
      <point x="174" y="717"/>
      <point x="232" y="717" type="curve" smooth="yes"/>
      <point x="251" y="717"/>
      <point x="275" y="712"/>
      <point x="290" y="705" type="curve"/>
      <point x="303" y="762" type="line"/>
      <point x="284" y="770"/>
      <point x="252" y="776"/>
      <point x="223" y="776" type="curve" smooth="yes"/>
      <point x="127" y="776"/>
      <point x="78" y="717"/>
      <point x="78" y="598" type="curve" smooth="yes"/>
    </contour>
  </outline>
</glyph>
<glyph name="h" format="2">
  <advance width="471.332"/>
  <unicode hex="0068"/>
  <anchor x="237" y="0" name="bottom"/>
  <anchor x="237" y="388" name="center"/>
  <anchor x="237" y="776" name="top"/>
  <outline>
    <contour>
      <point x="78" y="0" type="line"/>
      <point x="147" y="0" type="line"/>
      <point x="147" y="456" type="line"/>
      <point x="173" y="467"/>
      <point x="202" y="472"/>
      <point x="229" y="472" type="curve" smooth="yes"/>
      <point x="302" y="472"/>
      <point x="329" y="427"/>
      <point x="329" y="316" type="curve" smooth="yes"/>
      <point x="329" y="0" type="line"/>
      <point x="398" y="0" type="line"/>
      <point x="398" y="322" type="line" smooth="yes"/>
      <point x="398" y="458"/>
      <point x="347" y="532"/>
      <point x="242" y="532" type="curve" smooth="yes"/>
      <point x="208" y="532"/>
      <point x="175" y="525"/>
      <point x="147" y="515" type="curve"/>
      <point x="147" y="776" type="line"/>
      <point x="78" y="763" type="line"/>
    </contour>
  </outline>
</glyph>
<glyph name="i" format="2">
  <advance width="223.726"/>
  <unicode hex="0069"/>
  <anchor x="112" y="0" name="bottom"/>
  <outline>
    <contour>
      <point x="78" y="0" type="line"/>
      <point x="147" y="0" type="line"/>
      <point x="147" y="522" type="line"/>
      <point x="78" y="522" type="line"/>
    </contour>
    <contour>
      <point x="112" y="623" type="curve" smooth="yes"/>
      <point x="139" y="623"/>
      <point x="161" y="643"/>
      <point x="161" y="672" type="curve" smooth="yes"/>
      <point x="161" y="701"/>
      <point x="139" y="721"/>
      <point x="112" y="721" type="curve" smooth="yes"/>
      <point x="85" y="721"/>
      <point x="65" y="701"/>
      <point x="65" y="672" type="curve" smooth="yes"/>
      <point x="65" y="643"/>
      <point x="85" y="623"/>
    </contour>
  </outline>
</glyph>
<glyph name="j" format="2">
  <advance width="223.726"/>
  <unicode hex="006A"/>
  <outline>
    <contour>
      <point x="20" y="-188" type="curve" smooth="yes"/>
      <point x="114" y="-188"/>
      <point x="147" y="-113"/>
      <point x="147" y="-34" type="curve" smooth="yes"/>
      <point x="147" y="522" type="line"/>
      <point x="78" y="522" type="line"/>
      <point x="78" y="-27" type="line" smooth="yes"/>
      <point x="78" y="-84"/>
      <point x="64" y="-126"/>
      <point x="10" y="-126" type="curve" smooth="yes"/>
      <point x="1" y="-126"/>
      <point x="-15" y="-124"/>
      <point x="-28" y="-121" type="curve"/>
      <point x="-37" y="-179" type="line"/>
      <point x="-18" y="-185"/>
      <point x="-1" y="-188"/>
    </contour>
    <contour>
      <point x="112" y="623" type="curve" smooth="yes"/>
      <point x="140" y="623"/>
      <point x="161" y="644"/>
      <point x="161" y="672" type="curve" smooth="yes"/>
      <point x="161" y="700"/>
      <point x="140" y="721"/>
      <point x="112" y="721" type="curve" smooth="yes"/>
      <point x="85" y="721"/>
      <point x="65" y="700"/>
      <point x="65" y="672" type="curve" smooth="yes"/>
      <point x="65" y="644"/>
      <point x="85" y="623"/>
    </contour>
  </outline>
</glyph>
<glyph name="l" format="2">
  <advance width="230.954"/>
  <unicode hex="006C"/>
  <anchor x="112" y="0" name="bottom"/>
  <anchor x="112" y="388" name="center"/>
  <anchor x="112" y="776" name="top"/>
  <anchor x="207" y="776" name="topright"/>
  <outline>
    <contour>
      <point x="201" y="-6" type="curve"/>
      <point x="209" y="51" type="line"/>
      <point x="164" y="58"/>
      <point x="145" y="82"/>
      <point x="145" y="132" type="curve" smooth="yes"/>
      <point x="145" y="776" type="line"/>
      <point x="76" y="763" type="line"/>
      <point x="76" y="132" type="line" smooth="yes"/>
      <point x="76" y="48"/>
      <point x="118" y="1"/>
    </contour>
  </outline>
</glyph>
<glyph name="n" format="2">
  <advance width="471.332"/>
  <unicode hex="006E"/>
  <anchor x="237" y="0" name="bottom"/>
  <anchor x="234" y="522" name="top"/>
  <outline>
    <contour>
      <point x="78" y="0" type="line"/>
      <point x="147" y="0" type="line"/>
      <point x="147" y="457" type="line"/>
      <point x="171" y="467"/>
      <point x="200" y="472"/>
      <point x="224" y="472" type="curve" smooth="yes"/>
      <point x="300" y="472"/>
      <point x="329" y="429"/>
      <point x="329" y="316" type="curve" smooth="yes"/>
      <point x="329" y="0" type="line"/>
      <point x="398" y="0" type="line"/>
      <point x="398" y="322" type="line" smooth="yes"/>
      <point x="398" y="466"/>
      <point x="347" y="532"/>
      <point x="227" y="532" type="curve" smooth="yes"/>
      <point x="175" y="532"/>
      <point x="125" y="522"/>
      <point x="78" y="506" type="curve"/>
    </contour>
  </outline>
</glyph>
<glyph name="o" format="2">
  <advance width="455.876"/>
  <unicode hex="006F"/>
  <anchor x="228" y="0" name="bottom"/>
  <anchor x="228" y="259" name="center"/>
  <anchor x="412" y="10" name="ogonek"/>
  <anchor x="228" y="522" name="top"/>
  <anchor x="437" y="521" name="topright"/>
  <outline>
    <contour>
      <point x="228" y="-11" type="curve" smooth="yes"/>
      <point x="341" y="-11"/>
      <point x="406" y="88"/>
      <point x="406" y="262" type="curve" smooth="yes"/>
      <point x="406" y="435"/>
      <point x="341" y="535"/>
      <point x="228" y="535" type="curve" smooth="yes"/>
      <point x="115" y="535"/>
      <point x="50" y="435"/>
      <point x="50" y="262" type="curve" smooth="yes"/>
      <point x="50" y="88"/>
      <point x="115" y="-11"/>
    </contour>
    <contour>
      <point x="228" y="50" type="curve" smooth="yes"/>
      <point x="160" y="50"/>
      <point x="122" y="123"/>
      <point x="122" y="262" type="curve" smooth="yes"/>
      <point x="122" y="401"/>
      <point x="160" y="474"/>
      <point x="228" y="474" type="curve" smooth="yes"/>
      <point x="296" y="474"/>
      <point x="334" y="401"/>
      <point x="334" y="262" type="curve" smooth="yes"/>
      <point x="334" y="122"/>
      <point x="296" y="50"/>
    </contour>
  </outline>
</glyph>
<glyph name="p" format="2">
  <advance width="456.244"/>
  <unicode hex="0070"/>
  <anchor x="232" y="0" name="bottom"/>
  <anchor x="232" y="521" name="top"/>
  <outline>
    <contour>
      <point x="78" y="-185" type="line"/>
      <point x="147" y="-185" type="line"/>
      <point x="147" y="13" type="line"/>
      <point x="166" y="0"/>
      <point x="196" y="-10"/>
      <point x="230" y="-10" type="curve" smooth="yes"/>
      <point x="334" y="-10"/>
      <point x="406" y="68"/>
      <point x="406" y="262" type="curve" smooth="yes"/>
      <point x="406" y="429"/>
      <point x="350" y="533"/>
      <point x="213" y="533" type="curve" smooth="yes"/>
      <point x="163" y="533"/>
      <point x="122" y="524"/>
      <point x="78" y="508" type="curve"/>
    </contour>
    <contour>
      <point x="221" y="50" type="curve" smooth="yes"/>
      <point x="191" y="50"/>
      <point x="163" y="59"/>
      <point x="147" y="73" type="curve"/>
      <point x="147" y="460" type="line"/>
      <point x="163" y="468"/>
      <point x="186" y="473"/>
      <point x="212" y="473" type="curve" smooth="yes"/>
      <point x="289" y="473"/>
      <point x="334" y="426"/>
      <point x="334" y="262" type="curve" smooth="yes"/>
      <point x="334" y="82"/>
      <point x="273" y="50"/>
    </contour>
  </outline>
</glyph>
<glyph name="q" format="2">
  <advance width="456.244"/>
  <unicode hex="0071"/>
  <anchor x="220" y="0" name="bottom"/>
  <anchor x="220" y="521" name="top"/>
  <outline>
    <contour>
      <point x="309" y="-185" type="line"/>
      <point x="378" y="-185" type="line"/>
      <point x="378" y="508" type="line"/>
      <point x="333" y="524"/>
      <point x="293" y="533"/>
      <point x="243" y="533" type="curve" smooth="yes"/>
      <point x="106" y="533"/>
      <point x="50" y="429"/>
      <point x="50" y="262" type="curve" smooth="yes"/>
      <point x="50" y="68"/>
      <point x="123" y="-10"/>
      <point x="226" y="-10" type="curve" smooth="yes"/>
      <point x="260" y="-10"/>
      <point x="291" y="0"/>
      <point x="309" y="13" type="curve"/>
    </contour>
    <contour>
      <point x="236" y="50" type="curve" smooth="yes"/>
      <point x="183" y="50"/>
      <point x="122" y="82"/>
      <point x="122" y="262" type="curve" smooth="yes"/>
      <point x="122" y="426"/>
      <point x="166" y="473"/>
      <point x="244" y="473" type="curve" smooth="yes"/>
      <point x="270" y="473"/>
      <point x="293" y="468"/>
      <point x="309" y="460" type="curve"/>
      <point x="309" y="73" type="line"/>
      <point x="293" y="59"/>
      <point x="265" y="50"/>
    </contour>
  </outline>
</glyph>
<glyph name="r" format="2">
  <advance width="313.384"/>
  <unicode hex="0072"/>
  <anchor x="114" y="0" name="bottom"/>
  <anchor x="192" y="522" name="top"/>
  <outline>
    <contour>
      <point x="78" y="0" type="line"/>
      <point x="147" y="0" type="line"/>
      <point x="147" y="456" type="line"/>
      <point x="170" y="466"/>
      <point x="196" y="472"/>
      <point x="227" y="472" type="curve" smooth="yes"/>
      <point x="252" y="472"/>
      <point x="275" y="469"/>
      <point x="294" y="462" type="curve"/>
      <point x="306" y="521" type="line"/>
      <point x="286" y="528"/>
      <point x="256" y="532"/>
      <point x="222" y="532" type="curve" smooth="yes"/>
      <point x="172" y="532"/>
      <point x="118" y="520"/>
      <point x="78" y="499" type="curve"/>
    </contour>
  </outline>
</glyph>
<glyph name="s" format="2">
  <advance width="337.016"/>
  <unicode hex="0073"/>
  <anchor x="166" y="0" name="bottom"/>
  <anchor x="177" y="522" name="top"/>
  <outline>
    <contour>
      <point x="150" y="-11" type="curve" smooth="yes"/>
      <point x="241" y="-11"/>
      <point x="303" y="52"/>
      <point x="303" y="138" type="curve" smooth="yes"/>
      <point x="303" y="204"/>
      <point x="271" y="248"/>
      <point x="203" y="288" type="curve" smooth="yes"/>
      <point x="141" y="325"/>
      <point x="116" y="353"/>
      <point x="116" y="399" type="curve" smooth="yes"/>
      <point x="116" y="448"/>
      <point x="143" y="477"/>
      <point x="192" y="477" type="curve" smooth="yes"/>
      <point x="218" y="477"/>
      <point x="248" y="470"/>
      <point x="275" y="460" type="curve"/>
      <point x="286" y="516" type="line"/>
      <point x="262" y="527"/>
      <point x="226" y="535"/>
      <point x="189" y="535" type="curve" smooth="yes"/>
      <point x="102" y="535"/>
      <point x="47" y="476"/>
      <point x="47" y="393" type="curve" smooth="yes"/>
      <point x="47" y="329"/>
      <point x="78" y="284"/>
      <point x="148" y="244" type="curve" smooth="yes"/>
      <point x="217" y="204"/>
      <point x="233" y="178"/>
      <point x="233" y="131" type="curve" smooth="yes"/>
      <point x="233" y="83"/>
      <point x="198" y="47"/>
      <point x="147" y="47" type="curve" smooth="yes"/>
      <point x="116" y="47"/>
      <point x="78" y="57"/>
      <point x="48" y="71" type="curve"/>
      <point x="35" y="13" type="line"/>
      <point x="64" y="-1"/>
      <point x="107" y="-11"/>
    </contour>
  </outline>
</glyph>
<glyph name="t" format="2">
  <advance width="306.296"/>
  <unicode hex="0074"/>
  <anchor x="196" y="0" name="bottom"/>
  <anchor x="159" y="259" name="center"/>
  <anchor x="159" y="521" name="top"/>
  <anchor x="292" y="776" name="topright"/>
  <outline>
    <contour>
      <point x="211" y="-7" type="curve" smooth="yes"/>
      <point x="241" y="-7"/>
      <point x="272" y="0"/>
      <point x="294" y="12" type="curve"/>
      <point x="283" y="67" type="line"/>
      <point x="263" y="58"/>
      <point x="243" y="55"/>
      <point x="222" y="55" type="curve" smooth="yes"/>
      <point x="169" y="55"/>
      <point x="143" y="86"/>
      <point x="143" y="157" type="curve" smooth="yes"/>
      <point x="143" y="463" type="line"/>
      <point x="278" y="463" type="line"/>
      <point x="278" y="522" type="line"/>
      <point x="143" y="522" type="line"/>
      <point x="143" y="681" type="line"/>
      <point x="74" y="668" type="line"/>
      <point x="74" y="159" type="line" smooth="yes"/>
      <point x="74" y="39"/>
      <point x="128" y="-7"/>
    </contour>
  </outline>
</glyph>
<glyph name="u" format="2">
  <advance width="469.56"/>
  <unicode hex="0075"/>
  <anchor x="233" y="0" name="bottom"/>
  <anchor x="424" y="10" name="ogonek"/>
  <anchor x="233" y="521" name="top"/>
  <anchor x="451" y="521" name="topright"/>
  <outline>
    <contour>
      <point x="243" y="-10" type="curve" smooth="yes"/>
      <point x="296" y="-10"/>
      <point x="345" y="1"/>
      <point x="393" y="16" type="curve"/>
      <point x="393" y="522" type="line"/>
      <point x="324" y="522" type="line"/>
      <point x="324" y="65" type="line"/>
      <point x="299" y="55"/>
      <point x="269" y="50"/>
      <point x="245" y="50" type="curve" smooth="yes"/>
      <point x="169" y="50"/>
      <point x="142" y="93"/>
      <point x="142" y="206" type="curve" smooth="yes"/>
      <point x="142" y="522" type="line"/>
      <point x="72" y="522" type="line"/>
      <point x="72" y="200" type="line" smooth="yes"/>
      <point x="72" y="56"/>
      <point x="124" y="-10"/>
    </contour>
  </outline>
</glyph>
<glyph name="v" format="2">
  <advance width="386.814"/>
  <unicode hex="0076"/>
  <anchor x="194" y="0" name="bottom"/>
  <anchor x="194" y="521" name="top"/>
  <outline>
    <contour>
      <point x="158" y="0" type="curve"/>
      <point x="228" y="0" type="line"/>
      <point x="278" y="118"/>
      <point x="338" y="336"/>
      <point x="369" y="522" type="curve"/>
      <point x="300" y="522" type="line"/>
      <point x="277" y="376"/>
      <point x="239" y="212"/>
      <point x="195" y="79" type="curve"/>
      <point x="150" y="210"/>
      <point x="112" y="376"/>
      <point x="90" y="522" type="curve"/>
      <point x="18" y="522" type="line"/>
      <point x="48" y="336"/>
      <point x="109" y="118"/>
    </contour>
  </outline>
</glyph>
<glyph name="w" format="2">
  <advance width="574.394"/>
  <unicode hex="0077"/>
  <anchor x="287" y="0" name="bottom"/>
  <anchor x="287" y="521" name="top"/>
  <outline>
    <contour>
      <point x="131" y="0" type="curve"/>
      <point x="203" y="0" type="line"/>
      <point x="237" y="107"/>
      <point x="271" y="239"/>
      <point x="290" y="372" type="curve"/>
      <point x="310" y="239"/>
      <point x="339" y="107"/>
      <point x="372" y="0" type="curve"/>
      <point x="442" y="0" type="line"/>
      <point x="491" y="157"/>
      <point x="532" y="343"/>
      <point x="554" y="522" type="curve"/>
      <point x="487" y="522" type="line"/>
      <point x="476" y="410"/>
      <point x="447" y="254"/>
      <point x="400" y="78" type="curve"/>
      <point x="353" y="250"/>
      <point x="333" y="405"/>
      <point x="322" y="522" type="curve"/>
      <point x="259" y="522" type="line"/>
      <point x="249" y="405"/>
      <point x="224" y="250"/>
      <point x="173" y="79" type="curve"/>
      <point x="125" y="256"/>
      <point x="101" y="410"/>
      <point x="90" y="522" type="curve"/>
      <point x="20" y="522" type="line"/>
      <point x="43" y="343"/>
      <point x="82" y="158"/>
    </contour>
  </outline>
</glyph>
<glyph name="y" format="2">
  <advance width="385.814"/>
  <unicode hex="0079"/>
  <anchor x="193" y="0" name="bottom"/>
  <anchor x="193" y="522" name="top"/>
  <outline>
    <contour>
      <point x="61" y="-188" type="curve" smooth="yes"/>
      <point x="133" y="-188"/>
      <point x="181" y="-134"/>
      <point x="234" y="5" type="curve" smooth="yes"/>
      <point x="289" y="151"/>
      <point x="336" y="332"/>
      <point x="370" y="522" type="curve"/>
      <point x="301" y="522" type="line"/>
      <point x="280" y="380"/>
      <point x="239" y="205"/>
      <point x="196" y="76" type="curve"/>
      <point x="154" y="194"/>
      <point x="110" y="381"/>
      <point x="91" y="522" type="curve"/>
      <point x="19" y="522" type="line"/>
      <point x="52" y="337"/>
      <point x="94" y="169"/>
      <point x="162" y="-6" type="curve"/>
      <point x="123" y="-98"/>
      <point x="90" y="-128"/>
      <point x="57" y="-128" type="curve" smooth="yes"/>
      <point x="43" y="-128"/>
      <point x="28" y="-126"/>
      <point x="15" y="-119" type="curve"/>
      <point x="4" y="-176" type="line"/>
      <point x="16" y="-183"/>
      <point x="36" y="-188"/>
    </contour>
  </outline>
</glyph>
<glyph name="z" format="2">
  <advance width="338.876"/>
  <unicode hex="007A"/>
  <anchor x="170" y="0" name="bottom"/>
  <anchor x="170" y="259" name="center"/>
  <anchor x="171" y="521" name="top"/>
  <outline>
    <contour>
      <point x="33" y="0" type="line"/>
      <point x="309" y="0" type="line"/>
      <point x="309" y="59" type="line"/>
      <point x="106" y="59" type="line"/>
      <point x="162" y="202"/>
      <point x="234" y="344"/>
      <point x="303" y="468" type="curve"/>
      <point x="303" y="522" type="line"/>
      <point x="46" y="522" type="line"/>
      <point x="46" y="463" type="line"/>
      <point x="229" y="463" type="line"/>
      <point x="156" y="331"/>
      <point x="85" y="187"/>
      <point x="33" y="51" type="curve"/>
    </contour>
  </outline>
</glyph>
<glyph name="braceleft" format="2">
  <advance width="254.788"/>
  <unicode hex="007B"/>
  <outline>
    <contour>
      <point x="241" y="-185" type="curve" smooth="yes"/>
      <point x="249" y="-185" type="line"/>
      <point x="249" y="-128" type="line"/>
      <point x="241" y="-128" type="line" smooth="yes"/>
      <point x="196" y="-128"/>
      <point x="169" y="-105"/>
      <point x="169" y="-36" type="curve" smooth="yes"/>
      <point x="169" y="158" type="line" smooth="yes"/>
      <point x="169" y="232"/>
      <point x="147" y="276"/>
      <point x="102" y="298" type="curve"/>
      <point x="146" y="320"/>
      <point x="169" y="365"/>
      <point x="169" y="440" type="curve" smooth="yes"/>
      <point x="169" y="635" type="line" smooth="yes"/>
      <point x="169" y="704"/>
      <point x="195" y="727"/>
      <point x="241" y="727" type="curve" smooth="yes"/>
      <point x="249" y="727" type="line"/>
      <point x="249" y="783" type="line"/>
      <point x="241" y="783" type="line" smooth="yes"/>
      <point x="153" y="783"/>
      <point x="105" y="742"/>
      <point x="105" y="635" type="curve" smooth="yes"/>
      <point x="105" y="449" type="line" smooth="yes"/>
      <point x="105" y="371"/>
      <point x="81" y="331"/>
      <point x="37" y="327" type="curve"/>
      <point x="37" y="271" type="line"/>
      <point x="80" y="266"/>
      <point x="105" y="226"/>
      <point x="105" y="148" type="curve" smooth="yes"/>
      <point x="105" y="-37" type="line" smooth="yes"/>
      <point x="105" y="-144"/>
      <point x="153" y="-185"/>
    </contour>
  </outline>
</glyph>
<glyph name="bar" format="2">
  <advance width="257.7"/>
  <unicode hex="007C"/>
  <outline>
    <contour>
      <point x="96" y="-185" type="line"/>
      <point x="162" y="-185" type="line"/>
      <point x="162" y="783" type="line"/>
      <point x="96" y="783" type="line"/>
    </contour>
  </outline>
</glyph>
<glyph name="braceright" format="2">
  <advance width="254.788"/>
  <unicode hex="007D"/>
  <outline>
    <contour>
      <point x="6" y="-185" type="line"/>
      <point x="14" y="-185" type="line" smooth="yes"/>
      <point x="102" y="-185"/>
      <point x="150" y="-144"/>
      <point x="150" y="-37" type="curve" smooth="yes"/>
      <point x="150" y="149" type="line" smooth="yes"/>
      <point x="150" y="227"/>
      <point x="175" y="267"/>
      <point x="219" y="272" type="curve"/>
      <point x="219" y="327" type="line"/>
      <point x="174" y="332"/>
      <point x="150" y="372"/>
      <point x="150" y="450" type="curve" smooth="yes"/>
      <point x="150" y="635" type="line" smooth="yes"/>
      <point x="150" y="742"/>
      <point x="102" y="783"/>
      <point x="14" y="783" type="curve" smooth="yes"/>
      <point x="6" y="783" type="line"/>
      <point x="6" y="727" type="line"/>
      <point x="14" y="727" type="line" smooth="yes"/>
      <point x="59" y="727"/>
      <point x="86" y="704"/>
      <point x="86" y="635" type="curve" smooth="yes"/>
      <point x="86" y="441" type="line" smooth="yes"/>
      <point x="86" y="366"/>
      <point x="108" y="322"/>
      <point x="153" y="300" type="curve"/>
      <point x="109" y="278"/>
      <point x="86" y="234"/>
      <point x="86" y="158" type="curve" smooth="yes"/>
      <point x="86" y="-36" type="line" smooth="yes"/>
      <point x="86" y="-105"/>
      <point x="59" y="-128"/>
      <point x="14" y="-128" type="curve" smooth="yes"/>
      <point x="6" y="-128" type="line"/>
    </contour>
  </outline>
</glyph>
<glyph name="asciitilde" format="2">
  <advance width="427.798"/>
  <unicode hex="007E"/>
  <outline>
    <contour>
      <point x="293" y="227" type="curve" smooth="yes"/>
      <point x="347" y="227"/>
      <point x="384" y="267"/>
      <point x="399" y="355" type="curve"/>
      <point x="349" y="370" type="line"/>
      <point x="339" y="300"/>
      <point x="309" y="292"/>
      <point x="290" y="292" type="curve" smooth="yes"/>
      <point x="245" y="292"/>
      <point x="203" y="372"/>
      <point x="135" y="372" type="curve" smooth="yes"/>
      <point x="82" y="372"/>
      <point x="44" y="332"/>
      <point x="29" y="244" type="curve"/>
      <point x="80" y="229" type="line"/>
      <point x="90" y="299"/>
      <point x="119" y="307"/>
      <point x="138" y="307" type="curve" smooth="yes"/>
      <point x="183" y="307"/>
      <point x="226" y="227"/>
    </contour>
  </outline>
</glyph>
<glyph name="exclamdown" format="2">
  <advance width="253.648"/>
  <unicode hex="00A1"/>
  <outline>
    <contour>
      <point x="95" y="-174" type="line"/>
      <point x="169" y="-174" type="line"/>
      <point x="169" y="16" type="line" smooth="yes"/>
      <point x="169" y="114"/>
      <point x="163" y="225"/>
      <point x="152" y="323" type="curve"/>
      <point x="112" y="323" type="line"/>
      <point x="100" y="225"/>
      <point x="95" y="114"/>
      <point x="95" y="16" type="curve" smooth="yes"/>
    </contour>
    <contour>
      <point x="133" y="426" type="curve" smooth="yes"/>
      <point x="162" y="426"/>
      <point x="181" y="449"/>
      <point x="181" y="477" type="curve" smooth="yes"/>
      <point x="181" y="503"/>
      <point x="162" y="527"/>
      <point x="133" y="527" type="curve" smooth="yes"/>
      <point x="105" y="527"/>
      <point x="84" y="503"/>
      <point x="84" y="477" type="curve" smooth="yes"/>
      <point x="84" y="449"/>
      <point x="105" y="426"/>
    </contour>
  </outline>
</glyph>
<glyph name="cent" format="2">
  <advance width="419.824"/>
  <unicode hex="00A2"/>
  <outline>
    <contour>
      <point x="211" y="-100" type="line"/>
      <point x="275" y="-100" type="line"/>
      <point x="275" y="32" type="line"/>
      <point x="303" y="32"/>
      <point x="332" y="38"/>
      <point x="357" y="53" type="curve"/>
      <point x="346" y="109" type="line"/>
      <point x="322" y="97"/>
      <point x="297" y="93"/>
      <point x="270" y="93" type="curve" smooth="yes"/>
      <point x="192" y="93"/>
      <point x="143" y="159"/>
      <point x="143" y="291" type="curve" smooth="yes"/>
      <point x="143" y="431"/>
      <point x="186" y="494"/>
      <point x="266" y="494" type="curve" smooth="yes"/>
      <point x="292" y="494"/>
      <point x="318" y="488"/>
      <point x="340" y="478" type="curve"/>
      <point x="354" y="536" type="line"/>
      <point x="330" y="548"/>
      <point x="303" y="554"/>
      <point x="275" y="556" type="curve"/>
      <point x="275" y="685" type="line"/>
      <point x="211" y="685" type="line"/>
      <point x="211" y="550" type="line"/>
      <point x="121" y="528"/>
      <point x="71" y="438"/>
      <point x="71" y="291" type="curve" smooth="yes"/>
      <point x="71" y="148"/>
      <point x="120" y="57"/>
      <point x="211" y="37" type="curve"/>
    </contour>
  </outline>
</glyph>
<glyph name="sterling" format="2">
  <advance width="419.824"/>
  <unicode hex="00A3"/>
  <outline>
    <contour>
      <point x="73" y="0" type="curve"/>
      <point x="379" y="0" type="line"/>
      <point x="379" y="61" type="line"/>
      <point x="153" y="61" type="line"/>
      <point x="165" y="137"/>
      <point x="170" y="238"/>
      <point x="170" y="300" type="curve" smooth="yes"/>
      <point x="170" y="308" type="line"/>
      <point x="318" y="308" type="line"/>
      <point x="318" y="367" type="line"/>
      <point x="170" y="367" type="line"/>
      <point x="170" y="505" type="line" smooth="yes"/>
      <point x="170" y="606"/>
      <point x="211" y="643"/>
      <point x="266" y="643" type="curve" smooth="yes"/>
      <point x="298" y="643"/>
      <point x="327" y="636"/>
      <point x="348" y="623" type="curve"/>
      <point x="365" y="680" type="line"/>
      <point x="339" y="694"/>
      <point x="304" y="704"/>
      <point x="263" y="704" type="curve" smooth="yes"/>
      <point x="175" y="704"/>
      <point x="99" y="653"/>
      <point x="99" y="505" type="curve" smooth="yes"/>
      <point x="99" y="367" type="line"/>
      <point x="26" y="367" type="line"/>
      <point x="26" y="308" type="line"/>
      <point x="99" y="308" type="line"/>
      <point x="99" y="298" type="line" smooth="yes"/>
      <point x="99" y="186"/>
      <point x="86" y="81"/>
    </contour>
  </outline>
</glyph>
<glyph name="currency" format="2">
  <advance width="419.824"/>
  <unicode hex="00A4"/>
  <outline>
    <contour>
      <point x="78" y="115" type="line"/>
      <point x="131" y="185" type="line"/>
      <point x="153" y="168"/>
      <point x="181" y="158"/>
      <point x="211" y="158" type="curve" smooth="yes"/>
      <point x="240" y="158"/>
      <point x="267" y="168"/>
      <point x="290" y="184" type="curve"/>
      <point x="342" y="115" type="line"/>
      <point x="388" y="153" type="line"/>
      <point x="332" y="228" type="line"/>
      <point x="350" y="259"/>
      <point x="361" y="298"/>
      <point x="361" y="347" type="curve" smooth="yes"/>
      <point x="361" y="396"/>
      <point x="349" y="437"/>
      <point x="330" y="468" type="curve"/>
      <point x="388" y="544" type="line"/>
      <point x="342" y="582" type="line"/>
      <point x="288" y="511" type="line"/>
      <point x="266" y="527"/>
      <point x="240" y="536"/>
      <point x="211" y="536" type="curve" smooth="yes"/>
      <point x="181" y="536"/>
      <point x="153" y="527"/>
      <point x="133" y="511" type="curve"/>
      <point x="78" y="582" type="line"/>
      <point x="32" y="544" type="line"/>
      <point x="91" y="467" type="line"/>
      <point x="71" y="436"/>
      <point x="61" y="396"/>
      <point x="61" y="347" type="curve" smooth="yes"/>
      <point x="61" y="299"/>
      <point x="71" y="259"/>
      <point x="90" y="229" type="curve"/>
      <point x="32" y="153" type="line"/>
    </contour>
    <contour>
      <point x="211" y="215" type="curve" smooth="yes"/>
      <point x="158" y="215"/>
      <point x="121" y="258"/>
      <point x="121" y="347" type="curve" smooth="yes"/>
      <point x="121" y="438"/>
      <point x="158" y="480"/>
      <point x="211" y="480" type="curve" smooth="yes"/>
      <point x="263" y="480"/>
      <point x="300" y="438"/>
      <point x="300" y="347" type="curve" smooth="yes"/>
      <point x="300" y="258"/>
      <point x="263" y="215"/>
    </contour>
  </outline>
</glyph>
<glyph name="yen" format="2">
  <advance width="419.824"/>
  <unicode hex="00A5"/>
  <outline>
    <contour>
      <point x="174" y="0" type="line"/>
      <point x="243" y="0" type="line"/>
      <point x="243" y="130" type="line"/>
      <point x="365" y="130" type="line"/>
      <point x="365" y="183" type="line"/>
      <point x="243" y="183" type="line"/>
      <point x="243" y="291" type="line"/>
      <point x="365" y="291" type="line"/>
      <point x="365" y="343" type="line"/>
      <point x="266" y="343" type="line"/>
      <point x="316" y="450"/>
      <point x="367" y="567"/>
      <point x="409" y="693" type="curve"/>
      <point x="337" y="693" type="line"/>
      <point x="305" y="588"/>
      <point x="259" y="473"/>
      <point x="208" y="361" type="curve"/>
      <point x="158" y="473"/>
      <point x="112" y="588"/>
      <point x="80" y="693" type="curve"/>
      <point x="8" y="693" type="line"/>
      <point x="49" y="567"/>
      <point x="99" y="450"/>
      <point x="150" y="343" type="curve"/>
      <point x="53" y="343" type="line"/>
      <point x="53" y="291" type="line"/>
      <point x="174" y="291" type="line"/>
      <point x="174" y="183" type="line"/>
      <point x="53" y="183" type="line"/>
      <point x="53" y="130" type="line"/>
      <point x="174" y="130" type="line"/>
    </contour>
  </outline>
</glyph>
<glyph name="brokenbar" format="2">
  <advance width="257.7"/>
  <unicode hex="00A6"/>
  <outline>
    <contour>
      <point x="96" y="404" type="line"/>
      <point x="162" y="404" type="line"/>
      <point x="162" y="783" type="line"/>
      <point x="96" y="783" type="line"/>
    </contour>
    <contour>
      <point x="96" y="-185" type="line"/>
      <point x="162" y="-185" type="line"/>
      <point x="162" y="194" type="line"/>
      <point x="96" y="194" type="line"/>
    </contour>
  </outline>
</glyph>
<glyph name="section" format="2">
  <advance width="393.736"/>
  <unicode hex="00A7"/>
  <outline>
    <contour>
      <point x="173" y="-108" type="curve" smooth="yes"/>
      <point x="270" y="-108"/>
      <point x="335" y="-51"/>
      <point x="335" y="30" type="curve" smooth="yes"/>
      <point x="335" y="78"/>
      <point x="311" y="115"/>
      <point x="263" y="151" type="curve"/>
      <point x="319" y="178"/>
      <point x="356" y="231"/>
      <point x="356" y="302" type="curve" smooth="yes"/>
      <point x="356" y="369"/>
      <point x="324" y="412"/>
      <point x="246" y="453" type="curve" smooth="yes"/>
      <point x="175" y="491"/>
      <point x="139" y="517"/>
      <point x="139" y="567" type="curve" smooth="yes"/>
      <point x="139" y="617"/>
      <point x="172" y="644"/>
      <point x="229" y="644" type="curve" smooth="yes"/>
      <point x="263" y="644"/>
      <point x="300" y="636"/>
      <point x="333" y="621" type="curve"/>
      <point x="350" y="679" type="line"/>
      <point x="316" y="695"/>
      <point x="271" y="706"/>
      <point x="227" y="706" type="curve" smooth="yes"/>
      <point x="134" y="706"/>
      <point x="70" y="652"/>
      <point x="70" y="567" type="curve" smooth="yes"/>
      <point x="70" y="526"/>
      <point x="89" y="490"/>
      <point x="130" y="455" type="curve"/>
      <point x="75" y="424"/>
      <point x="42" y="374"/>
      <point x="42" y="306" type="curve" smooth="yes"/>
      <point x="42" y="236"/>
      <point x="73" y="190"/>
      <point x="157" y="145" type="curve" smooth="yes"/>
      <point x="230" y="106"/>
      <point x="267" y="80"/>
      <point x="267" y="31" type="curve" smooth="yes"/>
      <point x="267" y="-19"/>
      <point x="232" y="-47"/>
      <point x="173" y="-47" type="curve" smooth="yes"/>
      <point x="138" y="-47"/>
      <point x="98" y="-37"/>
      <point x="58" y="-20" type="curve"/>
      <point x="42" y="-78" type="line"/>
      <point x="79" y="-97"/>
      <point x="128" y="-108"/>
    </contour>
    <contour>
      <point x="215" y="183" type="curve"/>
      <point x="210" y="186"/>
      <point x="206" y="188"/>
      <point x="202" y="190" type="curve" smooth="yes"/>
      <point x="124" y="233"/>
      <point x="107" y="264"/>
      <point x="107" y="315" type="curve" smooth="yes"/>
      <point x="107" y="364"/>
      <point x="140" y="405"/>
      <point x="175" y="422" type="curve"/>
      <point x="184" y="418"/>
      <point x="191" y="414"/>
      <point x="200" y="409" type="curve" smooth="yes"/>
      <point x="275" y="367"/>
      <point x="291" y="340"/>
      <point x="291" y="294" type="curve" smooth="yes"/>
      <point x="291" y="241"/>
      <point x="258" y="201"/>
    </contour>
  </outline>
</glyph>
<glyph name="dieresis" format="2">
  <advance width="346.638"/>
  <unicode hex="00A8"/>
  <outline>
    <contour>
      <point x="248" y="627" type="curve" smooth="yes"/>
      <point x="271" y="627"/>
      <point x="293" y="646"/>
      <point x="293" y="672" type="curve" smooth="yes"/>
      <point x="293" y="700"/>
      <point x="271" y="718"/>
      <point x="248" y="718" type="curve" smooth="yes"/>
      <point x="224" y="718"/>
      <point x="203" y="700"/>
      <point x="203" y="672" type="curve" smooth="yes"/>
      <point x="203" y="646"/>
      <point x="224" y="627"/>
    </contour>
    <contour>
      <point x="98" y="627" type="curve" smooth="yes"/>
      <point x="121" y="627"/>
      <point x="143" y="646"/>
      <point x="143" y="672" type="curve" smooth="yes"/>
      <point x="143" y="700"/>
      <point x="121" y="718"/>
      <point x="98" y="718" type="curve" smooth="yes"/>
      <point x="73" y="718"/>
      <point x="54" y="700"/>
      <point x="54" y="672" type="curve" smooth="yes"/>
      <point x="54" y="646"/>
      <point x="73" y="627"/>
    </contour>
  </outline>
</glyph>
<glyph name="copyright" format="2">
  <advance width="712.58"/>
  <unicode hex="00A9"/>
  <outline>
    <contour>
      <point x="356" y="-15" type="curve" smooth="yes"/>
      <point x="539" y="-15"/>
      <point x="650" y="135"/>
      <point x="650" y="346" type="curve" smooth="yes"/>
      <point x="650" y="557"/>
      <point x="539" y="707"/>
      <point x="356" y="707" type="curve" smooth="yes"/>
      <point x="174" y="707"/>
      <point x="63" y="557"/>
      <point x="63" y="346" type="curve" smooth="yes"/>
      <point x="63" y="135"/>
      <point x="174" y="-15"/>
    </contour>
    <contour>
      <point x="370" y="148" type="curve" smooth="yes"/>
      <point x="402" y="148"/>
      <point x="434" y="154"/>
      <point x="457" y="169" type="curve"/>
      <point x="444" y="216" type="line"/>
      <point x="420" y="204"/>
      <point x="400" y="198"/>
      <point x="377" y="198" type="curve" smooth="yes"/>
      <point x="312" y="198"/>
      <point x="278" y="251"/>
      <point x="278" y="347" type="curve" smooth="yes"/>
      <point x="278" y="447"/>
      <point x="309" y="498"/>
      <point x="375" y="498" type="curve" smooth="yes"/>
      <point x="398" y="498"/>
      <point x="423" y="491"/>
      <point x="439" y="482" type="curve"/>
      <point x="452" y="529" type="line"/>
      <point x="430" y="541"/>
      <point x="399" y="548"/>
      <point x="368" y="548" type="curve" smooth="yes"/>
      <point x="274" y="548"/>
      <point x="221" y="474"/>
      <point x="221" y="345" type="curve" smooth="yes"/>
      <point x="221" y="223"/>
      <point x="275" y="148"/>
    </contour>
    <contour>
      <point x="356" y="34" type="curve" smooth="yes"/>
      <point x="211" y="34"/>
      <point x="115" y="157"/>
      <point x="115" y="346" type="curve" smooth="yes"/>
      <point x="115" y="534"/>
      <point x="210" y="658"/>
      <point x="356" y="658" type="curve" smooth="yes"/>
      <point x="499" y="658"/>
      <point x="597" y="535"/>
      <point x="597" y="346" type="curve" smooth="yes"/>
      <point x="597" y="158"/>
      <point x="501" y="34"/>
    </contour>
  </outline>
</glyph>
<glyph name="logicalnot" format="2">
  <advance width="427.798"/>
  <unicode hex="00AC"/>
  <outline>
    <contour>
      <point x="310" y="135" type="line"/>
      <point x="372" y="135" type="line"/>
      <point x="372" y="392" type="line"/>
      <point x="32" y="392" type="line"/>
      <point x="32" y="333" type="line"/>
      <point x="310" y="333" type="line"/>
    </contour>
  </outline>
</glyph>
<glyph name="macron" format="2">
  <advance width="313.342"/>
  <unicode hex="00AF"/>
  <outline>
    <contour>
      <point x="53" y="651" type="line"/>
      <point x="260" y="651" type="line"/>
      <point x="260" y="706" type="line"/>
      <point x="53" y="706" type="line"/>
    </contour>
  </outline>
</glyph>
<glyph name="degree" format="2">
  <advance width="273.332"/>
  <unicode hex="00B0"/>
  <outline>
    <contour>
      <point x="137" y="524" type="curve" smooth="yes"/>
      <point x="200" y="524"/>
      <point x="251" y="569"/>
      <point x="251" y="639" type="curve" smooth="yes"/>
      <point x="251" y="707"/>
      <point x="199" y="753"/>
      <point x="137" y="753" type="curve" smooth="yes"/>
      <point x="74" y="753"/>
      <point x="22" y="709"/>
      <point x="22" y="639" type="curve" smooth="yes"/>
      <point x="22" y="571"/>
      <point x="74" y="524"/>
    </contour>
    <contour>
      <point x="137" y="572" type="curve" smooth="yes"/>
      <point x="101" y="572"/>
      <point x="74" y="599"/>
      <point x="74" y="639" type="curve" smooth="yes"/>
      <point x="74" y="679"/>
      <point x="101" y="705"/>
      <point x="137" y="705" type="curve" smooth="yes"/>
      <point x="172" y="705"/>
      <point x="199" y="679"/>
      <point x="199" y="639" type="curve" smooth="yes"/>
      <point x="199" y="599"/>
      <point x="172" y="572"/>
    </contour>
  </outline>
</glyph>
<glyph name="plusminus" format="2">
  <advance width="427.798"/>
  <unicode hex="00B1"/>
  <outline>
    <contour>
      <point x="183" y="139" type="line"/>
      <point x="245" y="139" type="line"/>
      <point x="245" y="290" type="line"/>
      <point x="384" y="290" type="line"/>
      <point x="384" y="349" type="line"/>
      <point x="245" y="349" type="line"/>
      <point x="245" y="499" type="line"/>
      <point x="183" y="499" type="line"/>
      <point x="183" y="349" type="line"/>
      <point x="44" y="349" type="line"/>
      <point x="44" y="290" type="line"/>
      <point x="183" y="290" type="line"/>
    </contour>
    <contour>
      <point x="44" y="6" type="line"/>
      <point x="384" y="6" type="line"/>
      <point x="384" y="65" type="line"/>
      <point x="44" y="65" type="line"/>
    </contour>
  </outline>
</glyph>
<glyph name="twosuperior" format="2">
  <advance width="283.798"/>
  <unicode hex="00B2"/>
  <outline>
    <contour>
      <point x="43" y="305" type="curve"/>
      <point x="245" y="305" type="line"/>
      <point x="245" y="353" type="line"/>
      <point x="106" y="353" type="line"/>
      <point x="111" y="405"/>
      <point x="139" y="436"/>
      <point x="173" y="475" type="curve" smooth="yes"/>
      <point x="206" y="512"/>
      <point x="236" y="545"/>
      <point x="236" y="602" type="curve" smooth="yes"/>
      <point x="236" y="660"/>
      <point x="198" y="698"/>
      <point x="133" y="698" type="curve" smooth="yes"/>
      <point x="96" y="698"/>
      <point x="61" y="686"/>
      <point x="33" y="661" type="curve"/>
      <point x="57" y="621" type="line"/>
      <point x="79" y="639"/>
      <point x="101" y="648"/>
      <point x="127" y="648" type="curve" smooth="yes"/>
      <point x="160" y="648"/>
      <point x="178" y="628"/>
      <point x="178" y="597" type="curve" smooth="yes"/>
      <point x="178" y="554"/>
      <point x="155" y="528"/>
      <point x="117" y="485" type="curve" smooth="yes"/>
      <point x="79" y="441"/>
      <point x="43" y="390"/>
      <point x="43" y="317" type="curve" smooth="yes"/>
      <point x="43" y="313"/>
      <point x="43" y="309"/>
    </contour>
  </outline>
</glyph>
<glyph name="threesuperior" format="2">
  <advance width="283.798"/>
  <unicode hex="00B3"/>
  <outline>
    <contour>
      <point x="121" y="299" type="curve" smooth="yes"/>
      <point x="195" y="299"/>
      <point x="242" y="343"/>
      <point x="242" y="413" type="curve" smooth="yes"/>
      <point x="242" y="462"/>
      <point x="219" y="497"/>
      <point x="174" y="514" type="curve"/>
      <point x="211" y="530"/>
      <point x="229" y="565"/>
      <point x="229" y="601" type="curve" smooth="yes"/>
      <point x="229" y="656"/>
      <point x="196" y="698"/>
      <point x="126" y="698" type="curve" smooth="yes"/>
      <point x="96" y="698"/>
      <point x="64" y="690"/>
      <point x="32" y="669" type="curve"/>
      <point x="52" y="627" type="line"/>
      <point x="76" y="643"/>
      <point x="98" y="650"/>
      <point x="121" y="650" type="curve" smooth="yes"/>
      <point x="157" y="650"/>
      <point x="174" y="628"/>
      <point x="174" y="595" type="curve" smooth="yes"/>
      <point x="174" y="563"/>
      <point x="160" y="533"/>
      <point x="109" y="533" type="curve" smooth="yes"/>
      <point x="82" y="533" type="line"/>
      <point x="82" y="488" type="line"/>
      <point x="109" y="488" type="line" smooth="yes"/>
      <point x="159" y="488"/>
      <point x="187" y="463"/>
      <point x="187" y="414" type="curve" smooth="yes"/>
      <point x="187" y="364"/>
      <point x="156" y="347"/>
      <point x="120" y="347" type="curve" smooth="yes"/>
      <point x="95" y="347"/>
      <point x="73" y="352"/>
      <point x="40" y="369" type="curve"/>
      <point x="27" y="323" type="line"/>
      <point x="56" y="307"/>
      <point x="91" y="299"/>
    </contour>
  </outline>
</glyph>
<glyph name="acute" format="2">
  <advance width="314"/>
  <unicode hex="00B4"/>
  <outline>
    <contour>
      <point x="119" y="590" type="line"/>
      <point x="255" y="735" type="line"/>
      <point x="206" y="778" type="line"/>
      <point x="83" y="621" type="line"/>
    </contour>
  </outline>
</glyph>
<glyph name="micro" format="2">
  <advance width="478.218"/>
  <unicode hex="00B5"/>
  <outline>
    <contour>
      <point x="79" y="-185" type="line"/>
      <point x="146" y="-185" type="line"/>
      <point x="146" y="-93" type="line" smooth="yes"/>
      <point x="146" y="-49"/>
      <point x="145" y="-2"/>
      <point x="142" y="37" type="curve"/>
      <point x="165" y="-1"/>
      <point x="210" y="-10"/>
      <point x="255" y="-10" type="curve" smooth="yes"/>
      <point x="303" y="-10"/>
      <point x="353" y="1"/>
      <point x="399" y="16" type="curve"/>
      <point x="399" y="522" type="line"/>
      <point x="330" y="522" type="line"/>
      <point x="330" y="65" type="line"/>
      <point x="306" y="55"/>
      <point x="276" y="50"/>
      <point x="252" y="50" type="curve" smooth="yes"/>
      <point x="181" y="50"/>
      <point x="148" y="90"/>
      <point x="148" y="198" type="curve" smooth="yes"/>
      <point x="148" y="522" type="line"/>
      <point x="79" y="522" type="line"/>
    </contour>
  </outline>
</glyph>
<glyph name="paragraph" format="2">
  <advance width="495.514"/>
  <unicode hex="00B6"/>
  <outline>
    <contour>
      <point x="214" y="-185" type="line"/>
      <point x="279" y="-185" type="line"/>
      <point x="279" y="640" type="line"/>
      <point x="302" y="642"/>
      <point x="329" y="640"/>
      <point x="347" y="637" type="curve"/>
      <point x="347" y="-185" type="line"/>
      <point x="412" y="-185" type="line"/>
      <point x="412" y="682" type="line"/>
      <point x="381" y="692"/>
      <point x="334" y="698"/>
      <point x="291" y="698" type="curve" smooth="yes"/>
      <point x="149" y="698"/>
      <point x="35" y="632"/>
      <point x="35" y="479" type="curve" smooth="yes"/>
      <point x="35" y="351"/>
      <point x="96" y="277"/>
      <point x="214" y="264" type="curve"/>
    </contour>
  </outline>
</glyph>
<glyph name="cedilla" format="2">
  <advance width="304.606"/>
  <unicode hex="00B8"/>
  <outline>
    <contour>
      <point x="122" y="-194" type="curve" smooth="yes"/>
      <point x="179" y="-194"/>
      <point x="219" y="-162"/>
      <point x="219" y="-114" type="curve" smooth="yes"/>
      <point x="219" y="-80"/>
      <point x="203" y="-55"/>
      <point x="162" y="-39" type="curve"/>
      <point x="170" y="-20"/>
      <point x="181" y="1"/>
      <point x="190" y="20" type="curve"/>
      <point x="138" y="20" type="line"/>
      <point x="128" y="2"/>
      <point x="114" y="-30"/>
      <point x="103" y="-59" type="curve"/>
      <point x="147" y="-70"/>
      <point x="163" y="-86"/>
      <point x="163" y="-110" type="curve" smooth="yes"/>
      <point x="163" y="-134"/>
      <point x="146" y="-146"/>
      <point x="117" y="-146" type="curve" smooth="yes"/>
      <point x="101" y="-146"/>
      <point x="82" y="-143"/>
      <point x="67" y="-138" type="curve"/>
      <point x="58" y="-184" type="line"/>
      <point x="79" y="-190"/>
      <point x="100" y="-194"/>
    </contour>
  </outline>
</glyph>
<glyph name="AE" format="2">
  <advance width="726.638"/>
  <unicode hex="00C6"/>
  <anchor x="364" y="0" name="bottom"/>
  <anchor x="364" y="693" name="top"/>
  <outline>
    <contour>
      <point x="20" y="0" type="curve"/>
      <point x="94" y="0" type="line"/>
      <point x="114" y="59"/>
      <point x="137" y="121"/>
      <point x="163" y="183" type="curve"/>
      <point x="373" y="183" type="line"/>
      <point x="373" y="0" type="line"/>
      <point x="678" y="0" type="line"/>
      <point x="678" y="61" type="line"/>
      <point x="445" y="61" type="line"/>
      <point x="445" y="333" type="line"/>
      <point x="641" y="333" type="line"/>
      <point x="641" y="394" type="line"/>
      <point x="445" y="394" type="line"/>
      <point x="445" y="632" type="line"/>
      <point x="664" y="632" type="line"/>
      <point x="664" y="693" type="line"/>
      <point x="353" y="693" type="line"/>
      <point x="243" y="518"/>
      <point x="115" y="258"/>
    </contour>
    <contour>
      <point x="189" y="245" type="line"/>
      <point x="248" y="383"/>
      <point x="316" y="515"/>
      <point x="373" y="611" type="curve"/>
      <point x="373" y="245" type="line"/>
    </contour>
  </outline>
</glyph>
<glyph name="Ccedilla" format="2">
  <advance width="464.762"/>
  <unicode hex="00C7"/>
  <outline>
    <contour>
      <point x="255" y="-194" type="curve" smooth="yes"/>
      <point x="311" y="-194"/>
      <point x="351" y="-162"/>
      <point x="351" y="-114" type="curve" smooth="yes"/>
      <point x="351" y="-80"/>
      <point x="335" y="-55"/>
      <point x="295" y="-39" type="curve"/>
      <point x="299" y="-29"/>
      <point x="303" y="-20"/>
      <point x="308" y="-10" type="curve"/>
      <point x="310" y="-10"/>
      <point x="312" y="-10"/>
      <point x="315" y="-10" type="curve" smooth="yes"/>
      <point x="363" y="-9"/>
      <point x="408" y="2"/>
      <point x="444" y="24" type="curve"/>
      <point x="425" y="82" type="line"/>
      <point x="388" y="63"/>
      <point x="353" y="52"/>
      <point x="313" y="52" type="curve" smooth="yes"/>
      <point x="192" y="52"/>
      <point x="133" y="151"/>
      <point x="133" y="343" type="curve" smooth="yes"/>
      <point x="133" y="547"/>
      <point x="185" y="641"/>
      <point x="301" y="641" type="curve" smooth="yes"/>
      <point x="344" y="641"/>
      <point x="385" y="629"/>
      <point x="415" y="612" type="curve"/>
      <point x="435" y="672" type="line"/>
      <point x="398" y="692"/>
      <point x="351" y="703"/>
      <point x="301" y="703" type="curve" smooth="yes"/>
      <point x="140" y="703"/>
      <point x="58" y="579"/>
      <point x="58" y="343" type="curve" smooth="yes"/>
      <point x="58" y="140"/>
      <point x="128" y="17"/>
      <point x="257" y="-7" type="curve"/>
      <point x="249" y="-23"/>
      <point x="241" y="-42"/>
      <point x="234" y="-59" type="curve"/>
      <point x="279" y="-71"/>
      <point x="295" y="-86"/>
      <point x="295" y="-110" type="curve" smooth="yes"/>
      <point x="295" y="-133"/>
      <point x="278" y="-146"/>
      <point x="250" y="-146" type="curve" smooth="yes"/>
      <point x="234" y="-146"/>
      <point x="214" y="-143"/>
      <point x="198" y="-137" type="curve"/>
      <point x="190" y="-184" type="line"/>
      <point x="211" y="-190"/>
      <point x="233" y="-194"/>
    </contour>
  </outline>
</glyph>
<glyph name="Eth" format="2">
  <advance width="570.42"/>
  <unicode hex="00D0"/>
  <outline>
    <contour>
      <point x="240" y="-6" type="curve" smooth="yes"/>
      <point x="418" y="-6"/>
      <point x="513" y="115"/>
      <point x="513" y="347" type="curve" smooth="yes"/>
      <point x="513" y="581"/>
      <point x="422" y="699"/>
      <point x="240" y="699" type="curve" smooth="yes"/>
      <point x="187" y="699"/>
      <point x="138" y="694"/>
      <point x="87" y="684" type="curve"/>
      <point x="87" y="375" type="line"/>
      <point x="33" y="375" type="line"/>
      <point x="33" y="320" type="line"/>
      <point x="87" y="320" type="line"/>
      <point x="87" y="7" type="line"/>
      <point x="139" y="-3"/>
      <point x="189" y="-6"/>
    </contour>
    <contour>
      <point x="242" y="57" type="curve" smooth="yes"/>
      <point x="209" y="57"/>
      <point x="184" y="58"/>
      <point x="159" y="63" type="curve"/>
      <point x="159" y="320" type="line"/>
      <point x="281" y="320" type="line"/>
      <point x="281" y="375" type="line"/>
      <point x="159" y="375" type="line"/>
      <point x="159" y="630" type="line"/>
      <point x="186" y="634"/>
      <point x="211" y="636"/>
      <point x="242" y="636" type="curve" smooth="yes"/>
      <point x="377" y="636"/>
      <point x="437" y="547"/>
      <point x="437" y="347" type="curve" smooth="yes"/>
      <point x="437" y="148"/>
      <point x="375" y="57"/>
    </contour>
  </outline>
</glyph>
<glyph name="multiply" format="2">
  <advance width="427.798"/>
  <unicode hex="00D7"/>
  <outline>
    <contour>
      <point x="108" y="153" type="line"/>
      <point x="213" y="258" type="line"/>
      <point x="325" y="147" type="line"/>
      <point x="368" y="190" type="line"/>
      <point x="257" y="301" type="line"/>
      <point x="362" y="407" type="line"/>
      <point x="318" y="451" type="line"/>
      <point x="213" y="345" type="line"/>
      <point x="102" y="456" type="line"/>
      <point x="59" y="413" type="line"/>
      <point x="170" y="301" type="line"/>
      <point x="64" y="196" type="line"/>
    </contour>
  </outline>
</glyph>
<glyph name="Oslash" format="2">
  <advance width="590.534"/>
  <unicode hex="00D8"/>
  <anchor x="296" y="0" name="bottom"/>
  <anchor x="296" y="693" name="top"/>
  <outline>
    <contour>
      <point x="111" y="-32" type="line"/>
      <point x="154" y="44" type="line"/>
      <point x="191" y="8"/>
      <point x="238" y="-10"/>
      <point x="296" y="-10" type="curve" smooth="yes"/>
      <point x="447" y="-10"/>
      <point x="534" y="119"/>
      <point x="534" y="345" type="curve" smooth="yes"/>
      <point x="534" y="457"/>
      <point x="513" y="547"/>
      <point x="473" y="608" type="curve"/>
      <point x="525" y="699" type="line"/>
      <point x="480" y="725" type="line"/>
      <point x="437" y="649" type="line"/>
      <point x="400" y="685"/>
      <point x="352" y="704"/>
      <point x="296" y="704" type="curve" smooth="yes"/>
      <point x="144" y="704"/>
      <point x="58" y="573"/>
      <point x="58" y="345" type="curve" smooth="yes"/>
      <point x="58" y="234"/>
      <point x="79" y="145"/>
      <point x="118" y="84" type="curve"/>
      <point x="67" y="-6" type="line"/>
    </contour>
    <contour>
      <point x="164" y="164" type="line"/>
      <point x="143" y="208"/>
      <point x="133" y="270"/>
      <point x="133" y="345" type="curve" smooth="yes"/>
      <point x="133" y="538"/>
      <point x="189" y="641"/>
      <point x="296" y="641" type="curve" smooth="yes"/>
      <point x="340" y="641"/>
      <point x="376" y="623"/>
      <point x="402" y="587" type="curve"/>
    </contour>
    <contour>
      <point x="296" y="52" type="curve" smooth="yes"/>
      <point x="251" y="52"/>
      <point x="215" y="70"/>
      <point x="189" y="105" type="curve"/>
      <point x="427" y="528" type="line"/>
      <point x="447" y="483"/>
      <point x="457" y="421"/>
      <point x="457" y="345" type="curve" smooth="yes"/>
      <point x="457" y="154"/>
      <point x="402" y="52"/>
    </contour>
  </outline>
</glyph>
<glyph name="Thorn" format="2">
  <advance width="474.7"/>
  <unicode hex="00DE"/>
  <anchor x="238" y="0" name="bottom"/>
  <anchor x="238" y="693" name="top"/>
  <outline>
    <contour>
      <point x="84" y="0" type="line"/>
      <point x="156" y="0" type="line"/>
      <point x="156" y="142" type="line"/>
      <point x="209" y="142" type="line" smooth="yes"/>
      <point x="353" y="142"/>
      <point x="438" y="223"/>
      <point x="438" y="358" type="curve" smooth="yes"/>
      <point x="438" y="497"/>
      <point x="356" y="578"/>
      <point x="211" y="578" type="curve" smooth="yes"/>
      <point x="194" y="578"/>
      <point x="175" y="577"/>
      <point x="156" y="574" type="curve"/>
      <point x="156" y="693" type="line"/>
      <point x="84" y="693" type="line"/>
    </contour>
    <contour>
      <point x="156" y="204" type="line"/>
      <point x="156" y="509" type="line"/>
      <point x="172" y="512"/>
      <point x="195" y="514"/>
      <point x="210" y="514" type="curve" smooth="yes"/>
      <point x="312" y="514"/>
      <point x="363" y="463"/>
      <point x="363" y="358" type="curve" smooth="yes"/>
      <point x="363" y="254"/>
      <point x="313" y="204"/>
      <point x="210" y="204" type="curve" smooth="yes"/>
    </contour>
  </outline>
</glyph>
<glyph name="eth" format="2">
  <advance width="455.99"/>
  <unicode hex="00F0"/>
  <anchor x="228" y="0" name="bottom"/>
  <anchor x="228" y="776" name="top"/>
  <outline>
    <contour>
      <point x="225" y="-8" type="curve" smooth="yes"/>
      <point x="298" y="-8"/>
      <point x="401" y="44"/>
      <point x="401" y="291" type="curve" smooth="yes"/>
      <point x="401" y="425"/>
      <point x="373" y="540"/>
      <point x="320" y="637" type="curve"/>
      <point x="406" y="679" type="line"/>
      <point x="386" y="724" type="line"/>
      <point x="297" y="680" type="line"/>
      <point x="274" y="715"/>
      <point x="248" y="747"/>
      <point x="218" y="775" type="curve"/>
      <point x="164" y="743" type="line"/>
      <point x="195" y="714"/>
      <point x="219" y="685"/>
      <point x="242" y="652" type="curve"/>
      <point x="149" y="610" type="line"/>
      <point x="170" y="564" type="line"/>
      <point x="263" y="607" type="line"/>
      <point x="288" y="571"/>
      <point x="302" y="526"/>
      <point x="315" y="459" type="curve"/>
      <point x="288" y="479"/>
      <point x="256" y="485"/>
      <point x="233" y="485" type="curve" smooth="yes"/>
      <point x="120" y="485"/>
      <point x="50" y="393"/>
      <point x="50" y="229" type="curve" smooth="yes"/>
      <point x="50" y="72"/>
      <point x="113" y="-8"/>
    </contour>
    <contour>
      <point x="227" y="53" type="curve" smooth="yes"/>
      <point x="171" y="53"/>
      <point x="124" y="94"/>
      <point x="124" y="228" type="curve" smooth="yes"/>
      <point x="124" y="376"/>
      <point x="176" y="429"/>
      <point x="241" y="429" type="curve" smooth="yes"/>
      <point x="276" y="429"/>
      <point x="303" y="414"/>
      <point x="322" y="398" type="curve"/>
      <point x="326" y="369"/>
      <point x="328" y="342"/>
      <point x="328" y="291" type="curve" smooth="yes"/>
      <point x="328" y="88"/>
      <point x="261" y="53"/>
    </contour>
  </outline>
</glyph>
<glyph name="divide" format="2">
  <advance width="427.798"/>
  <unicode hex="00F7"/>
  <outline>
    <contour>
      <point x="44" y="271" type="line"/>
      <point x="384" y="271" type="line"/>
      <point x="384" y="329" type="line"/>
      <point x="44" y="329" type="line"/>
    </contour>
    <contour>
      <point x="214" y="105" type="curve" smooth="yes"/>
      <point x="239" y="105"/>
      <point x="260" y="124"/>
      <point x="260" y="150" type="curve" smooth="yes"/>
      <point x="260" y="178"/>
      <point x="239" y="198"/>
      <point x="214" y="198" type="curve" smooth="yes"/>
      <point x="187" y="198"/>
      <point x="168" y="178"/>
      <point x="168" y="150" type="curve" smooth="yes"/>
      <point x="168" y="124"/>
      <point x="187" y="105"/>
    </contour>
    <contour>
      <point x="214" y="403" type="curve" smooth="yes"/>
      <point x="239" y="403"/>
      <point x="260" y="422"/>
      <point x="260" y="449" type="curve" smooth="yes"/>
      <point x="260" y="477"/>
      <point x="239" y="496"/>
      <point x="214" y="496" type="curve" smooth="yes"/>
      <point x="187" y="496"/>
      <point x="168" y="477"/>
      <point x="168" y="449" type="curve" smooth="yes"/>
      <point x="168" y="422"/>
      <point x="187" y="403"/>
    </contour>
  </outline>
</glyph>
<glyph name="oslash" format="2">
  <advance width="455.876"/>
  <unicode hex="00F8"/>
  <anchor x="228" y="522" name="top"/>
  <outline>
    <contour>
      <point x="90" y="-30" type="line"/>
      <point x="124" y="30" type="line"/>
      <point x="152" y="3"/>
      <point x="187" y="-11"/>
      <point x="228" y="-11" type="curve" smooth="yes"/>
      <point x="341" y="-11"/>
      <point x="406" y="88"/>
      <point x="406" y="262" type="curve" smooth="yes"/>
      <point x="406" y="341"/>
      <point x="392" y="406"/>
      <point x="366" y="451" type="curve"/>
      <point x="410" y="527" type="line"/>
      <point x="366" y="554" type="line"/>
      <point x="331" y="494" type="line"/>
      <point x="304" y="521"/>
      <point x="269" y="535"/>
      <point x="228" y="535" type="curve" smooth="yes"/>
      <point x="115" y="535"/>
      <point x="50" y="435"/>
      <point x="50" y="262" type="curve" smooth="yes"/>
      <point x="50" y="182"/>
      <point x="64" y="118"/>
      <point x="89" y="73" type="curve"/>
      <point x="47" y="-2" type="line"/>
    </contour>
    <contour>
      <point x="228" y="46" type="curve" smooth="yes"/>
      <point x="197" y="46"/>
      <point x="172" y="60"/>
      <point x="154" y="88" type="curve"/>
      <point x="320" y="378" type="line"/>
      <point x="332" y="347"/>
      <point x="337" y="308"/>
      <point x="337" y="262" type="curve" smooth="yes"/>
      <point x="337" y="120"/>
      <point x="299" y="46"/>
    </contour>
    <contour>
      <point x="135" y="148" type="line"/>
      <point x="125" y="177"/>
      <point x="119" y="216"/>
      <point x="119" y="262" type="curve" smooth="yes"/>
      <point x="119" y="402"/>
      <point x="158" y="477"/>
      <point x="228" y="477" type="curve" smooth="yes"/>
      <point x="258" y="477"/>
      <point x="283" y="463"/>
      <point x="301" y="436" type="curve"/>
    </contour>
  </outline>
</glyph>
<glyph name="aogonek" format="2">
  <advance width="423.648"/>
  <unicode hex="0105"/>
  <outline>
    <contour>
      <point x="293" y="-194" type="curve" smooth="yes"/>
      <point x="312" y="-194"/>
      <point x="333" y="-191"/>
      <point x="351" y="-184" type="curve"/>
      <point x="346" y="-135" type="line"/>
      <point x="331" y="-140"/>
      <point x="319" y="-141"/>
      <point x="309" y="-141" type="curve" smooth="yes"/>
      <point x="282" y="-141"/>
      <point x="269" y="-126"/>
      <point x="269" y="-98" type="curve" smooth="yes"/>
      <point x="269" y="-65"/>
      <point x="297" y="-25"/>
      <point x="351" y="14" type="curve"/>
      <point x="351" y="367" type="line" smooth="yes"/>
      <point x="351" y="482"/>
      <point x="288" y="535"/>
      <point x="193" y="535" type="curve" smooth="yes"/>
      <point x="156" y="535"/>
      <point x="116" y="528"/>
      <point x="81" y="515" type="curve"/>
      <point x="92" y="458" type="line"/>
      <point x="123" y="469"/>
      <point x="155" y="474"/>
      <point x="184" y="474" type="curve" smooth="yes"/>
      <point x="247" y="474"/>
      <point x="283" y="442"/>
      <point x="283" y="364" type="curve" smooth="yes"/>
      <point x="283" y="301" type="line"/>
      <point x="256" y="307"/>
      <point x="229" y="311"/>
      <point x="203" y="311" type="curve" smooth="yes"/>
      <point x="102" y="311"/>
      <point x="42" y="254"/>
      <point x="42" y="153" type="curve" smooth="yes"/>
      <point x="42" y="51"/>
      <point x="102" y="-7"/>
      <point x="208" y="-7" type="curve" smooth="yes"/>
      <point x="228" y="-7"/>
      <point x="250" y="-6"/>
      <point x="272" y="-2" type="curve"/>
      <point x="231" y="-36"/>
      <point x="208" y="-75"/>
      <point x="208" y="-114" type="curve" smooth="yes"/>
      <point x="208" y="-163"/>
      <point x="241" y="-194"/>
    </contour>
    <contour>
      <point x="213" y="48" type="curve" smooth="yes"/>
      <point x="146" y="48"/>
      <point x="110" y="86"/>
      <point x="110" y="155" type="curve" smooth="yes"/>
      <point x="110" y="224"/>
      <point x="144" y="259"/>
      <point x="213" y="259" type="curve" smooth="yes"/>
      <point x="236" y="259"/>
      <point x="260" y="255"/>
      <point x="283" y="248" type="curve"/>
      <point x="283" y="57" type="line"/>
      <point x="260" y="51"/>
      <point x="235" y="48"/>
    </contour>
  </outline>
</glyph>
<glyph name="Eogonek" format="2">
  <advance width="445.814"/>
  <unicode hex="0118"/>
  <anchor x="223" y="693" name="top"/>
  <outline>
    <contour>
      <point x="348" y="-194" type="curve" smooth="yes"/>
      <point x="369" y="-194"/>
      <point x="390" y="-191"/>
      <point x="407" y="-184" type="curve"/>
      <point x="403" y="-135" type="line"/>
      <point x="387" y="-140"/>
      <point x="376" y="-141"/>
      <point x="365" y="-141" type="curve" smooth="yes"/>
      <point x="337" y="-141"/>
      <point x="325" y="-126"/>
      <point x="325" y="-98" type="curve" smooth="yes"/>
      <point x="325" y="-68"/>
      <point x="347" y="-36"/>
      <point x="397" y="0" type="curve"/>
      <point x="397" y="61" type="line"/>
      <point x="156" y="61" type="line"/>
      <point x="156" y="333" type="line"/>
      <point x="360" y="333" type="line"/>
      <point x="360" y="394" type="line"/>
      <point x="156" y="394" type="line"/>
      <point x="156" y="632" type="line"/>
      <point x="383" y="632" type="line"/>
      <point x="383" y="693" type="line"/>
      <point x="84" y="693" type="line"/>
      <point x="84" y="0" type="line"/>
      <point x="335" y="0" type="line"/>
      <point x="289" y="-35"/>
      <point x="264" y="-74"/>
      <point x="264" y="-114" type="curve" smooth="yes"/>
      <point x="264" y="-163"/>
      <point x="297" y="-194"/>
    </contour>
  </outline>
</glyph>
<glyph name="Hbar" format="2">
  <advance width="576.99"/>
  <unicode hex="0126"/>
  <outline>
    <contour>
      <point x="90" y="0" type="line"/>
      <point x="162" y="0" type="line"/>
      <point x="162" y="326" type="line"/>
      <point x="415" y="326" type="line"/>
      <point x="415" y="0" type="line"/>
      <point x="487" y="0" type="line"/>
      <point x="487" y="526" type="line"/>
      <point x="555" y="526" type="line"/>
      <point x="555" y="580" type="line"/>
      <point x="487" y="580" type="line"/>
      <point x="487" y="693" type="line"/>
      <point x="415" y="693" type="line"/>
      <point x="415" y="580" type="line"/>
      <point x="162" y="580" type="line"/>
      <point x="162" y="693" type="line"/>
      <point x="90" y="693" type="line"/>
      <point x="90" y="580" type="line"/>
      <point x="21" y="580" type="line"/>
      <point x="21" y="526" type="line"/>
      <point x="90" y="526" type="line"/>
    </contour>
    <contour>
      <point x="162" y="390" type="line"/>
      <point x="162" y="526" type="line"/>
      <point x="415" y="526" type="line"/>
      <point x="415" y="390" type="line"/>
    </contour>
  </outline>
</glyph>
<glyph name="hbar" format="2">
  <advance width="472.788"/>
  <unicode hex="0127"/>
  <outline>
    <contour>
      <point x="79" y="0" type="line"/>
      <point x="148" y="0" type="line"/>
      <point x="148" y="456" type="line"/>
      <point x="175" y="467"/>
      <point x="203" y="472"/>
      <point x="230" y="472" type="curve" smooth="yes"/>
      <point x="303" y="472"/>
      <point x="330" y="427"/>
      <point x="330" y="316" type="curve" smooth="yes"/>
      <point x="330" y="0" type="line"/>
      <point x="399" y="0" type="line"/>
      <point x="399" y="322" type="line" smooth="yes"/>
      <point x="399" y="458"/>
      <point x="349" y="532"/>
      <point x="244" y="532" type="curve" smooth="yes"/>
      <point x="209" y="532"/>
      <point x="177" y="525"/>
      <point x="148" y="515" type="curve"/>
      <point x="148" y="630" type="line"/>
      <point x="273" y="630" type="line"/>
      <point x="273" y="680" type="line"/>
      <point x="148" y="680" type="line"/>
      <point x="148" y="776" type="line"/>
      <point x="79" y="763" type="line"/>
      <point x="79" y="680" type="line"/>
      <point x="9" y="680" type="line"/>
      <point x="9" y="630" type="line"/>
      <point x="79" y="630" type="line"/>
    </contour>
  </outline>
</glyph>
<glyph name="Iogonek" format="2">
  <advance width="240.41"/>
  <unicode hex="012E"/>
  <outline>
    <contour>
      <point x="108" y="-194" type="curve" smooth="yes"/>
      <point x="128" y="-194"/>
      <point x="149" y="-191"/>
      <point x="167" y="-184" type="curve"/>
      <point x="162" y="-135" type="line"/>
      <point x="147" y="-140"/>
      <point x="135" y="-141"/>
      <point x="124" y="-141" type="curve" smooth="yes"/>
      <point x="97" y="-141"/>
      <point x="85" y="-126"/>
      <point x="85" y="-98" type="curve" smooth="yes"/>
      <point x="85" y="-67"/>
      <point x="107" y="-37"/>
      <point x="156" y="0" type="curve"/>
      <point x="156" y="693" type="line"/>
      <point x="84" y="693" type="line"/>
      <point x="84" y="0" type="line"/>
      <point x="95" y="0" type="line"/>
      <point x="50" y="-38"/>
      <point x="24" y="-73"/>
      <point x="24" y="-114" type="curve" smooth="yes"/>
      <point x="24" y="-163"/>
      <point x="57" y="-194"/>
    </contour>
  </outline>
</glyph>
<glyph name="dotlessi" format="2">
  <advance width="223.726"/>
  <unicode hex="0131"/>
  <anchor x="112" y="0" name="bottom"/>
  <anchor x="201" y="10" name="ogonek"/>
  <anchor x="112" y="522" name="top"/>
  <outline>
    <contour>
      <point x="78" y="0" type="line"/>
      <point x="147" y="0" type="line"/>
      <point x="147" y="522" type="line"/>
      <point x="78" y="522" type="line"/>
    </contour>
  </outline>
</glyph>
<glyph name="kgreenlandic" format="2">
  <advance width="397.752"/>
  <unicode hex="0138"/>
  <anchor x="199" y="0" name="bottom"/>
  <anchor x="199" y="522" name="top"/>
  <outline>
    <contour>
      <point x="78" y="0" type="line"/>
      <point x="147" y="0" type="line"/>
      <point x="147" y="252" type="line"/>
      <point x="218" y="182"/>
      <point x="278" y="89"/>
      <point x="318" y="0" type="curve"/>
      <point x="393" y="0" type="line"/>
      <point x="353" y="95"/>
      <point x="281" y="203"/>
      <point x="206" y="278" type="curve"/>
      <point x="267" y="355"/>
      <point x="325" y="434"/>
      <point x="376" y="522" type="curve"/>
      <point x="302" y="522" type="line"/>
      <point x="261" y="451"/>
      <point x="207" y="373"/>
      <point x="147" y="294" type="curve"/>
      <point x="147" y="522" type="line"/>
      <point x="78" y="522" type="line"/>
    </contour>
  </outline>
</glyph>
<glyph name="Lslash" format="2">
  <advance width="419.726"/>
  <unicode hex="0141"/>
  <outline>
    <contour>
      <point x="94" y="0" type="line"/>
      <point x="389" y="0" type="line"/>
      <point x="389" y="61" type="line"/>
      <point x="166" y="61" type="line"/>
      <point x="166" y="335" type="line"/>
      <point x="303" y="421" type="line"/>
      <point x="276" y="467" type="line"/>
      <point x="166" y="399" type="line"/>
      <point x="166" y="693" type="line"/>
      <point x="94" y="693" type="line"/>
      <point x="94" y="356" type="line"/>
      <point x="6" y="301" type="line"/>
      <point x="35" y="255" type="line"/>
      <point x="94" y="293" type="line"/>
    </contour>
  </outline>
</glyph>
<glyph name="Eng" format="2">
  <advance width="574.218"/>
  <unicode hex="014A"/>
  <anchor x="287" y="0" name="bottom"/>
  <anchor x="287" y="693" name="top"/>
  <outline>
    <contour>
      <point x="377" y="-187" type="curve" smooth="yes"/>
      <point x="479" y="-187"/>
      <point x="490" y="-113"/>
      <point x="490" y="-41" type="curve" smooth="yes"/>
      <point x="490" y="693" type="line"/>
      <point x="423" y="693" type="line"/>
      <point x="423" y="158" type="line"/>
      <point x="345" y="336"/>
      <point x="243" y="535"/>
      <point x="148" y="693" type="curve"/>
      <point x="84" y="693" type="line"/>
      <point x="84" y="0" type="line"/>
      <point x="152" y="0" type="line"/>
      <point x="152" y="566" type="line"/>
      <point x="245" y="404"/>
      <point x="343" y="206"/>
      <point x="422" y="17" type="curve"/>
      <point x="422" y="-44" type="line" smooth="yes"/>
      <point x="422" y="-100"/>
      <point x="416" y="-126"/>
      <point x="370" y="-126" type="curve" smooth="yes"/>
      <point x="358" y="-126"/>
      <point x="341" y="-124"/>
      <point x="330" y="-120" type="curve"/>
      <point x="320" y="-177" type="line"/>
      <point x="336" y="-184"/>
      <point x="359" y="-187"/>
    </contour>
  </outline>
</glyph>
<glyph name="oe" format="2">
  <advance width="709.886"/>
  <unicode hex="0153"/>
  <anchor x="356" y="0" name="bottom"/>
  <anchor x="356" y="521" name="top"/>
  <outline>
    <contour>
      <point x="228" y="-11" type="curve" smooth="yes"/>
      <point x="294" y="-11"/>
      <point x="342" y="28"/>
      <point x="369" y="101" type="curve"/>
      <point x="399" y="28"/>
      <point x="453" y="-11"/>
      <point x="528" y="-11" type="curve" smooth="yes"/>
      <point x="567" y="-11"/>
      <point x="605" y="-3"/>
      <point x="642" y="15" type="curve"/>
      <point x="632" y="69" type="line"/>
      <point x="606" y="57"/>
      <point x="571" y="50"/>
      <point x="538" y="50" type="curve" smooth="yes"/>
      <point x="446" y="50"/>
      <point x="403" y="122"/>
      <point x="402" y="242" type="curve"/>
      <point x="660" y="242" type="line"/>
      <point x="661" y="260"/>
      <point x="662" y="278"/>
      <point x="662" y="292" type="curve" smooth="yes"/>
      <point x="662" y="449"/>
      <point x="601" y="535"/>
      <point x="504" y="535" type="curve" smooth="yes"/>
      <point x="441" y="535"/>
      <point x="394" y="498"/>
      <point x="368" y="428" type="curve"/>
      <point x="341" y="498"/>
      <point x="292" y="535"/>
      <point x="228" y="535" type="curve" smooth="yes"/>
      <point x="115" y="535"/>
      <point x="50" y="435"/>
      <point x="50" y="262" type="curve" smooth="yes"/>
      <point x="50" y="88"/>
      <point x="115" y="-11"/>
    </contour>
    <contour>
      <point x="228" y="50" type="curve" smooth="yes"/>
      <point x="160" y="50"/>
      <point x="122" y="123"/>
      <point x="122" y="262" type="curve" smooth="yes"/>
      <point x="122" y="401"/>
      <point x="160" y="474"/>
      <point x="228" y="474" type="curve" smooth="yes"/>
      <point x="296" y="474"/>
      <point x="334" y="401"/>
      <point x="334" y="262" type="curve" smooth="yes"/>
      <point x="334" y="122"/>
      <point x="296" y="50"/>
    </contour>
    <contour>
      <point x="402" y="294" type="line"/>
      <point x="403" y="409"/>
      <point x="437" y="477"/>
      <point x="501" y="477" type="curve" smooth="yes"/>
      <point x="563" y="477"/>
      <point x="597" y="418"/>
      <point x="593" y="294" type="curve"/>
    </contour>
  </outline>
</glyph>
<glyph name="Scedilla" format="2">
  <advance width="390.244"/>
  <unicode hex="015E"/>
  <outline>
    <contour>
      <point x="163" y="-194" type="curve" smooth="yes"/>
      <point x="219" y="-194"/>
      <point x="259" y="-162"/>
      <point x="259" y="-114" type="curve" smooth="yes"/>
      <point x="259" y="-80"/>
      <point x="243" y="-55"/>
      <point x="203" y="-39" type="curve"/>
      <point x="207" y="-28"/>
      <point x="213" y="-16"/>
      <point x="218" y="-5" type="curve"/>
      <point x="306" y="16"/>
      <point x="357" y="89"/>
      <point x="357" y="186" type="curve" smooth="yes"/>
      <point x="357" y="281"/>
      <point x="302" y="335"/>
      <point x="227" y="385" type="curve" smooth="yes"/>
      <point x="157" y="432"/>
      <point x="113" y="463"/>
      <point x="113" y="532" type="curve" smooth="yes"/>
      <point x="113" y="603"/>
      <point x="158" y="642"/>
      <point x="226" y="642" type="curve" smooth="yes"/>
      <point x="260" y="642"/>
      <point x="296" y="633"/>
      <point x="328" y="615" type="curve"/>
      <point x="349" y="675" type="line"/>
      <point x="313" y="693"/>
      <point x="268" y="704"/>
      <point x="223" y="704" type="curve" smooth="yes"/>
      <point x="109" y="704"/>
      <point x="39" y="630"/>
      <point x="39" y="525" type="curve" smooth="yes"/>
      <point x="39" y="432"/>
      <point x="95" y="384"/>
      <point x="167" y="337" type="curve" smooth="yes"/>
      <point x="235" y="292"/>
      <point x="284" y="254"/>
      <point x="284" y="174" type="curve" smooth="yes"/>
      <point x="284" y="98"/>
      <point x="239" y="51"/>
      <point x="162" y="51" type="curve" smooth="yes"/>
      <point x="120" y="51"/>
      <point x="77" y="65"/>
      <point x="43" y="87" type="curve"/>
      <point x="22" y="25" type="line"/>
      <point x="63" y="3"/>
      <point x="114" y="-10"/>
      <point x="162" y="-11" type="curve"/>
      <point x="156" y="-26"/>
      <point x="148" y="-43"/>
      <point x="143" y="-59" type="curve"/>
      <point x="187" y="-70"/>
      <point x="203" y="-86"/>
      <point x="203" y="-110" type="curve" smooth="yes"/>
      <point x="203" y="-134"/>
      <point x="186" y="-146"/>
      <point x="158" y="-146" type="curve" smooth="yes"/>
      <point x="142" y="-146"/>
      <point x="122" y="-143"/>
      <point x="106" y="-138" type="curve"/>
      <point x="98" y="-184" type="line"/>
      <point x="119" y="-190"/>
      <point x="141" y="-194"/>
    </contour>
  </outline>
</glyph>
<glyph name="Tcedilla" format="2">
  <advance width="421.472"/>
  <unicode hex="0162"/>
  <outline>
    <contour>
      <point x="177" y="-194" type="curve" smooth="yes"/>
      <point x="235" y="-194"/>
      <point x="274" y="-162"/>
      <point x="274" y="-114" type="curve" smooth="yes"/>
      <point x="274" y="-80"/>
      <point x="257" y="-55"/>
      <point x="218" y="-39" type="curve"/>
      <point x="224" y="-27"/>
      <point x="232" y="-12"/>
      <point x="238" y="0" type="curve"/>
      <point x="246" y="0" type="line"/>
      <point x="246" y="631" type="line"/>
      <point x="403" y="631" type="line"/>
      <point x="403" y="693" type="line"/>
      <point x="19" y="693" type="line"/>
      <point x="19" y="631" type="line"/>
      <point x="174" y="631" type="line"/>
      <point x="174" y="0" type="line"/>
      <point x="186" y="0" type="line"/>
      <point x="177" y="-17"/>
      <point x="166" y="-39"/>
      <point x="157" y="-59" type="curve"/>
      <point x="201" y="-70"/>
      <point x="218" y="-86"/>
      <point x="218" y="-110" type="curve" smooth="yes"/>
      <point x="218" y="-134"/>
      <point x="201" y="-146"/>
      <point x="172" y="-146" type="curve" smooth="yes"/>
      <point x="157" y="-146"/>
      <point x="137" y="-143"/>
      <point x="121" y="-138" type="curve"/>
      <point x="113" y="-184" type="line"/>
      <point x="134" y="-190"/>
      <point x="156" y="-194"/>
    </contour>
  </outline>
</glyph>
<glyph name="tcedilla" format="2">
  <advance width="306.296"/>
  <unicode hex="0163"/>
  <outline>
    <contour>
      <point x="161" y="-194" type="curve" smooth="yes"/>
      <point x="218" y="-194"/>
      <point x="258" y="-162"/>
      <point x="258" y="-114" type="curve" smooth="yes"/>
      <point x="258" y="-80"/>
      <point x="241" y="-55"/>
      <point x="201" y="-39" type="curve"/>
      <point x="206" y="-29"/>
      <point x="211" y="-18"/>
      <point x="216" y="-6" type="curve"/>
      <point x="244" y="-5"/>
      <point x="273" y="0"/>
      <point x="295" y="11" type="curve"/>
      <point x="283" y="67" type="line"/>
      <point x="263" y="58"/>
      <point x="243" y="55"/>
      <point x="222" y="55" type="curve" smooth="yes"/>
      <point x="169" y="55"/>
      <point x="143" y="86"/>
      <point x="143" y="157" type="curve" smooth="yes"/>
      <point x="143" y="463" type="line"/>
      <point x="278" y="463" type="line"/>
      <point x="278" y="522" type="line"/>
      <point x="143" y="522" type="line"/>
      <point x="143" y="681" type="line"/>
      <point x="74" y="668" type="line"/>
      <point x="74" y="159" type="line" smooth="yes"/>
      <point x="74" y="62"/>
      <point x="109" y="14"/>
      <point x="166" y="-1" type="curve"/>
      <point x="158" y="-19"/>
      <point x="149" y="-40"/>
      <point x="141" y="-59" type="curve"/>
      <point x="185" y="-70"/>
      <point x="202" y="-86"/>
      <point x="202" y="-110" type="curve" smooth="yes"/>
      <point x="202" y="-134"/>
      <point x="185" y="-146"/>
      <point x="156" y="-146" type="curve" smooth="yes"/>
      <point x="140" y="-146"/>
      <point x="121" y="-143"/>
      <point x="105" y="-138" type="curve"/>
      <point x="97" y="-184" type="line"/>
      <point x="118" y="-190"/>
      <point x="139" y="-194"/>
    </contour>
  </outline>
</glyph>
<glyph name="Tbar" format="2">
  <advance width="421.472"/>
  <unicode hex="0166"/>
  <outline>
    <contour>
      <point x="174" y="0" type="line"/>
      <point x="246" y="0" type="line"/>
      <point x="246" y="321" type="line"/>
      <point x="330" y="321" type="line"/>
      <point x="330" y="377" type="line"/>
      <point x="246" y="377" type="line"/>
      <point x="246" y="631" type="line"/>
      <point x="403" y="631" type="line"/>
      <point x="403" y="693" type="line"/>
      <point x="19" y="693" type="line"/>
      <point x="19" y="631" type="line"/>
      <point x="174" y="631" type="line"/>
      <point x="174" y="377" type="line"/>
      <point x="91" y="377" type="line"/>
      <point x="91" y="321" type="line"/>
      <point x="174" y="321" type="line"/>
    </contour>
  </outline>
</glyph>
<glyph name="Uogonek" format="2">
  <advance width="537.218"/>
  <unicode hex="0172"/>
  <outline>
    <contour>
      <point x="323" y="-194" type="curve" smooth="yes"/>
      <point x="344" y="-194"/>
      <point x="364" y="-191"/>
      <point x="382" y="-184" type="curve"/>
      <point x="377" y="-135" type="line"/>
      <point x="362" y="-140"/>
      <point x="350" y="-141"/>
      <point x="340" y="-141" type="curve" smooth="yes"/>
      <point x="312" y="-141"/>
      <point x="300" y="-126"/>
      <point x="300" y="-96" type="curve" smooth="yes"/>
      <point x="300" y="-72"/>
      <point x="309" y="-47"/>
      <point x="331" y="-23" type="curve" smooth="yes"/>
      <point x="347" y="-7"/>
      <point x="364" y="6"/>
      <point x="381" y="17" type="curve" smooth="yes"/>
      <point x="431" y="53"/>
      <point x="460" y="110"/>
      <point x="460" y="211" type="curve" smooth="yes"/>
      <point x="460" y="693" type="line"/>
      <point x="388" y="693" type="line"/>
      <point x="388" y="214" type="line" smooth="yes"/>
      <point x="388" y="104"/>
      <point x="351" y="54"/>
      <point x="269" y="54" type="curve"/>
      <point x="187" y="54"/>
      <point x="149" y="104"/>
      <point x="149" y="214" type="curve" smooth="yes"/>
      <point x="149" y="693" type="line"/>
      <point x="77" y="693" type="line"/>
      <point x="77" y="211" type="line" smooth="yes"/>
      <point x="77" y="66"/>
      <point x="138" y="-8"/>
      <point x="263" y="-10" type="curve"/>
      <point x="273" y="-10"/>
      <point x="282" y="-10"/>
      <point x="291" y="-8" type="curve"/>
      <point x="256" y="-40"/>
      <point x="239" y="-77"/>
      <point x="239" y="-114" type="curve" smooth="yes"/>
      <point x="239" y="-163"/>
      <point x="272" y="-194"/>
    </contour>
  </outline>
</glyph>
<glyph name="longs" format="2">
  <advance width="224.55"/>
  <unicode hex="017F"/>
  <anchor x="112" y="0" name="bottom"/>
  <anchor x="112" y="522" name="top"/>
  <outline>
    <contour>
      <point x="78" y="0" type="line"/>
      <point x="147" y="0" type="line"/>
      <point x="147" y="614" type="line" smooth="yes"/>
      <point x="147" y="684"/>
      <point x="172" y="716"/>
      <point x="226" y="716" type="curve" smooth="yes"/>
      <point x="238" y="716"/>
      <point x="253" y="713"/>
      <point x="264" y="710" type="curve"/>
      <point x="277" y="768" type="line"/>
      <point x="262" y="772"/>
      <point x="240" y="776"/>
      <point x="218" y="776" type="curve" smooth="yes"/>
      <point x="127" y="776"/>
      <point x="78" y="722"/>
      <point x="78" y="611" type="curve" smooth="yes"/>
    </contour>
  </outline>
</glyph>
<glyph name="uni0180" format="2">
  <advance width="456.244"/>
  <unicode hex="0180"/>
  <outline>
    <contour>
      <point x="213" y="-10" type="curve" smooth="yes"/>
      <point x="351" y="-10"/>
      <point x="406" y="93"/>
      <point x="406" y="259" type="curve" smooth="yes"/>
      <point x="406" y="450"/>
      <point x="334" y="526"/>
      <point x="230" y="526" type="curve" smooth="yes"/>
      <point x="196" y="526"/>
      <point x="166" y="516"/>
      <point x="147" y="504" type="curve"/>
      <point x="147" y="629" type="line"/>
      <point x="272" y="629" type="line"/>
      <point x="272" y="679" type="line"/>
      <point x="147" y="679" type="line"/>
      <point x="147" y="776" type="line"/>
      <point x="78" y="763" type="line"/>
      <point x="78" y="679" type="line"/>
      <point x="5" y="679" type="line"/>
      <point x="5" y="629" type="line"/>
      <point x="78" y="629" type="line"/>
      <point x="78" y="15" type="line"/>
      <point x="122" y="-1"/>
      <point x="163" y="-10"/>
    </contour>
    <contour>
      <point x="212" y="50" type="curve" smooth="yes"/>
      <point x="186" y="50"/>
      <point x="163" y="56"/>
      <point x="147" y="63" type="curve"/>
      <point x="147" y="443" type="line"/>
      <point x="163" y="457"/>
      <point x="191" y="466"/>
      <point x="221" y="466" type="curve" smooth="yes"/>
      <point x="273" y="466"/>
      <point x="334" y="436"/>
      <point x="334" y="259" type="curve" smooth="yes"/>
      <point x="334" y="96"/>
      <point x="289" y="50"/>
    </contour>
  </outline>
</glyph>
<glyph name="uni0181" format="2">
  <advance width="569.146"/>
  <unicode hex="0181"/>
  <outline>
    <contour>
      <point x="284" y="-5" type="curve" smooth="yes"/>
      <point x="437" y="-5"/>
      <point x="518" y="61"/>
      <point x="518" y="187" type="curve" smooth="yes"/>
      <point x="518" y="271"/>
      <point x="469" y="338"/>
      <point x="386" y="363" type="curve"/>
      <point x="456" y="387"/>
      <point x="496" y="446"/>
      <point x="496" y="524" type="curve" smooth="yes"/>
      <point x="496" y="639"/>
      <point x="418" y="699"/>
      <point x="262" y="699" type="curve" smooth="yes"/>
      <point x="68" y="699"/>
      <point x="4" y="633"/>
      <point x="4" y="543" type="curve" smooth="yes"/>
      <point x="4" y="525"/>
      <point x="7" y="503"/>
      <point x="11" y="488" type="curve"/>
      <point x="68" y="496" type="line"/>
      <point x="65" y="509"/>
      <point x="63" y="524"/>
      <point x="63" y="539" type="curve" smooth="yes"/>
      <point x="63" y="582"/>
      <point x="87" y="612"/>
      <point x="139" y="627" type="curve"/>
      <point x="139" y="11" type="line"/>
      <point x="185" y="0"/>
      <point x="237" y="-5"/>
    </contour>
    <contour>
      <point x="286" y="56" type="curve" smooth="yes"/>
      <point x="262" y="56"/>
      <point x="231" y="59"/>
      <point x="211" y="63" type="curve"/>
      <point x="211" y="330" type="line"/>
      <point x="290" y="330" type="line" smooth="yes"/>
      <point x="385" y="330"/>
      <point x="442" y="275"/>
      <point x="442" y="187" type="curve" smooth="yes"/>
      <point x="442" y="98"/>
      <point x="392" y="56"/>
    </contour>
    <contour>
      <point x="211" y="389" type="line"/>
      <point x="211" y="634" type="line"/>
      <point x="230" y="637"/>
      <point x="251" y="639"/>
      <point x="276" y="639" type="curve"/>
      <point x="379" y="639"/>
      <point x="420" y="604"/>
      <point x="420" y="517" type="curve" smooth="yes"/>
      <point x="420" y="434"/>
      <point x="372" y="389"/>
      <point x="283" y="389" type="curve" smooth="yes"/>
    </contour>
  </outline>
</glyph>
<glyph name="Btopbar" format="2">
  <advance width="495.902"/>
  <unicode hex="0182"/>
  <outline>
    <contour>
      <point x="214" y="-5" type="curve" smooth="yes"/>
      <point x="365" y="-5"/>
      <point x="454" y="70"/>
      <point x="454" y="210" type="curve" smooth="yes"/>
      <point x="454" y="369"/>
      <point x="361" y="426"/>
      <point x="218" y="426" type="curve" smooth="yes"/>
      <point x="156" y="426" type="line"/>
      <point x="156" y="631" type="line"/>
      <point x="391" y="631" type="line"/>
      <point x="391" y="693" type="line"/>
      <point x="84" y="693" type="line"/>
      <point x="84" y="12" type="line"/>
      <point x="121" y="2"/>
      <point x="172" y="-5"/>
    </contour>
    <contour>
      <point x="216" y="59" type="curve" smooth="yes"/>
      <point x="199" y="59"/>
      <point x="176" y="61"/>
      <point x="156" y="65" type="curve"/>
      <point x="156" y="363" type="line"/>
      <point x="223" y="363" type="line" smooth="yes"/>
      <point x="331" y="363"/>
      <point x="379" y="314"/>
      <point x="379" y="211" type="curve" smooth="yes"/>
      <point x="379" y="107"/>
      <point x="325" y="59"/>
    </contour>
  </outline>
</glyph>
<glyph name="btopbar" format="2">
  <advance width="457.13"/>
  <unicode hex="0183"/>
  <outline>
    <contour>
      <point x="214" y="-10" type="curve" smooth="yes"/>
      <point x="352" y="-10"/>
      <point x="407" y="95"/>
      <point x="407" y="262" type="curve" smooth="yes"/>
      <point x="407" y="455"/>
      <point x="335" y="533"/>
      <point x="231" y="533" type="curve" smooth="yes"/>
      <point x="197" y="533"/>
      <point x="166" y="523"/>
      <point x="148" y="511" type="curve"/>
      <point x="148" y="715" type="line"/>
      <point x="344" y="715" type="line"/>
      <point x="344" y="774" type="line"/>
      <point x="79" y="774" type="line"/>
      <point x="79" y="15" type="line"/>
      <point x="124" y="-1"/>
      <point x="164" y="-10"/>
    </contour>
    <contour>
      <point x="213" y="50" type="curve" smooth="yes"/>
      <point x="187" y="50"/>
      <point x="164" y="56"/>
      <point x="148" y="63" type="curve"/>
      <point x="148" y="451" type="line"/>
      <point x="164" y="464"/>
      <point x="192" y="473"/>
      <point x="222" y="473" type="curve" smooth="yes"/>
      <point x="274" y="473"/>
      <point x="336" y="442"/>
      <point x="336" y="262" type="curve" smooth="yes"/>
      <point x="336" y="98"/>
      <point x="291" y="50"/>
    </contour>
  </outline>
</glyph>
<glyph name="Tonesix" format="2">
  <advance width="458.902"/>
  <unicode hex="0184"/>
  <outline>
    <contour>
      <point x="216" y="-10" type="curve"/>
      <point x="353" y="-10"/>
      <point x="409" y="95"/>
      <point x="409" y="262" type="curve" smooth="yes"/>
      <point x="409" y="455"/>
      <point x="335" y="533"/>
      <point x="233" y="533" type="curve" smooth="yes"/>
      <point x="199" y="533"/>
      <point x="168" y="523"/>
      <point x="149" y="511" type="curve"/>
      <point x="149" y="776" type="line"/>
      <point x="104" y="763"/>
      <point x="67" y="744"/>
      <point x="28" y="719" type="curve"/>
      <point x="80" y="644" type="line"/>
      <point x="80" y="15" type="line"/>
      <point x="125" y="-1"/>
      <point x="166" y="-10"/>
    </contour>
    <contour>
      <point x="215" y="50" type="curve"/>
      <point x="189" y="50"/>
      <point x="165" y="56"/>
      <point x="149" y="63" type="curve"/>
      <point x="149" y="451" type="line"/>
      <point x="165" y="464"/>
      <point x="194" y="473"/>
      <point x="223" y="473" type="curve" smooth="yes"/>
      <point x="276" y="473"/>
      <point x="337" y="442"/>
      <point x="337" y="262" type="curve" smooth="yes"/>
      <point x="337" y="98"/>
      <point x="292" y="50"/>
    </contour>
  </outline>
</glyph>
<glyph name="tonesix" format="2">
  <advance width="481.56"/>
  <unicode hex="0185"/>
  <outline>
    <contour>
      <point x="222" y="-5" type="curve" smooth="yes"/>
      <point x="371" y="-5"/>
      <point x="449" y="70"/>
      <point x="449" y="212" type="curve" smooth="yes"/>
      <point x="449" y="338"/>
      <point x="391" y="430"/>
      <point x="229" y="430" type="curve" smooth="yes"/>
      <point x="205" y="430"/>
      <point x="179" y="429"/>
      <point x="155" y="426" type="curve"/>
      <point x="155" y="698" type="line"/>
      <point x="115" y="688"/>
      <point x="70" y="665"/>
      <point x="32" y="641" type="curve"/>
      <point x="84" y="565" type="line"/>
      <point x="84" y="11" type="line"/>
      <point x="129" y="0"/>
      <point x="176" y="-5"/>
    </contour>
    <contour>
      <point x="220" y="58" type="curve" smooth="yes"/>
      <point x="200" y="58"/>
      <point x="173" y="60"/>
      <point x="155" y="64" type="curve"/>
      <point x="155" y="364" type="line"/>
      <point x="177" y="367"/>
      <point x="200" y="368"/>
      <point x="223" y="368" type="curve"/>
      <point x="343" y="368"/>
      <point x="375" y="307"/>
      <point x="375" y="209" type="curve" smooth="yes"/>
      <point x="375" y="103"/>
      <point x="326" y="58"/>
    </contour>
  </outline>
</glyph>
<glyph name="Oopen" format="2">
  <advance width="456.876"/>
  <unicode hex="0186"/>
  <unicode hex="0254"/>
  <anchor x="231" y="0" name="bottom"/>
  <anchor x="231" y="693" name="top"/>
  <outline>
    <contour>
      <point x="160" y="-10" type="curve" smooth="yes"/>
      <point x="316" y="-10"/>
      <point x="400" y="115"/>
      <point x="400" y="341" type="curve" smooth="yes"/>
      <point x="400" y="578"/>
      <point x="319" y="703"/>
      <point x="161" y="703" type="curve" smooth="yes"/>
      <point x="110" y="703"/>
      <point x="66" y="691"/>
      <point x="29" y="672" type="curve"/>
      <point x="49" y="613" type="line"/>
      <point x="78" y="628"/>
      <point x="115" y="641"/>
      <point x="155" y="641" type="curve" smooth="yes"/>
      <point x="270" y="641"/>
      <point x="323" y="546"/>
      <point x="323" y="341" type="curve" smooth="yes"/>
      <point x="323" y="150"/>
      <point x="270" y="52"/>
      <point x="158" y="52" type="curve" smooth="yes"/>
      <point x="119" y="52"/>
      <point x="83" y="63"/>
      <point x="47" y="82" type="curve"/>
      <point x="27" y="21" type="line"/>
      <point x="63" y="1"/>
      <point x="111" y="-10"/>
    </contour>
  </outline>
</glyph>
<glyph name="uni0186" format="2">
  <advance width="456.876"/>
  <unicode hex="0186"/>
  <anchor x="231" y="0" name="bottom"/>
  <anchor x="231" y="693" name="top"/>
  <outline>
    <contour>
      <point x="160" y="-10" type="curve" smooth="yes"/>
      <point x="316" y="-10"/>
      <point x="400" y="115"/>
      <point x="400" y="341" type="curve" smooth="yes"/>
      <point x="400" y="578"/>
      <point x="319" y="703"/>
      <point x="161" y="703" type="curve" smooth="yes"/>
      <point x="110" y="703"/>
      <point x="66" y="691"/>
      <point x="29" y="672" type="curve"/>
      <point x="49" y="613" type="line"/>
      <point x="78" y="628"/>
      <point x="115" y="641"/>
      <point x="155" y="641" type="curve" smooth="yes"/>
      <point x="270" y="641"/>
      <point x="323" y="546"/>
      <point x="323" y="341" type="curve" smooth="yes"/>
      <point x="323" y="150"/>
      <point x="270" y="52"/>
      <point x="158" y="52" type="curve" smooth="yes"/>
      <point x="119" y="52"/>
      <point x="83" y="63"/>
      <point x="47" y="82" type="curve"/>
      <point x="27" y="21" type="line"/>
      <point x="63" y="1"/>
      <point x="111" y="-10"/>
    </contour>
  </outline>
</glyph>
<glyph name="uni0187" format="2">
  <advance width="488.27"/>
  <unicode hex="0187"/>
  <anchor x="244" y="0" name="bottom"/>
  <anchor x="244" y="693" name="top"/>
  <outline>
    <contour>
      <point x="305" y="-10" type="curve" smooth="yes"/>
      <point x="358" y="-10"/>
      <point x="407" y="1"/>
      <point x="444" y="24" type="curve"/>
      <point x="425" y="82" type="line"/>
      <point x="388" y="63"/>
      <point x="353" y="52"/>
      <point x="313" y="52" type="curve" smooth="yes"/>
      <point x="192" y="52"/>
      <point x="133" y="151"/>
      <point x="133" y="343" type="curve" smooth="yes"/>
      <point x="133" y="547"/>
      <point x="185" y="641"/>
      <point x="301" y="641" type="curve"/>
      <point x="344" y="641"/>
      <point x="383" y="630"/>
      <point x="413" y="612" type="curve"/>
      <point x="423" y="648" type="line" smooth="yes"/>
      <point x="439" y="708"/>
      <point x="459" y="723"/>
      <point x="493" y="723" type="curve" smooth="yes"/>
      <point x="506" y="723"/>
      <point x="520" y="719"/>
      <point x="532" y="713" type="curve"/>
      <point x="544" y="772" type="line"/>
      <point x="528" y="778"/>
      <point x="511" y="782"/>
      <point x="490" y="782" type="curve" smooth="yes"/>
      <point x="438" y="782"/>
      <point x="408" y="755"/>
      <point x="387" y="693" type="curve"/>
      <point x="363" y="701"/>
      <point x="333" y="703"/>
      <point x="301" y="703" type="curve"/>
      <point x="140" y="703"/>
      <point x="58" y="579"/>
      <point x="58" y="343" type="curve" smooth="yes"/>
      <point x="58" y="116"/>
      <point x="147" y="-10"/>
    </contour>
  </outline>
</glyph>
<glyph name="chook" format="2">
  <advance width="401.218"/>
  <unicode hex="0188"/>
  <anchor x="201" y="0" name="bottom"/>
  <anchor x="201" y="522" name="top"/>
  <outline>
    <contour>
      <point x="234" y="-10" type="curve" smooth="yes"/>
      <point x="272" y="-10"/>
      <point x="305" y="-4"/>
      <point x="333" y="11" type="curve"/>
      <point x="322" y="67" type="line"/>
      <point x="298" y="55"/>
      <point x="274" y="51"/>
      <point x="248" y="51" type="curve" smooth="yes"/>
      <point x="171" y="51"/>
      <point x="122" y="120"/>
      <point x="122" y="260" type="curve" smooth="yes"/>
      <point x="122" y="407"/>
      <point x="164" y="473"/>
      <point x="242" y="473" type="curve" smooth="yes"/>
      <point x="267" y="473"/>
      <point x="293" y="467"/>
      <point x="315" y="457" type="curve"/>
      <point x="324" y="499" type="line" smooth="yes"/>
      <point x="335" y="546"/>
      <point x="354" y="566"/>
      <point x="381" y="566" type="curve" smooth="yes"/>
      <point x="392" y="566"/>
      <point x="404" y="563"/>
      <point x="417" y="557" type="curve"/>
      <point x="431" y="611" type="line"/>
      <point x="418" y="616"/>
      <point x="400" y="622"/>
      <point x="379" y="622" type="curve" smooth="yes"/>
      <point x="332" y="622"/>
      <point x="300" y="595"/>
      <point x="280" y="530" type="curve"/>
      <point x="267" y="533"/>
      <point x="252" y="535"/>
      <point x="234" y="535" type="curve" smooth="yes"/>
      <point x="117" y="535"/>
      <point x="50" y="436"/>
      <point x="50" y="260" type="curve" smooth="yes"/>
      <point x="50" y="88"/>
      <point x="116" y="-10"/>
    </contour>
  </outline>
</glyph>
<glyph name="Dhook" format="2">
  <advance width="621.576"/>
  <unicode hex="018A"/>
  <unicode hex="0257"/>
  <anchor x="311" y="0" name="bottom"/>
  <anchor x="311" y="693" name="top"/>
  <outline>
    <contour>
      <point x="291" y="-6" type="curve" smooth="yes"/>
      <point x="469" y="-6"/>
      <point x="565" y="115"/>
      <point x="565" y="347" type="curve" smooth="yes"/>
      <point x="565" y="581"/>
      <point x="478" y="699"/>
      <point x="277" y="699" type="curve"/>
      <point x="74" y="699"/>
      <point x="4" y="633"/>
      <point x="4" y="543" type="curve" smooth="yes"/>
      <point x="4" y="525"/>
      <point x="7" y="503"/>
      <point x="11" y="488" type="curve"/>
      <point x="68" y="496" type="line"/>
      <point x="65" y="509"/>
      <point x="63" y="524"/>
      <point x="63" y="539" type="curve" smooth="yes"/>
      <point x="63" y="582"/>
      <point x="87" y="612"/>
      <point x="139" y="627" type="curve"/>
      <point x="139" y="7" type="line"/>
      <point x="191" y="-3"/>
      <point x="240" y="-6"/>
    </contour>
    <contour>
      <point x="294" y="57" type="curve" smooth="yes"/>
      <point x="261" y="57"/>
      <point x="236" y="58"/>
      <point x="211" y="63" type="curve"/>
      <point x="211" y="630" type="line"/>
      <point x="233" y="636"/>
      <point x="261" y="636"/>
      <point x="291" y="636" type="curve"/>
      <point x="426" y="636"/>
      <point x="488" y="547"/>
      <point x="488" y="347" type="curve" smooth="yes"/>
      <point x="488" y="148"/>
      <point x="427" y="57"/>
    </contour>
  </outline>
</glyph>
<glyph name="Dtopbar" format="2">
  <advance width="495.902"/>
  <unicode hex="018B"/>
  <anchor x="248" y="0" name="bottom"/>
  <anchor x="248" y="693" name="top"/>
  <outline>
    <contour>
      <point x="282" y="-5" type="curve" smooth="yes"/>
      <point x="324" y="-5"/>
      <point x="375" y="2"/>
      <point x="412" y="12" type="curve"/>
      <point x="412" y="693" type="line"/>
      <point x="105" y="693" type="line"/>
      <point x="105" y="631" type="line"/>
      <point x="340" y="631" type="line"/>
      <point x="340" y="426" type="line"/>
      <point x="279" y="426" type="line" smooth="yes"/>
      <point x="135" y="426"/>
      <point x="43" y="369"/>
      <point x="43" y="210" type="curve" smooth="yes"/>
      <point x="43" y="70"/>
      <point x="131" y="-5"/>
    </contour>
    <contour>
      <point x="281" y="59" type="curve" smooth="yes"/>
      <point x="172" y="59"/>
      <point x="118" y="107"/>
      <point x="118" y="211" type="curve" smooth="yes"/>
      <point x="118" y="314"/>
      <point x="166" y="363"/>
      <point x="274" y="363" type="curve" smooth="yes"/>
      <point x="340" y="363" type="line"/>
      <point x="340" y="65" type="line"/>
      <point x="321" y="61"/>
      <point x="298" y="59"/>
    </contour>
  </outline>
</glyph>
<glyph name="uni018C" format="2">
  <advance width="454.56"/>
  <unicode hex="018C"/>
  <anchor x="227" y="0" name="bottom"/>
  <anchor x="227" y="522" name="top"/>
  <outline>
    <contour>
      <point x="240" y="-10" type="curve" smooth="yes"/>
      <point x="291" y="-10"/>
      <point x="331" y="-1"/>
      <point x="376" y="15" type="curve"/>
      <point x="376" y="774" type="line"/>
      <point x="111" y="774" type="line"/>
      <point x="111" y="715" type="line"/>
      <point x="307" y="715" type="line"/>
      <point x="307" y="511" type="line"/>
      <point x="288" y="523"/>
      <point x="257" y="533"/>
      <point x="224" y="533" type="curve" smooth="yes"/>
      <point x="120" y="533"/>
      <point x="48" y="455"/>
      <point x="48" y="262" type="curve" smooth="yes"/>
      <point x="48" y="95"/>
      <point x="103" y="-10"/>
    </contour>
    <contour>
      <point x="242" y="50" type="curve" smooth="yes"/>
      <point x="164" y="50"/>
      <point x="120" y="98"/>
      <point x="120" y="262" type="curve" smooth="yes"/>
      <point x="120" y="442"/>
      <point x="181" y="473"/>
      <point x="233" y="473" type="curve" smooth="yes"/>
      <point x="263" y="473"/>
      <point x="291" y="464"/>
      <point x="307" y="451" type="curve"/>
      <point x="307" y="63" type="line"/>
      <point x="291" y="56"/>
      <point x="268" y="50"/>
    </contour>
  </outline>
</glyph>
<glyph name="deltaturned" format="2">
  <advance width="445.306"/>
  <unicode hex="018D"/>
  <outline>
    <contour>
      <point x="204" y="-186" type="curve" smooth="yes"/>
      <point x="304" y="-186"/>
      <point x="361" y="-144"/>
      <point x="361" y="-71" type="curve" smooth="yes"/>
      <point x="361" y="-8"/>
      <point x="324" y="18"/>
      <point x="278" y="48" type="curve"/>
      <point x="362" y="99"/>
      <point x="402" y="191"/>
      <point x="402" y="296" type="curve" smooth="yes"/>
      <point x="402" y="437"/>
      <point x="334" y="534"/>
      <point x="224" y="534" type="curve" smooth="yes"/>
      <point x="115" y="533"/>
      <point x="45" y="439"/>
      <point x="45" y="296" type="curve" smooth="yes"/>
      <point x="45" y="131"/>
      <point x="129" y="68"/>
      <point x="204" y="24" type="curve" smooth="yes"/>
      <point x="258" y="-8"/>
      <point x="293" y="-27"/>
      <point x="293" y="-69" type="curve" smooth="yes"/>
      <point x="293" y="-110"/>
      <point x="257" y="-128"/>
      <point x="203" y="-128" type="curve" smooth="yes"/>
      <point x="166" y="-128"/>
      <point x="132" y="-119"/>
      <point x="99" y="-107" type="curve"/>
      <point x="86" y="-164" type="line"/>
      <point x="116" y="-176"/>
      <point x="159" y="-186"/>
    </contour>
    <contour>
      <point x="227" y="81" type="curve"/>
      <point x="166" y="121"/>
      <point x="115" y="173"/>
      <point x="115" y="296" type="curve" smooth="yes"/>
      <point x="115" y="412"/>
      <point x="156" y="473"/>
      <point x="224" y="473" type="curve" smooth="yes"/>
      <point x="291" y="473"/>
      <point x="331" y="407"/>
      <point x="331" y="296" type="curve" smooth="yes"/>
      <point x="331" y="202"/>
      <point x="297" y="121"/>
    </contour>
  </outline>
</glyph>
<glyph name="Ereversed" format="2">
  <advance width="445.814"/>
  <unicode hex="018E"/>
  <anchor x="223" y="0" name="bottom"/>
  <anchor x="223" y="693" name="top"/>
  <outline>
    <contour>
      <point x="48" y="0" type="line"/>
      <point x="361" y="0" type="line"/>
      <point x="361" y="693" type="line"/>
      <point x="63" y="693" type="line"/>
      <point x="63" y="632" type="line"/>
      <point x="290" y="632" type="line"/>
      <point x="290" y="394" type="line"/>
      <point x="85" y="394" type="line"/>
      <point x="85" y="333" type="line"/>
      <point x="290" y="333" type="line"/>
      <point x="290" y="61" type="line"/>
      <point x="48" y="61" type="line"/>
    </contour>
  </outline>
</glyph>
<glyph name="uni018F" format="2">
  <advance width="531.244"/>
  <unicode hex="018F"/>
  <anchor x="266" y="0" name="bottom"/>
  <anchor x="266" y="693" name="top"/>
  <outline>
    <contour>
      <point x="258" y="-11" type="curve" smooth="yes"/>
      <point x="391" y="-11"/>
      <point x="473" y="119"/>
      <point x="473" y="344" type="curve" smooth="yes"/>
      <point x="473" y="561"/>
      <point x="395" y="704"/>
      <point x="230" y="704" type="curve" smooth="yes"/>
      <point x="178" y="704"/>
      <point x="126" y="691"/>
      <point x="80" y="667" type="curve"/>
      <point x="96" y="608" type="line"/>
      <point x="133" y="629"/>
      <point x="178" y="641"/>
      <point x="222" y="641" type="curve" smooth="yes"/>
      <point x="340" y="641"/>
      <point x="394" y="546"/>
      <point x="398" y="366" type="curve"/>
      <point x="58" y="366" type="line"/>
      <point x="56" y="342"/>
      <point x="55" y="315"/>
      <point x="55" y="299" type="curve" smooth="yes"/>
      <point x="55" y="97"/>
      <point x="130" y="-11"/>
    </contour>
    <contour>
      <point x="257" y="51" type="curve" smooth="yes"/>
      <point x="174" y="51"/>
      <point x="125" y="134"/>
      <point x="129" y="305" type="curve"/>
      <point x="397" y="305" type="line"/>
      <point x="394" y="148"/>
      <point x="344" y="51"/>
    </contour>
  </outline>
</glyph>
<glyph name="Eopen" format="2">
  <advance width="433.016"/>
  <unicode hex="0190"/>
  <unicode hex="025B"/>
  <anchor x="217" y="0" name="bottom"/>
  <anchor x="217" y="693" name="top"/>
  <outline>
    <contour>
      <point x="252" y="-11" type="curve" smooth="yes"/>
      <point x="305" y="-11"/>
      <point x="357" y="1"/>
      <point x="403" y="23" type="curve"/>
      <point x="384" y="80" type="line"/>
      <point x="343" y="60"/>
      <point x="303" y="52"/>
      <point x="258" y="52" type="curve" smooth="yes"/>
      <point x="187" y="52"/>
      <point x="123" y="91"/>
      <point x="123" y="186" type="curve"/>
      <point x="123" y="282"/>
      <point x="178" y="338"/>
      <point x="275" y="338" type="curve" smooth="yes"/>
      <point x="336" y="338" type="line"/>
      <point x="336" y="398" type="line"/>
      <point x="277" y="398" type="line" smooth="yes"/>
      <point x="175" y="398"/>
      <point x="145" y="462"/>
      <point x="145" y="531" type="curve" smooth="yes"/>
      <point x="145" y="598"/>
      <point x="191" y="643"/>
      <point x="255" y="643" type="curve" smooth="yes"/>
      <point x="295" y="643"/>
      <point x="337" y="631"/>
      <point x="369" y="609" type="curve"/>
      <point x="391" y="665" type="line"/>
      <point x="352" y="693"/>
      <point x="300" y="704"/>
      <point x="248" y="704" type="curve" smooth="yes"/>
      <point x="146" y="704"/>
      <point x="72" y="637"/>
      <point x="72" y="534" type="curve" smooth="yes"/>
      <point x="72" y="460"/>
      <point x="105" y="398"/>
      <point x="171" y="371" type="curve"/>
      <point x="92" y="341"/>
      <point x="50" y="279"/>
      <point x="50" y="185" type="curve" smooth="yes"/>
      <point x="50" y="60"/>
      <point x="128" y="-11"/>
    </contour>
  </outline>
</glyph>
<glyph name="uni0191" format="2">
  <advance width="411.13"/>
  <unicode hex="0191"/>
  <outline>
    <contour>
      <point x="39" y="-189" type="curve" smooth="yes"/>
      <point x="119" y="-189"/>
      <point x="156" y="-135"/>
      <point x="156" y="-45" type="curve" smooth="yes"/>
      <point x="156" y="330" type="line"/>
      <point x="355" y="330" type="line"/>
      <point x="355" y="390" type="line"/>
      <point x="156" y="390" type="line"/>
      <point x="156" y="632" type="line"/>
      <point x="377" y="632" type="line"/>
      <point x="377" y="693" type="line"/>
      <point x="84" y="693" type="line"/>
      <point x="84" y="-51" type="line" smooth="yes"/>
      <point x="84" y="-104"/>
      <point x="70" y="-126"/>
      <point x="34" y="-126" type="curve" smooth="yes"/>
      <point x="20" y="-126"/>
      <point x="6" y="-124"/>
      <point x="-5" y="-121" type="curve"/>
      <point x="-16" y="-180" type="line"/>
      <point x="-1" y="-186"/>
      <point x="18" y="-189"/>
    </contour>
  </outline>
</glyph>
<glyph name="florin" format="2">
  <advance width="329.14"/>
  <unicode hex="0192"/>
  <outline>
    <contour>
      <point x="39" y="-189" type="curve" smooth="yes"/>
      <point x="123" y="-189"/>
      <point x="159" y="-142"/>
      <point x="159" y="-42" type="curve" smooth="yes"/>
      <point x="159" y="463" type="line"/>
      <point x="296" y="463" type="line"/>
      <point x="296" y="522" type="line"/>
      <point x="159" y="522" type="line"/>
      <point x="159" y="607" type="line" smooth="yes"/>
      <point x="159" y="682"/>
      <point x="187" y="716"/>
      <point x="246" y="716" type="curve" smooth="yes"/>
      <point x="266" y="716"/>
      <point x="287" y="711"/>
      <point x="305" y="702" type="curve"/>
      <point x="322" y="758" type="line"/>
      <point x="302" y="768"/>
      <point x="269" y="776"/>
      <point x="239" y="776" type="curve" smooth="yes"/>
      <point x="143" y="776"/>
      <point x="88" y="715"/>
      <point x="88" y="604" type="curve" smooth="yes"/>
      <point x="88" y="-42" type="line" smooth="yes"/>
      <point x="88" y="-105"/>
      <point x="75" y="-127"/>
      <point x="34" y="-127" type="curve" smooth="yes"/>
      <point x="19" y="-127"/>
      <point x="4" y="-124"/>
      <point x="-10" y="-120" type="curve"/>
      <point x="-20" y="-179" type="line"/>
      <point x="-2" y="-185"/>
      <point x="21" y="-189"/>
    </contour>
  </outline>
</glyph>
<glyph name="Gamma-latin" format="2">
  <advance width="470.358"/>
  <unicode hex="0194"/>
  <unicode hex="0263"/>
  <anchor x="236" y="0" name="bottom"/>
  <anchor x="236" y="693" name="top"/>
  <outline>
    <contour>
      <point x="235" y="-185" type="curve"/>
      <point x="307" y="-185"/>
      <point x="351" y="-134"/>
      <point x="351" y="-53" type="curve" smooth="yes"/>
      <point x="351" y="16"/>
      <point x="324" y="79"/>
      <point x="283" y="168" type="curve" smooth="yes"/>
      <point x="272" y="193" type="line"/>
      <point x="335" y="331"/>
      <point x="405" y="481"/>
      <point x="451" y="693" type="curve"/>
      <point x="377" y="693" type="line"/>
      <point x="340" y="509"/>
      <point x="286" y="377"/>
      <point x="236" y="260" type="curve"/>
      <point x="186" y="377"/>
      <point x="131" y="509"/>
      <point x="93" y="693" type="curve"/>
      <point x="20" y="693" type="line"/>
      <point x="67" y="481"/>
      <point x="136" y="331"/>
      <point x="199" y="193" type="curve"/>
      <point x="187" y="168" type="line" smooth="yes"/>
      <point x="143" y="79"/>
      <point x="119" y="16"/>
      <point x="119" y="-53" type="curve" smooth="yes"/>
      <point x="119" y="-134"/>
      <point x="166" y="-185"/>
    </contour>
    <contour>
      <point x="235" y="-126" type="curve"/>
      <point x="204" y="-126"/>
      <point x="181" y="-99"/>
      <point x="181" y="-53" type="curve" smooth="yes"/>
      <point x="181" y="5"/>
      <point x="202" y="59"/>
      <point x="236" y="136" type="curve"/>
      <point x="269" y="59"/>
      <point x="289" y="5"/>
      <point x="289" y="-53" type="curve" smooth="yes"/>
      <point x="289" y="-99"/>
      <point x="269" y="-126"/>
    </contour>
  </outline>
</glyph>
<glyph name="uni0194" format="2">
  <advance width="470.358"/>
  <unicode hex="0194"/>
  <anchor x="236" y="0" name="bottom"/>
  <anchor x="236" y="693" name="top"/>
  <outline>
    <contour>
      <point x="235" y="-185" type="curve"/>
      <point x="307" y="-185"/>
      <point x="351" y="-134"/>
      <point x="351" y="-53" type="curve" smooth="yes"/>
      <point x="351" y="16"/>
      <point x="324" y="79"/>
      <point x="283" y="168" type="curve" smooth="yes"/>
      <point x="272" y="193" type="line"/>
      <point x="335" y="331"/>
      <point x="405" y="481"/>
      <point x="451" y="693" type="curve"/>
      <point x="377" y="693" type="line"/>
      <point x="340" y="509"/>
      <point x="286" y="377"/>
      <point x="236" y="260" type="curve"/>
      <point x="186" y="377"/>
      <point x="131" y="509"/>
      <point x="93" y="693" type="curve"/>
      <point x="20" y="693" type="line"/>
      <point x="67" y="481"/>
      <point x="136" y="331"/>
      <point x="199" y="193" type="curve"/>
      <point x="187" y="168" type="line" smooth="yes"/>
      <point x="143" y="79"/>
      <point x="119" y="16"/>
      <point x="119" y="-53" type="curve" smooth="yes"/>
      <point x="119" y="-134"/>
      <point x="166" y="-185"/>
    </contour>
    <contour>
      <point x="235" y="-126" type="curve"/>
      <point x="204" y="-126"/>
      <point x="181" y="-99"/>
      <point x="181" y="-53" type="curve" smooth="yes"/>
      <point x="181" y="5"/>
      <point x="202" y="59"/>
      <point x="236" y="136" type="curve"/>
      <point x="269" y="59"/>
      <point x="289" y="5"/>
      <point x="289" y="-53" type="curve" smooth="yes"/>
      <point x="289" y="-99"/>
      <point x="269" y="-126"/>
    </contour>
  </outline>
</glyph>
<glyph name="hv" format="2">
  <advance width="712.736"/>
  <unicode hex="0195"/>
  <outline>
    <contour>
      <point x="481" y="-10" type="curve" smooth="yes"/>
      <point x="590" y="-10"/>
      <point x="641" y="52"/>
      <point x="641" y="186" type="curve" smooth="yes"/>
      <point x="641" y="522" type="line"/>
      <point x="571" y="522" type="line"/>
      <point x="571" y="188" type="line" smooth="yes"/>
      <point x="571" y="91"/>
      <point x="546" y="50"/>
      <point x="481" y="50" type="curve" smooth="yes"/>
      <point x="416" y="50"/>
      <point x="392" y="91"/>
      <point x="392" y="188" type="curve" smooth="yes"/>
      <point x="392" y="324" type="line" smooth="yes"/>
      <point x="392" y="458"/>
      <point x="342" y="532"/>
      <point x="241" y="532" type="curve" smooth="yes"/>
      <point x="207" y="532"/>
      <point x="174" y="525"/>
      <point x="147" y="515" type="curve"/>
      <point x="147" y="776" type="line"/>
      <point x="78" y="763" type="line"/>
      <point x="78" y="0" type="line"/>
      <point x="147" y="0" type="line"/>
      <point x="147" y="456" type="line"/>
      <point x="173" y="467"/>
      <point x="201" y="472"/>
      <point x="228" y="472" type="curve" smooth="yes"/>
      <point x="297" y="472"/>
      <point x="323" y="428"/>
      <point x="323" y="317" type="curve" smooth="yes"/>
      <point x="323" y="186" type="line" smooth="yes"/>
      <point x="323" y="52"/>
      <point x="373" y="-10"/>
    </contour>
  </outline>
</glyph>
<glyph name="uni0195" format="2">
  <advance width="712.736"/>
  <unicode hex="0195"/>
  <outline>
    <contour>
      <point x="481" y="-10" type="curve" smooth="yes"/>
      <point x="590" y="-10"/>
      <point x="641" y="52"/>
      <point x="641" y="186" type="curve" smooth="yes"/>
      <point x="641" y="522" type="line"/>
      <point x="571" y="522" type="line"/>
      <point x="571" y="188" type="line" smooth="yes"/>
      <point x="571" y="91"/>
      <point x="546" y="50"/>
      <point x="481" y="50" type="curve" smooth="yes"/>
      <point x="416" y="50"/>
      <point x="392" y="91"/>
      <point x="392" y="188" type="curve" smooth="yes"/>
      <point x="392" y="324" type="line" smooth="yes"/>
      <point x="392" y="458"/>
      <point x="342" y="532"/>
      <point x="241" y="532" type="curve" smooth="yes"/>
      <point x="207" y="532"/>
      <point x="174" y="525"/>
      <point x="147" y="515" type="curve"/>
      <point x="147" y="776" type="line"/>
      <point x="78" y="763" type="line"/>
      <point x="78" y="0" type="line"/>
      <point x="147" y="0" type="line"/>
      <point x="147" y="456" type="line"/>
      <point x="173" y="467"/>
      <point x="201" y="472"/>
      <point x="228" y="472" type="curve" smooth="yes"/>
      <point x="297" y="472"/>
      <point x="323" y="428"/>
      <point x="323" y="317" type="curve" smooth="yes"/>
      <point x="323" y="186" type="line" smooth="yes"/>
      <point x="323" y="52"/>
      <point x="373" y="-10"/>
    </contour>
  </outline>
</glyph>
<glyph name="uni0197" format="2">
  <advance width="273.472"/>
  <unicode hex="0197"/>
  <outline>
    <contour>
      <point x="100" y="0" type="line"/>
      <point x="172" y="0" type="line"/>
      <point x="172" y="333" type="line"/>
      <point x="255" y="333" type="line"/>
      <point x="255" y="388" type="line"/>
      <point x="172" y="388" type="line"/>
      <point x="172" y="693" type="line"/>
      <point x="100" y="693" type="line"/>
      <point x="100" y="388" type="line"/>
      <point x="19" y="388" type="line"/>
      <point x="19" y="333" type="line"/>
      <point x="100" y="333" type="line"/>
    </contour>
  </outline>
</glyph>
<glyph name="khook" format="2">
  <advance width="390.664"/>
  <unicode hex="0199"/>
  <anchor x="195" y="0" name="bottom"/>
  <anchor x="195" y="522" name="top"/>
  <outline>
    <contour>
      <point x="78" y="0" type="line"/>
      <point x="147" y="0" type="line"/>
      <point x="147" y="254" type="line"/>
      <point x="215" y="190"/>
      <point x="272" y="93"/>
      <point x="313" y="0" type="curve"/>
      <point x="388" y="0" type="line"/>
      <point x="346" y="98"/>
      <point x="277" y="211"/>
      <point x="206" y="279" type="curve"/>
      <point x="262" y="348"/>
      <point x="318" y="432"/>
      <point x="371" y="522" type="curve"/>
      <point x="297" y="522" type="line"/>
      <point x="255" y="449"/>
      <point x="203" y="365"/>
      <point x="147" y="296" type="curve"/>
      <point x="147" y="642" type="line" smooth="yes"/>
      <point x="147" y="698"/>
      <point x="163" y="718"/>
      <point x="200" y="718" type="curve" smooth="yes"/>
      <point x="209" y="718"/>
      <point x="221" y="716"/>
      <point x="231" y="713" type="curve"/>
      <point x="243" y="768" type="line"/>
      <point x="225" y="774"/>
      <point x="208" y="776"/>
      <point x="192" y="776" type="curve" smooth="yes"/>
      <point x="119" y="776"/>
      <point x="78" y="739"/>
      <point x="78" y="642" type="curve" smooth="yes"/>
    </contour>
  </outline>
</glyph>
<glyph name="lbar" format="2">
  <advance width="234.41"/>
  <unicode hex="019A"/>
  <outline>
    <contour>
      <point x="205" y="-6" type="curve"/>
      <point x="213" y="51" type="line"/>
      <point x="168" y="58"/>
      <point x="149" y="82"/>
      <point x="149" y="132" type="curve" smooth="yes"/>
      <point x="149" y="377" type="line"/>
      <point x="220" y="377" type="line"/>
      <point x="220" y="426" type="line"/>
      <point x="149" y="426" type="line"/>
      <point x="149" y="776" type="line"/>
      <point x="80" y="763" type="line"/>
      <point x="80" y="426" type="line"/>
      <point x="20" y="426" type="line"/>
      <point x="20" y="377" type="line"/>
      <point x="80" y="377" type="line"/>
      <point x="80" y="132" type="line" smooth="yes"/>
      <point x="80" y="48"/>
      <point x="122" y="1"/>
    </contour>
  </outline>
</glyph>
<glyph name="uni019B" format="2">
  <advance width="394.472"/>
  <unicode hex="019B"/>
  <anchor x="198" y="0" name="bottom"/>
  <anchor x="198" y="776" name="top"/>
  <outline>
    <contour>
      <point x="12" y="0" type="curve"/>
      <point x="81" y="0" type="line"/>
      <point x="112" y="150"/>
      <point x="158" y="311"/>
      <point x="206" y="437" type="curve"/>
      <point x="244" y="303"/>
      <point x="276" y="161"/>
      <point x="311" y="0" type="curve"/>
      <point x="382" y="0" type="line"/>
      <point x="340" y="196"/>
      <point x="292" y="395"/>
      <point x="223" y="604" type="curve"/>
      <point x="319" y="636" type="line"/>
      <point x="304" y="681" type="line"/>
      <point x="207" y="649" type="line"/>
      <point x="173" y="746"/>
      <point x="133" y="776"/>
      <point x="76" y="776" type="curve" smooth="yes"/>
      <point x="53" y="776"/>
      <point x="34" y="773"/>
      <point x="16" y="768" type="curve"/>
      <point x="27" y="711" type="line"/>
      <point x="39" y="715"/>
      <point x="49" y="717"/>
      <point x="60" y="717" type="curve" smooth="yes"/>
      <point x="99" y="717"/>
      <point x="122" y="686"/>
      <point x="143" y="627" type="curve"/>
      <point x="55" y="598" type="line"/>
      <point x="71" y="553" type="line"/>
      <point x="160" y="583" type="line"/>
      <point x="166" y="567"/>
      <point x="170" y="551"/>
      <point x="176" y="535" type="curve"/>
      <point x="112" y="375"/>
      <point x="52" y="189"/>
    </contour>
  </outline>
</glyph>
<glyph name="Mturned" format="2">
  <advance width="770.964"/>
  <unicode hex="019C"/>
  <unicode hex="026F"/>
  <outline>
    <contour>
      <point x="254" y="-10" type="curve"/>
      <point x="309" y="-10"/>
      <point x="359" y="7"/>
      <point x="401" y="36" type="curve"/>
      <point x="429" y="4"/>
      <point x="469" y="-10"/>
      <point x="525" y="-10" type="curve"/>
      <point x="576" y="-10"/>
      <point x="634" y="2"/>
      <point x="686" y="22" type="curve"/>
      <point x="686" y="693" type="line"/>
      <point x="614" y="693" type="line"/>
      <point x="614" y="69" type="line"/>
      <point x="587" y="59"/>
      <point x="560" y="53"/>
      <point x="530" y="53" type="curve"/>
      <point x="451" y="53"/>
      <point x="418" y="101"/>
      <point x="418" y="216" type="curve" smooth="yes"/>
      <point x="418" y="693" type="line"/>
      <point x="347" y="693" type="line"/>
      <point x="347" y="211" type="line" smooth="yes"/>
      <point x="347" y="162"/>
      <point x="352" y="122"/>
      <point x="365" y="90" type="curve"/>
      <point x="333" y="68"/>
      <point x="298" y="53"/>
      <point x="259" y="53" type="curve"/>
      <point x="182" y="53"/>
      <point x="151" y="99"/>
      <point x="151" y="216" type="curve" smooth="yes"/>
      <point x="151" y="693" type="line"/>
      <point x="79" y="693" type="line"/>
      <point x="79" y="211" type="line" smooth="yes"/>
      <point x="79" y="59"/>
      <point x="136" y="-10"/>
    </contour>
  </outline>
</glyph>
<glyph name="uni019D" format="2">
  <advance width="576.876"/>
  <unicode hex="019D"/>
  <anchor x="289" y="0" name="bottom"/>
  <anchor x="289" y="693" name="top"/>
  <outline>
    <contour>
      <point x="39" y="-187" type="curve" smooth="yes"/>
      <point x="117" y="-187"/>
      <point x="153" y="-133"/>
      <point x="153" y="-43" type="curve" smooth="yes"/>
      <point x="153" y="565" type="line"/>
      <point x="251" y="394"/>
      <point x="352" y="189"/>
      <point x="430" y="0" type="curve"/>
      <point x="493" y="0" type="line"/>
      <point x="493" y="693" type="line"/>
      <point x="424" y="693" type="line"/>
      <point x="424" y="159" type="line"/>
      <point x="347" y="337"/>
      <point x="244" y="535"/>
      <point x="150" y="693" type="curve"/>
      <point x="84" y="693" type="line"/>
      <point x="84" y="-49" type="line" smooth="yes"/>
      <point x="84" y="-102"/>
      <point x="70" y="-126"/>
      <point x="34" y="-126" type="curve" smooth="yes"/>
      <point x="20" y="-126"/>
      <point x="6" y="-124"/>
      <point x="-5" y="-120" type="curve"/>
      <point x="-16" y="-178" type="line"/>
      <point x="-1" y="-184"/>
      <point x="18" y="-187"/>
    </contour>
  </outline>
</glyph>
<glyph name="Ocenteredtilde" format="2">
  <advance width="591"/>
  <unicode hex="019F"/>
  <unicode hex="0275"/>
  <anchor x="296" y="673" name="top"/>
  <outline>
    <contour>
      <point x="296" y="-10" type="curve" smooth="yes"/>
      <point x="447" y="-10"/>
      <point x="534" y="119"/>
      <point x="534" y="345" type="curve" smooth="yes"/>
      <point x="534" y="573"/>
      <point x="447" y="704"/>
      <point x="296" y="704" type="curve" smooth="yes"/>
      <point x="144" y="704"/>
      <point x="58" y="573"/>
      <point x="58" y="345" type="curve" smooth="yes"/>
      <point x="58" y="119"/>
      <point x="144" y="-10"/>
    </contour>
    <contour>
      <point x="296" y="52" type="curve" smooth="yes"/>
      <point x="193" y="52"/>
      <point x="138" y="146"/>
      <point x="134" y="319" type="curve"/>
      <point x="457" y="319" type="line"/>
      <point x="453" y="146"/>
      <point x="397" y="52"/>
    </contour>
    <contour>
      <point x="134" y="373" type="line"/>
      <point x="139" y="547"/>
      <point x="193" y="641"/>
      <point x="296" y="641" type="curve" smooth="yes"/>
      <point x="397" y="641"/>
      <point x="452" y="547"/>
      <point x="457" y="373" type="curve"/>
    </contour>
  </outline>
</glyph>
<glyph name="Ohorn" format="2">
  <advance width="604.71"/>
  <unicode hex="01A0"/>
  <anchor x="303" y="0" name="bottom"/>
  <anchor x="303" y="693" name="top"/>
  <outline>
    <contour>
      <point x="296" y="-10" type="curve" smooth="yes"/>
      <point x="447" y="-10"/>
      <point x="534" y="119"/>
      <point x="534" y="345" type="curve" smooth="yes"/>
      <point x="534" y="452"/>
      <point x="514" y="536"/>
      <point x="479" y="597" type="curve"/>
      <point x="529" y="642"/>
      <point x="551" y="690"/>
      <point x="551" y="759" type="curve" smooth="yes"/>
      <point x="551" y="771"/>
      <point x="550" y="783"/>
      <point x="549" y="797" type="curve"/>
      <point x="485" y="797" type="line"/>
      <point x="486" y="782"/>
      <point x="487" y="768"/>
      <point x="487" y="752" type="curve" smooth="yes"/>
      <point x="487" y="704"/>
      <point x="473" y="671"/>
      <point x="443" y="643" type="curve"/>
      <point x="406" y="683"/>
      <point x="356" y="704"/>
      <point x="296" y="704" type="curve" smooth="yes"/>
      <point x="144" y="704"/>
      <point x="58" y="573"/>
      <point x="58" y="345" type="curve" smooth="yes"/>
      <point x="58" y="119"/>
      <point x="144" y="-10"/>
    </contour>
    <contour>
      <point x="296" y="52" type="curve" smooth="yes"/>
      <point x="189" y="52"/>
      <point x="133" y="155"/>
      <point x="133" y="345" type="curve" smooth="yes"/>
      <point x="133" y="538"/>
      <point x="189" y="641"/>
      <point x="296" y="641" type="curve" smooth="yes"/>
      <point x="402" y="641"/>
      <point x="457" y="538"/>
      <point x="457" y="345" type="curve" smooth="yes"/>
      <point x="457" y="154"/>
      <point x="402" y="52"/>
    </contour>
  </outline>
</glyph>
<glyph name="ohorn" format="2">
  <advance width="459.42"/>
  <unicode hex="01A1"/>
  <anchor x="230" y="0" name="bottom"/>
  <anchor x="230" y="522" name="top"/>
  <outline>
    <contour>
      <point x="228" y="-11" type="curve" smooth="yes"/>
      <point x="341" y="-11"/>
      <point x="406" y="88"/>
      <point x="406" y="262" type="curve" smooth="yes"/>
      <point x="406" y="333"/>
      <point x="395" y="392"/>
      <point x="374" y="437" type="curve"/>
      <point x="421" y="481"/>
      <point x="445" y="526"/>
      <point x="445" y="588" type="curve" smooth="yes"/>
      <point x="445" y="599"/>
      <point x="444" y="612"/>
      <point x="442" y="625" type="curve"/>
      <point x="376" y="625" type="line"/>
      <point x="378" y="610"/>
      <point x="379" y="596"/>
      <point x="379" y="581" type="curve" smooth="yes"/>
      <point x="379" y="540"/>
      <point x="365" y="510"/>
      <point x="339" y="484" type="curve"/>
      <point x="311" y="518"/>
      <point x="273" y="535"/>
      <point x="228" y="535" type="curve" smooth="yes"/>
      <point x="115" y="535"/>
      <point x="50" y="435"/>
      <point x="50" y="262" type="curve" smooth="yes"/>
      <point x="50" y="88"/>
      <point x="115" y="-11"/>
    </contour>
    <contour>
      <point x="228" y="50" type="curve" smooth="yes"/>
      <point x="160" y="50"/>
      <point x="122" y="123"/>
      <point x="122" y="262" type="curve" smooth="yes"/>
      <point x="122" y="401"/>
      <point x="160" y="474"/>
      <point x="228" y="474" type="curve" smooth="yes"/>
      <point x="296" y="474"/>
      <point x="334" y="401"/>
      <point x="334" y="262" type="curve" smooth="yes"/>
      <point x="334" y="122"/>
      <point x="296" y="50"/>
    </contour>
  </outline>
</glyph>
<glyph name="uni01A2" format="2">
  <advance width="817.462"/>
  <unicode hex="01A2"/>
  <outline>
    <contour>
      <point x="292" y="-10" type="curve" smooth="yes"/>
      <point x="444" y="-10"/>
      <point x="526" y="124"/>
      <point x="526" y="345" type="curve" smooth="yes"/>
      <point x="526" y="453"/>
      <point x="507" y="539"/>
      <point x="468" y="605" type="curve"/>
      <point x="497" y="629"/>
      <point x="525" y="643"/>
      <point x="559" y="643" type="curve" smooth="yes"/>
      <point x="636" y="643"/>
      <point x="665" y="593"/>
      <point x="665" y="484" type="curve" smooth="yes"/>
      <point x="665" y="0" type="line"/>
      <point x="737" y="0" type="line"/>
      <point x="737" y="493" type="line" smooth="yes"/>
      <point x="737" y="636"/>
      <point x="685" y="706"/>
      <point x="569" y="706" type="curve" smooth="yes"/>
      <point x="517" y="706"/>
      <point x="471" y="686"/>
      <point x="428" y="654" type="curve"/>
      <point x="387" y="688"/>
      <point x="344" y="706"/>
      <point x="292" y="706" type="curve" smooth="yes"/>
      <point x="142" y="706"/>
      <point x="58" y="569"/>
      <point x="58" y="345" type="curve" smooth="yes"/>
      <point x="58" y="124"/>
      <point x="142" y="-10"/>
    </contour>
    <contour>
      <point x="292" y="52" type="curve" smooth="yes"/>
      <point x="187" y="52"/>
      <point x="133" y="164"/>
      <point x="133" y="345" type="curve" smooth="yes"/>
      <point x="133" y="528"/>
      <point x="187" y="642"/>
      <point x="292" y="642" type="curve" smooth="yes"/>
      <point x="397" y="642"/>
      <point x="450" y="528"/>
      <point x="450" y="345" type="curve" smooth="yes"/>
      <point x="450" y="164"/>
      <point x="397" y="52"/>
    </contour>
  </outline>
</glyph>
<glyph name="oi" format="2">
  <advance width="667.322"/>
  <unicode hex="01A3"/>
  <outline>
    <contour>
      <point x="525" y="-185" type="line"/>
      <point x="594" y="-185" type="line"/>
      <point x="594" y="339" type="line" smooth="yes"/>
      <point x="594" y="475"/>
      <point x="546" y="533"/>
      <point x="448" y="533" type="curve" smooth="yes"/>
      <point x="406" y="533"/>
      <point x="367" y="517"/>
      <point x="336" y="487" type="curve"/>
      <point x="308" y="519"/>
      <point x="269" y="535"/>
      <point x="225" y="535" type="curve" smooth="yes"/>
      <point x="114" y="535"/>
      <point x="50" y="435"/>
      <point x="50" y="262" type="curve" smooth="yes"/>
      <point x="50" y="88"/>
      <point x="114" y="-11"/>
      <point x="225" y="-11" type="curve" smooth="yes"/>
      <point x="336" y="-11"/>
      <point x="400" y="88"/>
      <point x="400" y="262" type="curve" smooth="yes"/>
      <point x="400" y="335"/>
      <point x="388" y="395"/>
      <point x="366" y="440" type="curve"/>
      <point x="389" y="462"/>
      <point x="413" y="473"/>
      <point x="442" y="473" type="curve" smooth="yes"/>
      <point x="506" y="473"/>
      <point x="525" y="429"/>
      <point x="525" y="325" type="curve" smooth="yes"/>
    </contour>
    <contour>
      <point x="225" y="50" type="curve" smooth="yes"/>
      <point x="160" y="50"/>
      <point x="122" y="123"/>
      <point x="122" y="262" type="curve" smooth="yes"/>
      <point x="122" y="401"/>
      <point x="160" y="474"/>
      <point x="225" y="474" type="curve" smooth="yes"/>
      <point x="290" y="474"/>
      <point x="328" y="401"/>
      <point x="328" y="262" type="curve" smooth="yes"/>
      <point x="328" y="122"/>
      <point x="291" y="50"/>
    </contour>
  </outline>
</glyph>
<glyph name="phook" format="2">
  <advance width="456.244"/>
  <unicode hex="01A5"/>
  <anchor x="229" y="0" name="bottom"/>
  <anchor x="229" y="522" name="top"/>
  <outline>
    <contour>
      <point x="78" y="-185" type="line"/>
      <point x="147" y="-185" type="line"/>
      <point x="147" y="13" type="line"/>
      <point x="166" y="0"/>
      <point x="196" y="-10"/>
      <point x="230" y="-10" type="curve" smooth="yes"/>
      <point x="334" y="-10"/>
      <point x="406" y="68"/>
      <point x="406" y="262" type="curve" smooth="yes"/>
      <point x="406" y="429"/>
      <point x="351" y="533"/>
      <point x="213" y="533" type="curve" smooth="yes"/>
      <point x="188" y="533"/>
      <point x="167" y="530"/>
      <point x="147" y="523" type="curve"/>
      <point x="147" y="642" type="line" smooth="yes"/>
      <point x="147" y="698"/>
      <point x="163" y="718"/>
      <point x="200" y="718" type="curve" smooth="yes"/>
      <point x="209" y="718"/>
      <point x="221" y="716"/>
      <point x="231" y="713" type="curve"/>
      <point x="243" y="768" type="line"/>
      <point x="225" y="774"/>
      <point x="208" y="776"/>
      <point x="192" y="776" type="curve" smooth="yes"/>
      <point x="119" y="776"/>
      <point x="78" y="739"/>
      <point x="78" y="642" type="curve" smooth="yes"/>
    </contour>
    <contour>
      <point x="221" y="50" type="curve" smooth="yes"/>
      <point x="191" y="50"/>
      <point x="163" y="59"/>
      <point x="147" y="73" type="curve"/>
      <point x="147" y="460" type="line"/>
      <point x="163" y="468"/>
      <point x="186" y="473"/>
      <point x="212" y="473" type="curve" smooth="yes"/>
      <point x="289" y="473"/>
      <point x="334" y="426"/>
      <point x="334" y="262" type="curve" smooth="yes"/>
      <point x="334" y="82"/>
      <point x="273" y="50"/>
    </contour>
  </outline>
</glyph>
<glyph name="uni01A6" format="2">
  <advance width="502.358"/>
  <unicode hex="01A6"/>
  <outline>
    <contour>
      <point x="426" y="-109" type="curve"/>
      <point x="503" y="-109" type="line"/>
      <point x="453" y="40"/>
      <point x="388" y="193"/>
      <point x="325" y="300" type="curve"/>
      <point x="394" y="333"/>
      <point x="432" y="398"/>
      <point x="432" y="487" type="curve" smooth="yes"/>
      <point x="432" y="625"/>
      <point x="351" y="702"/>
      <point x="207" y="702" type="curve" smooth="yes"/>
      <point x="189" y="702"/>
      <point x="168" y="700"/>
      <point x="151" y="697" type="curve"/>
      <point x="151" y="777" type="line"/>
      <point x="76" y="777" type="line"/>
      <point x="76" y="1" type="line"/>
      <point x="151" y="1" type="line"/>
      <point x="151" y="276" type="line"/>
      <point x="204" y="276" type="line" smooth="yes"/>
      <point x="222" y="276"/>
      <point x="243" y="278"/>
      <point x="258" y="279" type="curve"/>
      <point x="327" y="167"/>
      <point x="382" y="24"/>
    </contour>
    <contour>
      <point x="151" y="337" type="line"/>
      <point x="151" y="633" type="line"/>
      <point x="167" y="636"/>
      <point x="192" y="638"/>
      <point x="210" y="638" type="curve" smooth="yes"/>
      <point x="306" y="638"/>
      <point x="356" y="588"/>
      <point x="356" y="487" type="curve" smooth="yes"/>
      <point x="356" y="388"/>
      <point x="305" y="337"/>
      <point x="207" y="337" type="curve" smooth="yes"/>
    </contour>
  </outline>
</glyph>
<glyph name="Tonetwo" format="2">
  <advance width="390.244"/>
  <unicode hex="01A7"/>
  <outline>
    <contour>
      <point x="227" y="-11" type="curve" smooth="yes"/>
      <point x="275" y="-11"/>
      <point x="328" y="2"/>
      <point x="368" y="25" type="curve"/>
      <point x="347" y="87" type="line"/>
      <point x="312" y="65"/>
      <point x="270" y="51"/>
      <point x="228" y="51" type="curve" smooth="yes"/>
      <point x="152" y="51"/>
      <point x="106" y="98"/>
      <point x="106" y="174" type="curve" smooth="yes"/>
      <point x="106" y="254"/>
      <point x="155" y="292"/>
      <point x="224" y="337" type="curve" smooth="yes"/>
      <point x="294" y="384"/>
      <point x="351" y="432"/>
      <point x="351" y="525" type="curve" smooth="yes"/>
      <point x="351" y="630"/>
      <point x="281" y="704"/>
      <point x="168" y="704" type="curve" smooth="yes"/>
      <point x="122" y="704"/>
      <point x="77" y="693"/>
      <point x="41" y="675" type="curve"/>
      <point x="62" y="615" type="line"/>
      <point x="94" y="633"/>
      <point x="131" y="642"/>
      <point x="164" y="642" type="curve" smooth="yes"/>
      <point x="232" y="642"/>
      <point x="278" y="603"/>
      <point x="278" y="532" type="curve" smooth="yes"/>
      <point x="278" y="463"/>
      <point x="234" y="432"/>
      <point x="163" y="385" type="curve" smooth="yes"/>
      <point x="88" y="335"/>
      <point x="33" y="281"/>
      <point x="33" y="186" type="curve" smooth="yes"/>
      <point x="33" y="70"/>
      <point x="106" y="-11"/>
    </contour>
  </outline>
</glyph>
<glyph name="uni01AA" format="2">
  <advance width="298.27"/>
  <unicode hex="01AA"/>
  <outline>
    <contour>
      <point x="275" y="-187" type="curve"/>
      <point x="284" y="-130" type="line"/>
      <point x="238" y="-122"/>
      <point x="220" y="-99"/>
      <point x="220" y="-48" type="curve" smooth="yes"/>
      <point x="220" y="624" type="line" smooth="yes"/>
      <point x="220" y="719"/>
      <point x="179" y="777"/>
      <point x="93" y="777" type="curve" smooth="yes"/>
      <point x="15" y="777"/>
      <point x="-34" y="721"/>
      <point x="-34" y="632" type="curve" smooth="yes"/>
      <point x="-34" y="541"/>
      <point x="14" y="487"/>
      <point x="84" y="487" type="curve" smooth="yes"/>
      <point x="107" y="487"/>
      <point x="131" y="493"/>
      <point x="150" y="513" type="curve"/>
      <point x="150" y="-44" type="line" smooth="yes"/>
      <point x="150" y="-132"/>
      <point x="192" y="-179"/>
    </contour>
    <contour>
      <point x="89" y="541" type="curve" smooth="yes"/>
      <point x="48" y="541"/>
      <point x="25" y="573"/>
      <point x="25" y="634" type="curve" smooth="yes"/>
      <point x="25" y="691"/>
      <point x="47" y="724"/>
      <point x="89" y="724" type="curve" smooth="yes"/>
      <point x="128" y="724"/>
      <point x="150" y="687"/>
      <point x="150" y="638" type="curve" smooth="yes"/>
      <point x="150" y="573" type="line"/>
      <point x="132" y="551"/>
      <point x="109" y="541"/>
    </contour>
  </outline>
</glyph>
<glyph name="uni01AC" format="2">
  <advance width="462.208"/>
  <unicode hex="01AC"/>
  <anchor x="231" y="0" name="bottom"/>
  <anchor x="231" y="693" name="top"/>
  <outline>
    <contour>
      <point x="215" y="0" type="line"/>
      <point x="287" y="0" type="line"/>
      <point x="287" y="631" type="line"/>
      <point x="444" y="631" type="line"/>
      <point x="444" y="693" type="line"/>
      <point x="211" y="693" type="line" smooth="yes"/>
      <point x="95" y="693"/>
      <point x="15" y="637"/>
      <point x="15" y="543" type="curve" smooth="yes"/>
      <point x="15" y="525"/>
      <point x="18" y="503"/>
      <point x="21" y="488" type="curve"/>
      <point x="78" y="496" type="line"/>
      <point x="75" y="509"/>
      <point x="73" y="524"/>
      <point x="73" y="539" type="curve" smooth="yes"/>
      <point x="73" y="603"/>
      <point x="132" y="631"/>
      <point x="191" y="631" type="curve" smooth="yes"/>
      <point x="215" y="631" type="line"/>
    </contour>
  </outline>
</glyph>
<glyph name="Tretroflexhook" format="2">
  <advance width="421.472"/>
  <unicode hex="01AE"/>
  <unicode hex="0288"/>
  <anchor x="211" y="0" name="bottom"/>
  <anchor x="211" y="693" name="top"/>
  <outline>
    <contour>
      <point x="291" y="-187" type="curve" smooth="yes"/>
      <point x="314" y="-187"/>
      <point x="331" y="-184"/>
      <point x="347" y="-178" type="curve"/>
      <point x="335" y="-120" type="line"/>
      <point x="324" y="-124"/>
      <point x="311" y="-126"/>
      <point x="297" y="-126" type="curve" smooth="yes"/>
      <point x="261" y="-126"/>
      <point x="246" y="-102"/>
      <point x="246" y="-49" type="curve" smooth="yes"/>
      <point x="246" y="631" type="line"/>
      <point x="403" y="631" type="line"/>
      <point x="403" y="693" type="line"/>
      <point x="19" y="693" type="line"/>
      <point x="19" y="631" type="line"/>
      <point x="174" y="631" type="line"/>
      <point x="174" y="-43" type="line" smooth="yes"/>
      <point x="174" y="-133"/>
      <point x="212" y="-187"/>
    </contour>
  </outline>
</glyph>
<glyph name="uni01AE" format="2">
  <advance width="421.472"/>
  <unicode hex="01AE"/>
  <anchor x="211" y="0" name="bottom"/>
  <anchor x="211" y="693" name="top"/>
  <outline>
    <contour>
      <point x="291" y="-187" type="curve" smooth="yes"/>
      <point x="314" y="-187"/>
      <point x="331" y="-184"/>
      <point x="347" y="-178" type="curve"/>
      <point x="335" y="-120" type="line"/>
      <point x="324" y="-124"/>
      <point x="311" y="-126"/>
      <point x="297" y="-126" type="curve" smooth="yes"/>
      <point x="261" y="-126"/>
      <point x="246" y="-102"/>
      <point x="246" y="-49" type="curve" smooth="yes"/>
      <point x="246" y="631" type="line"/>
      <point x="403" y="631" type="line"/>
      <point x="403" y="693" type="line"/>
      <point x="19" y="693" type="line"/>
      <point x="19" y="631" type="line"/>
      <point x="174" y="631" type="line"/>
      <point x="174" y="-43" type="line" smooth="yes"/>
      <point x="174" y="-133"/>
      <point x="212" y="-187"/>
    </contour>
  </outline>
</glyph>
<glyph name="Uhorn" format="2">
  <advance width="546.472"/>
  <unicode hex="01AF"/>
  <anchor x="274" y="0" name="bottom"/>
  <anchor x="274" y="693" name="top"/>
  <outline>
    <contour>
      <point x="269" y="-10" type="curve"/>
      <point x="398" y="-10"/>
      <point x="460" y="63"/>
      <point x="460" y="211" type="curve" smooth="yes"/>
      <point x="460" y="642" type="line"/>
      <point x="531" y="649"/>
      <point x="561" y="694"/>
      <point x="561" y="753" type="curve" smooth="yes"/>
      <point x="561" y="766"/>
      <point x="560" y="782"/>
      <point x="557" y="797" type="curve"/>
      <point x="494" y="797" type="line"/>
      <point x="495" y="784"/>
      <point x="496" y="771"/>
      <point x="496" y="759" type="curve" smooth="yes"/>
      <point x="496" y="714"/>
      <point x="480" y="693"/>
      <point x="422" y="693" type="curve"/>
      <point x="388" y="693" type="line"/>
      <point x="388" y="214" type="line" smooth="yes"/>
      <point x="388" y="104"/>
      <point x="351" y="54"/>
      <point x="269" y="54" type="curve"/>
      <point x="187" y="54"/>
      <point x="149" y="104"/>
      <point x="149" y="214" type="curve" smooth="yes"/>
      <point x="149" y="693" type="line"/>
      <point x="77" y="693" type="line"/>
      <point x="77" y="211" type="line" smooth="yes"/>
      <point x="77" y="63"/>
      <point x="140" y="-10"/>
    </contour>
  </outline>
</glyph>
